<svg width="709" height="676" fill="none" xmlns="http://www.w3.org/2000/svg"><path fill-rule="evenodd" clip-rule="evenodd" d="M705.981 353.135c1.006-5.163 2.01-10.319 3.019-15.462C709 132.83 505.198-36.009 305.632 6.643c-205.056 0-279.393 132.897-303.526 331.03-21.345 175.24 121.596 348.945 336.942 328.247 295.066 56.177 331.855-132.693 366.933-312.785zM195.007 158.431c0-6.313 5.117-11.431 11.431-11.431 6.313 0 11.43 5.118 11.43 11.431v22.1h272.818v-22.1c0-6.313 5.118-11.431 11.431-11.431 6.313 0 11.431 5.118 11.431 11.431v346.737h19.051c6.313 0 11.431 5.118 11.431 11.431 0 6.313-5.118 11.431-11.431 11.431H174.431c-6.313 0-11.431-5.118-11.431-11.431 0-6.313 5.118-11.431 11.431-11.431h20.576V158.431zm22.861 288.82v57.917h272.818v-57.917h-19.585c-2.471 12.175-13.235 21.338-26.139 21.338s-23.667-9.163-26.138-21.338h-20.119c-2.471 12.175-13.235 21.338-26.138 21.338-12.904 0-23.668-9.163-26.139-21.338h-20.881c-2.471 12.175-13.234 21.338-26.138 21.338-12.904 0-23.668-9.163-26.139-21.338h-55.402zm272.818-10.668h-19.585c-2.472-12.175-13.235-21.338-26.139-21.338-12.903 0-23.667 9.163-26.138 21.338h-20.119c-2.471-12.175-13.235-21.338-26.138-21.338-12.904 0-23.667 9.163-26.139 21.338h-20.881c-2.471-12.175-13.235-21.338-26.138-21.338-12.904 0-23.667 9.163-26.139 21.338h-55.402v-76.968h18.061c2.472 12.174 13.235 21.338 26.139 21.338s23.667-9.164 26.139-21.338h16.308c2.471 12.174 13.235 21.338 26.138 21.338 12.904 0 23.668-9.164 26.139-21.338H373.1c2.471 12.174 13.235 21.338 26.139 21.338 12.903 0 23.667-9.164 26.138-21.338h65.309v76.968zm-202.48-87.637h16.309c2.471-12.174 13.235-21.338 26.138-21.338 12.904 0 23.668 9.164 26.139 21.338H373.1c2.471-12.174 13.235-21.338 26.139-21.338 12.903 0 23.667 9.164 26.138 21.338h65.309v-78.492h-15.013c-2.471 12.174-13.234 21.337-26.138 21.337-12.904 0-23.668-9.163-26.139-21.337h-21.643c-2.471 12.174-13.234 21.337-26.138 21.337-12.904 0-23.668-9.163-26.139-21.337h-62.794c-2.471 12.174-13.234 21.337-26.138 21.337-12.904 0-23.668-9.163-26.139-21.337h-16.537v78.492h18.061c2.472-12.174 13.235-21.338 26.139-21.338s23.667 9.164 26.138 21.338zm113.547-89.161h21.643c2.472-12.175 13.235-21.338 26.139-21.338 12.903 0 23.667 9.163 26.138 21.338h15.013v-56.392H217.868v56.392h16.537c2.472-12.175 13.235-21.338 26.139-21.338 12.903 0 23.667 9.163 26.138 21.338h62.794c2.472-12.175 13.235-21.338 26.139-21.338 12.903 0 23.667 9.163 26.138 21.338z" fill="#fff"/></svg>