<svg width="709" height="676" fill="none" xmlns="http://www.w3.org/2000/svg"><path fill-rule="evenodd" clip-rule="evenodd" d="M705.981 353.135c1.006-5.163 2.01-10.319 3.019-15.462C709 132.83 505.198-36.009 305.632 6.643c-205.056 0-279.393 132.897-303.526 331.03-21.345 175.24 121.596 348.945 336.942 328.247 295.066 56.177 331.855-132.693 366.933-312.785zM315.478 225.574v-83.623c8.588-9.85 16.014-17.034 22.743-21.809 7.079-5.022 12.968-7.082 18.317-7.141 10.551-.115 22.819 7.583 40.888 28.89v83.683h-81.948zm96.948-86.052v86.052h26.045a8.5 8.5 0 018.5 8.5v100.669c1.355 13.872 4.33 22.269 9.365 28.613 3.881 4.89 9.373 9.065 17.558 13.432.808-8.513 2.196-15.668 4.76-21.805 3.681-8.813 9.522-14.948 17.894-20.278a8.538 8.538 0 014.628-1.33c17.943.119 28.176-1.448 34.833-4.415 5.747-2.56 9.423-6.432 13.252-13.185.434-24.075 3.207-41.881 19.284-53.161l.277.395a7.016 7.016 0 118.061 11.488l.277.396c-9.598 6.735-12.579 17.403-12.926 42.722a8.508 8.508 0 01-1.022 3.929c-4.964 9.181-10.809 16.533-21.098 21.118-9.399 4.188-21.788 5.722-39.059 5.72-5.41 3.714-8.496 7.441-10.56 12.383-2.43 5.817-3.683 13.859-4.302 26.696l-.149-.007c.103.528.157 1.073.157 1.629v180.384a8.5 8.5 0 01-8.5 8.5H230.975a8.5 8.5 0 01-8.5-8.5V393.776c-14.85-4.163-26.24-8.649-34.488-15.169-9.8-7.747-14.475-17.762-16.536-30.907a8.537 8.537 0 01-.042-2.335c1.919-15.929 5.309-28.088 11.263-39.378 5.623-10.662 13.34-20.169 23.443-31.108 1.249-12.677-.531-17.924-3.134-20.574-3.037-3.093-9.503-5.22-24.201-5.649-9.858.136-16.494 1.823-22.049 4.297-5.145 2.292-9.524 5.301-15.136 9.157h-.001l-.005.004-.009.006c-.753.517-1.529 1.051-2.332 1.599l-.273-.398a7.016 7.016 0 11-7.917-11.588l-.272-.399c.759-.519 1.517-1.041 2.278-1.565 5.487-3.78 11.07-7.625 17.563-10.518 7.649-3.408 16.372-5.453 28.12-5.596l.152-.002.152.005c14.488.409 26.916 2.279 34.633 10.137 8.025 8.173 8.799 20.428 7.104 34.909a8.53 8.53 0 01-2.229 4.817c-10.609 11.379-17.684 20.105-22.619 29.463-4.773 9.05-7.748 19.088-9.527 33.269 1.699 10.013 4.998 15.94 10.876 20.587 6.299 4.98 16.158 8.989 32.306 13.335 12.07-6.422 19.879-12.125 25.618-18.737 5.937-6.84 10.097-15.157 14.064-27.498v-99.866a8.5 8.5 0 018.5-8.5h22.701V139.53a8.52 8.52 0 012.055-5.541c9.562-11.143 18.408-19.978 27.008-26.08 8.657-6.142 17.475-9.805 26.834-9.907 18.574-.202 35.336 13.595 54.075 36.071a8.525 8.525 0 011.976 5.449zm-15 123.697v-22.645h-81.948v22.645h-15v-22.645h-16.201v94.376c0 .881-.138 1.744-.394 2.558-4.371 13.856-9.374 24.583-17.342 33.763-7.262 8.365-16.599 14.998-29.066 21.701v169.995h235.726V393.228c-12.26-5.847-21.808-11.971-28.614-20.547-7.615-9.596-11.108-21.36-12.583-36.867l-.033-.355v-94.885h-19.545v22.645h-15zM276.777 421.437h10.329v79.617a8.5 8.5 0 008.5 8.5h117.235a8.5 8.5 0 008.5-8.5v-79.617h8.101v-15H276.777v15zm25.329 73.117v-73.117h104.235v73.117H302.106z" fill="#013845"/></svg>