<svg width="709" height="676" fill="none" xmlns="http://www.w3.org/2000/svg"><path fill-rule="evenodd" clip-rule="evenodd" d="M705.981 353.136c1.006-5.164 2.01-10.32 3.019-15.463C709 132.83 505.198-36.009 305.632 6.643c-205.055 0-279.393 132.896-303.526 331.03-21.345 175.24 121.596 348.945 336.942 328.247 295.066 56.177 331.854-132.692 366.933-312.784zM315.479 225.574v-83.623c8.587-9.85 16.013-17.034 22.742-21.809 7.079-5.022 12.968-7.082 18.317-7.141 10.551-.115 22.819 7.583 40.888 28.891v83.682h-81.947zm96.947-86.052v86.052h26.045a8.5 8.5 0 018.5 8.5v100.668c1.355 13.873 4.33 22.27 9.366 28.614 3.88 4.89 9.372 9.065 17.557 13.432.808-8.513 2.196-15.667 4.76-21.805 3.682-8.813 9.522-14.948 17.894-20.278a8.53 8.53 0 014.628-1.33c17.943.119 28.175-1.448 34.833-4.415 5.747-2.56 9.423-6.432 13.252-13.184.434-24.076 3.207-41.881 19.284-53.163l.277.396a7.017 7.017 0 118.061 11.488l.278.396c-9.599 6.735-12.579 17.403-12.927 42.721a8.522 8.522 0 01-1.022 3.93c-4.964 9.182-10.809 16.534-21.098 21.118-9.399 4.188-21.788 5.722-39.059 5.72-5.41 3.714-8.496 7.441-10.56 12.383-2.43 5.817-3.683 13.859-4.302 26.697l-.148-.008c.102.529.156 1.073.156 1.629v180.384a8.5 8.5 0 01-8.5 8.5H230.975a8.5 8.5 0 01-8.5-8.5V393.776c-14.85-4.163-26.24-8.648-34.488-15.169-9.8-7.747-14.475-17.762-16.536-30.907a8.537 8.537 0 01-.042-2.335c1.919-15.928 5.309-28.088 11.264-39.379 5.622-10.661 13.339-20.168 23.442-31.107 1.249-12.677-.531-17.924-3.134-20.574-3.037-3.093-9.503-5.22-24.201-5.649-9.857.136-16.494 1.823-22.049 4.297-5.145 2.292-9.524 5.301-15.142 9.16l-.009.007c-.753.518-1.529 1.051-2.332 1.599l-.273-.399a7.017 7.017 0 01-7.917-11.587l-.272-.399c.723-.494 1.447-.992 2.171-1.491l.107-.073c5.487-3.781 11.07-7.626 17.563-10.519 7.65-3.407 16.372-5.453 28.12-5.596l.152-.002.152.004c14.488.41 26.916 2.28 34.633 10.138 8.025 8.173 8.799 20.428 7.104 34.908a8.526 8.526 0 01-2.229 4.818c-10.609 11.379-17.683 20.106-22.619 29.463-4.773 9.05-7.747 19.088-9.527 33.269 1.699 10.013 4.998 15.94 10.876 20.587 6.299 4.98 16.158 8.989 32.306 13.335 12.07-6.422 19.879-12.125 25.618-18.737 5.937-6.84 10.097-15.157 14.064-27.498v-99.866a8.5 8.5 0 018.5-8.5h22.702v-86.045c0-2.087.77-4.045 2.054-5.54 9.563-11.142 18.408-19.978 27.009-26.081 8.656-6.141 17.474-9.803 26.833-9.906 18.574-.202 35.336 13.596 54.075 36.071a8.525 8.525 0 011.976 5.449zm-15 123.697v-22.645h-81.947v22.645h-15v-22.645h-16.202v94.376c0 .88-.137 1.744-.394 2.558-4.371 13.856-9.374 24.583-17.342 33.763-7.262 8.365-16.599 14.998-29.066 21.701v169.995h235.726V393.228c-12.26-5.848-21.808-11.971-28.614-20.547-7.615-9.595-11.107-21.36-12.582-36.867l-.034-.355v-94.885h-19.545v22.645h-15zM276.777 421.438h10.33v79.616a8.5 8.5 0 008.5 8.5h117.234a8.5 8.5 0 008.5-8.5v-79.616h8.101v-15H276.777v15zm25.33 73.116v-73.116h104.234v73.116H302.107z" fill="#fff"/></svg>