<svg width="709" height="676" fill="none" xmlns="http://www.w3.org/2000/svg"><path fill-rule="evenodd" clip-rule="evenodd" d="M705.981 353.135c1.006-5.163 2.01-10.319 3.019-15.462C709 132.83 505.198-36.009 305.632 6.643c-205.056 0-279.393 132.897-303.526 331.03-21.345 175.24 121.596 348.945 336.942 328.247 295.066 56.177 331.855-132.693 366.933-312.785zM286.422 123.721c1.109-20.838 9.106-35.946 20.108-46.057C318.557 66.61 334.82 60.947 351.372 61c16.553.054 32.844 5.826 44.898 16.93 11.032 10.162 19.016 25.243 20.118 45.873-41.865-11.854-87.895-12.152-129.966-.082zm-15.361 5.029h-4.77c0-28.62 10.407-50.833 26.706-65.812 16.141-14.834 37.435-22.006 58.44-21.938 21.003.069 42.269 7.376 58.383 22.22 16.271 14.988 26.698 37.126 26.698 65.53h-4.749c62 22.405 111.999 71.384 121.289 144.063v96.05c18.28-.71 34.224 1.073 45.298 11.554 11.226 10.627 14.791 27.707 15.637 49.701l.007.192v37.384c0 9.773-2.79 19.718-8.9 28.007-8.532 11.574-16.571 20.002-25.878 25.946-9.405 6.007-19.395 9.025-31.085 10.88l-3.134-19.753c10.045-1.594 17.133-3.946 23.454-7.983 6.419-4.099 12.753-10.387 20.544-20.957 3.274-4.441 4.999-10.099 4.999-16.14v-36.997c-.848-21.577-4.476-31.1-9.393-35.754-4.752-4.499-13.267-6.842-31.549-6.064v72.825c0 66.274-53.725 119.999-120 119.999H269.424c-46.683 0-87.141-26.657-106.98-65.581l-2.581 16.264c-11.69-1.855-21.68-4.873-31.085-10.879-9.307-5.944-17.346-14.373-25.878-25.947-6.11-8.288-8.9-18.234-8.9-28.007V430.17l.007-.192c.846-21.995 4.41-39.075 15.638-49.701 9.944-9.413 23.815-11.81 39.779-11.688v-84.322c0-7.619.654-15.365 2.484-22.761 11.248-45.455 35.45-79.919 66.686-103.984v-.219h.285c15.849-12.161 33.5-21.654 52.182-28.553zm-99.738 137.56c8.484-34.29 25.255-61.727 47.271-82.485v5.328c0 71.797 58.203 130 130 130h4.647c71.797 0 130-58.203 130-130v-7.782c26.271 23.103 44.61 54.354 49.817 92.753v187.58c0 55.228-44.771 99.999-100 99.999H269.424c-55.228 0-100-44.771-100-100V284.267c0-6.544.569-12.585 1.899-17.957zm190.129-131.273c37.095 1.747 72.654 12.48 101.789 31.26v22.856c0 60.751-49.249 110-110 110h-4.647c-60.751 0-110-49.249-110-110v-21.43c35.049-24.024 78.877-34.757 122.858-32.686zM123.393 394.802c4.246-4.019 11.496-6.318 26.031-6.207v73.108c0 18.046 3.984 35.161 11.119 50.515-8.769-1.583-15.206-3.867-21-7.567-6.419-4.1-12.753-10.388-20.544-20.958-3.274-4.441-4.999-10.099-4.999-16.14v-36.997c.848-21.576 4.476-31.1 9.393-35.754zm135.7 71.391h115.626v27.315h20v-27.315h54.512v-20H259.093v20z" fill="#013845"/></svg>