<svg width="709" height="676" fill="none" xmlns="http://www.w3.org/2000/svg"><path fill-rule="evenodd" clip-rule="evenodd" d="M709 337.673c-1.009 5.143-2.013 10.299-3.019 15.462-35.078 180.092-71.867 368.962-366.933 312.785C123.702 686.618-19.239 512.913 2.106 337.673 26.239 139.54 100.576 6.643 305.632 6.643 505.198-36.008 709 132.83 709 337.674zM349.859 97.993l-11.746-5.22a3.002 3.002 0 00-1.283-.258l-66.256 1.43a3 3 0 00-2.91 2.608l-6.856 52.107a3.021 3.021 0 001.911 3.197c48.19 18.624 75.267 29.572 99.415 46.266 1.675 1.157 1.682 3.614.025 4.795-27.951 19.923-52.058 29.338-92.779 44.976a3.01 3.01 0 01-3.912-1.788l-23.157-64.929a3 3 0 00-4.527-1.463l-26.298 18.107a2.998 2.998 0 01-2.169.492l-6.835-1.079a2.998 2.998 0 00-2.558.812l-15.514 15.07a3 3 0 00-.91 2.152v40.754c0 1.2.715 2.285 1.818 2.757l7.692 3.297c.64.274 1.167.767 1.487 1.385 7.664 14.761 12.904 22.684 24.003 35.039 27.215 24.934 36.913 42.185 44.438 78.698.041.198.062.404.062.607v58.208c0 .323-.052.643-.154.949l-3.678 11.034a3.008 3.008 0 00-.153 1.036l2.473 85.047c.008.279.057.562.142.828 5.285 16.542 9.074 23.77 17.054 30.426a2.915 2.915 0 001.87.667h39.85c.708 0 1.398-.252 1.933-.715 26.003-22.508 32.558-56.328 43-118.319a3.03 3.03 0 00-.265-1.834l-78.528-159.495a3.006 3.006 0 011.794-4.19c36.783-11.629 58.541-19.438 94.643-38.384a3.009 3.009 0 001.547-3.28L380 218.5l-.846-3.809a2.998 2.998 0 01.018-1.378l.701-2.803c.084-.337.109-.687.074-1.033l-4.325-42.284a3 3 0 00-1.032-1.973l-10.433-8.942c-2.114-1.813-.832-5.278 1.953-5.278h.537c2.101 0 3.551-2.104 2.803-4.068l-18.006-47.265a2.999 2.999 0 00-1.585-1.674zm5.423 2.167l19.218 47.376a3.01 3.01 0 003.574 1.767c28.11-7.595 45.399-11.376 68.95-12.845 2.924-.183 4.256 3.505 1.933 5.291-16.101 12.377-25.729 20.693-35.155 32.585a3.041 3.041 0 01-3.313 1.017l-26.257-8.483c-2.024-.654-4.067.947-3.915 3.069l2.082 29.157a3.001 3.001 0 001.249 2.227l3.106 2.218a3 3 0 01.476 4.459l-1.738 1.912a2.997 2.997 0 00-.734 2.543l6.461 36.34c.469 2.642 3.906 3.384 5.433 1.178 8.878-12.825 15.041-21.052 24.59-29.388a2.974 2.974 0 012.85-.576c32.547 10.369 51.37 18.21 79.815 32.421 2.473 1.235 5.185-1.231 4.164-3.799l-11.189-28.167a3 3 0 00-1.275-1.483l-41.022-23.968c-1.429-.834-1.922-2.677-.968-4.029 4.272-6.062 10.324-10.572 18.084-16.355l.003-.002.006-.004a625.05 625.05 0 005.394-4.051 3.01 3.01 0 001.142-2.819c-4.508-31.14-6.076-46.484-6.234-65.035a3.026 3.026 0 00-2.146-2.863c-44.574-13.434-70.16-14.51-112.556-3.71a2.988 2.988 0 00-2.028 4.017zm36.63 185.34c-7.362 28.917-15.064 174.696 47.487 183.928.332.049.685.038 1.013-.034 34.662-7.616 51.149-66.635 68.877-130.093l.004-.017c1.343-4.805 2.692-9.636 4.057-14.471.327-1.158 1.903-.874 1.782.323-.403 3.977-.873 8.247-1.36 12.673v.001c-2.304 20.95-4.995 45.41-2.814 58.934.028.175.041.349.039.526-.239 20.802-.227 32.629 4.935 54.936.044.193.071.398.077.596 1.669 55.86-6.68 84.97-33.144 132.645a3.02 3.02 0 01-2.626 1.553h-62.073a3.023 3.023 0 01-2.554-1.429c-29.638-47.743-42.228-75.423-49.58-125.854a2.987 2.987 0 01-.032-.434v-13.422c0-.865.373-1.688 1.025-2.257l5.757-5.038a3.016 3.016 0 001.003-2.665c-10.587-81.27 25.462-179.207 18.127-150.401z" fill="#013845"/></svg>