<svg width="709" height="676" fill="none" xmlns="http://www.w3.org/2000/svg"><path fill-rule="evenodd" clip-rule="evenodd" d="M705.981 353.136c1.006-5.164 2.01-10.32 3.019-15.463C709 132.83 505.198-36.009 305.632 6.643c-205.055 0-279.393 132.897-303.526 331.03-21.345 175.24 121.596 348.945 336.942 328.247 295.066 56.177 331.854-132.692 366.933-312.784zM443.749 527.567c-27.226 12.953-57.689 20.201-89.845 20.201-31.918 0-62.168-7.142-89.239-19.914l27.643-5.882v.78h123.191v-1.195l28.25 6.01zm85.382-74.523c21.597-32.937 34.157-72.332 34.157-114.66 0-3.799-.101-7.574-.301-11.323l-16.255 24.538 1.47.336-17.599 76.994-1.155-.264-.317 24.379zm-1.841-232.08c-27.344-40.299-68.369-70.562-116.401-84.116l15.379 20.048 72.325 51.299-.563.794 29.26 11.975zM180.67 456.028l-.408-31.385-20.041-75.988-15.313-23.116a212.714 212.714 0 00-.388 12.845c0 43.614 13.335 84.114 36.15 117.644zm-.744-234.188l24.843-10.168.67-1.987 1.896-1.403 72.595-53.676 1.987-1.469h1.128l14.414-16.441c-48.613 13.577-90.089 44.257-117.533 85.144zm398.362 116.544c0 123.924-100.46 224.384-224.384 224.384-123.924 0-224.384-100.46-224.384-224.384C129.52 214.46 229.98 114 353.904 114c123.924 0 224.384 100.46 224.384 224.384zM444.329 457.732l-31.9 50.02H297.333l-32.268-50.598 44.338-44.682a9.923 9.923 0 003.112.496h82.841a9.99 9.99 0 004.897-1.28l44.076 46.044zm-143.414-58.001l-24.062-72.889-63.644-29.575-37.423 51.585 18.913 71.712 59.79 25.952 46.426-46.785zm46.369-133.955l-64.711 47.185-65.396-30.39 2.2-64.537 64.554-47.731 63.353 19.409v76.064zm15-76.325v77.542l64.776 46.716 64.831-29.267-2.186-64.161-68.726-48.747-58.695 17.917zm134.61 109.19l-65.615 29.62-22.759 67.038 2.029 5.453 44.078 46.045 62.729-27.229 16.116-70.507-36.578-50.42z" fill="#fff"/></svg>