<svg width="719" height="697" fill="none" xmlns="http://www.w3.org/2000/svg"><path fill-rule="evenodd" clip-rule="evenodd" d="M667.954 180.133c-1.711-4.975-3.419-9.942-5.117-14.9-102.421-177.4-363.338-221.717-514.841-84.996C-29.587 182.765-27.517 335.025 50.649 518.68c69.135 162.434 279.778 241.397 455.924 115.799 283.624-98.882 221.048-280.843 161.381-454.346zm-322.657 52.763c-74.569-47.954-120.157-60.277-208.802-53.344v278.574c81.504-2.781 127.259 7.914 208.802 49.64v-274.87zm21.198.833c74.569-47.809 120.157-60.094 208.802-53.182v277.73c-81.504-2.773-127.259 7.89-208.802 49.489V233.729z" fill="#fff"/></svg>