<svg width="709" height="676" fill="none" xmlns="http://www.w3.org/2000/svg"><path fill-rule="evenodd" clip-rule="evenodd" d="M705.981 353.135c1.006-5.163 2.01-10.319 3.019-15.462C709 132.83 505.198-36.009 305.632 6.643c-205.056 0-279.393 132.897-303.526 331.03-21.345 175.24 121.596 348.945 336.942 328.247 295.066 56.177 331.854-132.693 366.933-312.785zM340.233 182h28.946a1 1 0 00.963-1.271l-9.185-32.606a1 1 0 011.187-1.245l34.132 7.841a1 1 0 001.224-.975v-29.505a1 1 0 00-1.211-.977l-34.171 7.388a1 1 0 01-1.175-1.245l9.205-33.137a1 1 0 00-.964-1.268H340.23a1 1 0 00-.979 1.204l6.933 33.28a1 1 0 01-1.196 1.18l-33.271-7.394a1 1 0 00-1.217.977v29.489a1 1 0 001.23.974l33.236-7.848a1 1 0 011.208 1.18l-6.919 32.751a1 1 0 00.978 1.207zm63.095 70.992h-96.656a1 1 0 01-.926-.623l-15.899-39.026a1.01 1.01 0 01.483-1.273c49.593-25.132 78.202-25.613 129.333.002.466.233.685.792.489 1.275l-15.898 39.022a1 1 0 01-.926.623zm-16.294 76h-64.551c-.546 0-.991.45-1.001.995-1.182 61.761-10.951 92.482-31.439 144.625-.258.657.22 1.38.925 1.38h128.079c.701 0 1.179-.716.93-1.371-20.834-54.66-29.847-86.385-31.943-144.652a1.01 1.01 0 00-1-.977zM243 540c-11.598 0-21 9.402-21 21s9.402 21 21 21h224c11.598 0 21-9.402 21-21s-9.402-21-21-21H243zm46-266c0-6.075 4.925-11 11-11h110c6.075 0 11 4.925 11 11s-4.925 11-11 11H300c-6.075 0-11-4.925-11-11zm27 21c-6.075 0-11 4.925-11 11s4.925 11 11 11h78c6.075 0 11-4.925 11-11s-4.925-11-11-11h-78zm-75 214c0-11.598 9.402-21 21-21h185c11.598 0 21 9.402 21 21s-9.402 21-21 21H262c-11.598 0-21-9.402-21-21z" fill="#013845"/></svg>