<svg width="709" height="676" fill="none" xmlns="http://www.w3.org/2000/svg"><path fill-rule="evenodd" clip-rule="evenodd" d="M705.981 353.135c1.006-5.163 2.01-10.319 3.019-15.462C709 132.83 505.198-36.009 305.632 6.643c-205.056 0-279.393 132.897-303.526 331.03-21.345 175.24 121.596 348.945 336.942 328.247 295.066 56.177 331.855-132.693 366.933-312.785zM317.5 160.501c3.036-2.281 5-5.912 5-10.001 0-6.903-5.596-12.5-12.5-12.5s-12.5 5.597-12.5 12.5c0 4.089 1.964 7.72 5 10.001v17.366l-82.272 81.298-2.228 2.202V388h-70.5c-6.904 0-12.5 5.597-12.5 12.5v125c0 6.903 5.596 12.5 12.5 12.5H567a7.5 7.5 0 000-15h-6.901A7.502 7.502 0 00556 510.066V510h-44.229l-6.734-4.489-9.693-8.308-7.043-8.364-26.899-53.31-3.881-10.78a12.501 12.501 0 00-3.801-5.404l-9.69-8.005a12.523 12.523 0 00-4.213-2.288l-15.836-4.977a12.508 12.508 0 00-3.748-.575H398.5V261.46l-2.117-2.182L317.5 177.96v-17.459zM150 403h68v21h-68v-21zm0 36h68v22.5h-68V439zm0 37.5h68v24h-68v-24zm0 39h68v7.5h-68v-7.5zm98 7.5h-15V418.5h15V523zm7.5-119.5H233V272h150.5v131.5H349V345c0-12.142-5.443-21.25-13.729-26.929-7.975-5.465-18.094-7.462-27.634-7-9.565.464-19.396 3.435-27.041 8.922C272.836 325.562 267 334.044 267 345v58.5h-11.5zM373.276 257H243.76l66.127-65.345L373.276 257zM368.5 418.5h15V523h-15V418.5zm30 104.5V418.5h21.349l15.004 4.716 8.786 7.258 3.804 10.567.155.43.206.408 27.237 53.979a12.52 12.52 0 001.598 2.42l7.362 8.742a12.54 12.54 0 001.427 1.439l10.191 8.735.344.295.377.251 7.74 5.161.151.099H398.5zm-45-70v70H263v-70h90.5zm0-15H263v-19.5h90.5V438zM334 403.447v.053h-52V345c0-5.044 2.539-9.374 7.342-12.821 4.917-3.528 11.836-5.777 19.021-6.125 7.21-.35 13.841 1.246 18.429 4.39C331.068 333.376 334 337.892 334 345v58.447zM534.5 212c13.807 0 25-11.193 25-25s-11.193-25-25-25-25 11.193-25 25 11.193 25 25 25zm0 15c22.091 0 40-17.909 40-40s-17.909-40-40-40-40 17.909-40 40 17.909 40 40 40zM466 156a7.5 7.5 0 000 15h15a7.5 7.5 0 000-15h-15zm1.803 75.91a7.5 7.5 0 0010.607 10.607l10.607-10.607a7.5 7.5 0 00-10.607-10.606l-10.607 10.606zM555 263a7.5 7.5 0 01-7.5-7.5v-15a7.5 7.5 0 0115 0v15a7.5 7.5 0 01-7.5 7.5z" fill="#013845"/></svg>