<svg width="709" height="676" fill="none" xmlns="http://www.w3.org/2000/svg"><path fill-rule="evenodd" clip-rule="evenodd" d="M705.981 353.135c1.006-5.163 2.01-10.319 3.019-15.462C709 132.83 505.198-36.009 305.632 6.643c-205.056 0-279.393 132.897-303.526 331.03-21.345 175.24 121.596 348.945 336.942 328.247 295.066 56.177 331.855-132.693 366.933-312.785zm-118.66 95.263c32.139-76.082 33.401-145.735 13.601-204.04-20.059-59.067-61.487-105.758-112.752-135.359-102.449-59.155-245.3-50.52-337.706 64.529-93.572 114.775-61.141 260.29 26.283 346.346 43.824 43.138 101.895 71.898 165.718 74.646 63.463 2.733 131.652-20.299 196.14-78.746a42.709 42.709 0 0016.023 3.099c23.648 0 42.819-19.171 42.819-42.82a42.651 42.651 0 00-10.126-27.655zM166.012 186.107l-7.768-6.236 7.721 6.294c-85.653 105.062-56.945 238.978 24.813 319.456 40.767 40.128 94.297 66.41 152.547 68.918 56.617 2.438 118.617-17.543 178.682-70.746a42.655 42.655 0 01-10.199-27.74c0-23.649 19.171-42.82 42.82-42.82a42.716 42.716 0 0116.044 3.107c28.687-70.34 29.013-133.427 11.312-185.551-18.36-54.066-56.363-97.07-103.815-124.47-94.968-54.836-226.661-46.71-312.157 59.788zm200.121 53.199c18.211 0 32.973-14.763 32.973-32.973s-14.762-32.973-32.973-32.973c-18.21 0-32.972 14.763-32.972 32.973s14.762 32.973 32.972 32.973zm0 20c29.256 0 52.973-23.717 52.973-52.973s-23.717-52.973-52.973-52.973-52.972 23.717-52.972 52.973 23.716 52.973 52.972 52.973zm105.212 5.657v-.012.012zm-2.624 5.031l-45.488 23.369-2.151 1.106H288.638l-30.327 30.632 19.066-16.27a20.004 20.004 0 0112.983-4.786h16.922c12.528 0 21.972 11.387 19.655 23.7l-11.546 61.338a22.478 22.478 0 01-.443 1.88l-.076.277v.002l-.003.011-.025.09-.044.161c.029.235.091.639.227 1.235.249 1.084.667 2.477 1.282 4.11 1.232 3.272 3.096 7.09 5.433 10.738 2.354 3.675 4.996 6.879 7.677 9.169 2.718 2.322 4.946 3.263 6.573 3.46 10.595 1.283 23.058 5.474 33.35 10.284 5.203 2.431 10.131 5.151 14.2 7.954 3.528 2.429 7.477 5.63 9.883 9.499l41.078 54.634c1.329.025 2.259-.039 2.885-.126.096-.722.157-1.813.103-3.408l-37.142-71.782-21.583-14.715a20 20 0 01-8.349-20.428l14.324-71.986a20 20 0 0119.615-16.097h15.997l48.368-34.051zm-182.048 4.571a20.006 20.006 0 00-12.249 5.833l-39.567 39.966a19.533 19.533 0 00-3.921 5.672c-1.691 3.731-3.118 7.469-3.705 10.918-.545 3.203-.792 8.805 3.457 13.227 4.001 4.164 9.356 4.435 12.34 4.317 3.38-.133 7.172-.936 11.001-1.955a19.647 19.647 0 007.682-4.051l28.649-24.447h16.922l-11.544 61.326v.002l-.009.037a5.67 5.67 0 01-.045.175l-.022.082-.013.05-.065.234-.005.02-.001.002c-.038.142-.09.327-.141.52-.2.755-.58 2.24-.649 4.012-.166 4.223 1.214 9.17 2.804 13.392a71.485 71.485 0 001.552 3.781L285.173 436.3l-52.08 19.48a19.56 19.56 0 00-7.214 4.701c-3.391 3.507-6.3 7.003-8.247 10.516-1.952 3.524-3.512 8.126-2.364 13.21 1.158 5.127 4.564 8.514 7.677 10.679 3.068 2.135 6.806 3.759 10.555 5.131 3.454 1.264 7.078 1.451 10.433.802l62.557-12.108a19.995 19.995 0 0011.019-6.205l34.177-37.713a118.69 118.69 0 019.188 3.825c4.491 2.099 8.397 4.291 11.324 6.307 3.081 2.122 4.098 3.39 4.191 3.505l.007.009.326.579.399.532 41.521 55.221c3.242 4.312 8.441 7.576 14.632 7.789 6.067.21 13.584-.448 18.868-6.031 5.149-5.441 5.548-12.856 5.325-18.509-.118-2.985-.957-5.731-2.171-8.078l-37.185-71.862a19.999 19.999 0 00-6.496-7.333l-21.582-14.716 14.323-71.986h15.997a20 20 0 0011.513-3.646l50.122-35.286c3.148-2.216 5.822-5.451 7.215-9.508 1.054-3.072 1.949-6.369 2.114-9.576.17-3.292-.39-7.614-3.553-11.271-3.075-3.555-7.17-4.795-10.312-5.245-3.162-.453-6.627-.293-10.046.085a19.433 19.433 0 00-6.733 2.045l-44.428 22.826H286.673v.096zm16.474 170.508l8.618-17.657a51.696 51.696 0 004.663 4.546c3.65 3.118 8.102 5.924 13.247 7.337l-26.985 29.777-62.492 12.095c-1.854-.684-3.231-1.28-4.238-1.785.851-1.201 2.181-2.806 4.191-4.892l52.029-19.462a19.997 19.997 0 0010.967-9.959zm-69.156 33.106l.011.01-.01-.01h-.001zm.822 3.161a.158.158 0 01-.008.027.122.122 0 01.008-.027zm342.634-5.287c0 12.603-10.216 22.82-22.819 22.82s-22.82-10.217-22.82-22.82 10.217-22.82 22.82-22.82 22.819 10.217 22.819 22.82z" fill="#013845"/></svg>