<svg width="709" height="676" fill="none" xmlns="http://www.w3.org/2000/svg"><path fill-rule="evenodd" clip-rule="evenodd" d="M705.981 353.135c1.006-5.163 2.01-10.319 3.019-15.462C709 132.83 505.198-36.009 305.632 6.643c-205.056 0-279.393 132.897-303.526 331.03-21.345 175.24 121.596 348.945 336.942 328.247 295.066 56.177 331.855-132.693 366.933-312.785zM186.5 102c-10.77 0-19.5 8.731-19.5 19.5v433.257c0 10.77 8.731 19.5 19.5 19.5h329.685c10.769 0 19.5-8.731 19.5-19.5v-26.168h-4.322a2 2 0 001.989-2v-90.738l-29.656 54.154a2 2 0 00-.245.96v37.624h-2.766v10.668H202V137h298.685v97.339h2.332v86.672l30.335-55.47v-31.202h2.333V121.5c0-10.769-8.731-19.5-19.5-19.5H186.5zm257.581 363.863v36.504c0 1.587 1.76 2.542 3.09 1.677l32.477-21.13a2.01 2.01 0 00.641-.675l117.066-202.4a2 2 0 00-.729-2.732l-29.486-17.071a2 2 0 00-2.726.717L444.357 464.849a2.001 2.001 0 00-.276 1.014zm130.633-221.987l10.918-17.832a2 2 0 012.715-.683l29.888 17.467a2 2 0 01.681 2.796l-11.288 17.843a2 2 0 01-2.709.652l-29.518-17.478a2 2 0 01-.687-2.765zm-347.745 56.767h188.077v22.535H226.969v-22.535zm188.077-111.806H226.969v22.535h188.077v-22.535zM226.969 409.849h188.077v22.535H226.969v-22.535zm244.413-54.603H226.969v22.535h244.413v-22.535zM226.969 247.774h244.413v22.534H226.969v-22.534z" fill="#013845"/></svg>