<svg width="709" height="676" fill="none" xmlns="http://www.w3.org/2000/svg"><path fill-rule="evenodd" clip-rule="evenodd" d="M705.981 353.135c1.006-5.163 2.01-10.319 3.019-15.462C709 132.83 505.198-36.009 305.632 6.643c-205.056 0-279.393 132.897-303.526 331.03-21.345 175.24 121.596 348.945 336.942 328.247 295.066 56.177 331.855-132.693 366.933-312.785zM436.63 147.908c26.143 3.571 40.929 9.358 50.328 19.148 9.464 9.857 15.16 25.529 18.441 53.339l19.862-2.343c-3.393-28.765-9.679-50.06-23.875-64.847-14.261-14.855-34.812-21.392-62.05-25.113l-2.706 19.816zm-139.457 41.659l1.513 1.53c2.289-8.329 5.586-15.342 10.733-20.496 9.623-9.639 22.901-10.384 37.418-8.265l2.044.299 1.759 1.084 14.114 8.701 1.033.637.851.865 49.594 50.446c4.081-2.368 8.305-4.199 12.818-4.928 7.838-1.267 14.864.988 21.87 5.069l.899.524.772.697-6.704 7.42c6.704-7.42 6.705-7.419 6.706-7.418l.002.002.011.009.038.035.146.132.562.511a1480.676 1480.676 0 019.897 9.099 1570.103 1570.103 0 0124.958 23.668c18.883 18.321 41.129 40.965 52.175 56.304 11.925 16.559 22.152 48.241 23.473 82.328 1.33 34.33-6.291 73.171-32.549 103.011-51.918 58.999-150.021 66.478-217.197.529l-.121-.118-.117-.123-100.495-105.59-1.584-1.665-.699-2.19c-6.142-19.253-5.012-38.017 6.228-50.025 5.323-5.687 12.079-9.008 19.692-10.215l-14.052-14.822-1.689-1.781-.672-2.362c-5.089-17.88-4.161-35.062 6.929-46.182 5.436-5.45 12.397-8.52 20.284-9.647l-11.474-12.735-1.93-2.141-.493-2.841c-3.124-17.978-.141-35.085 11.34-45.849 11.768-11.032 29.17-12.402 48.048-5.935l2.219.761 1.65 1.667zM401.62 295.156l-86.04-86.98c2.149-13.862 4.892-20.34 7.992-23.444 2.436-2.44 6.794-4.311 18.377-2.876l11.277 6.952 48.897 49.737c-2.14 3.738-3.828 7.51-4.837 11.552-1.699 6.81-1.244 13.404.474 20.728l.59 2.515 1.735 1.915 30.487 33.648.244.269.263.25 1.457 1.391c-8.66 12.176-13.916 23.731-14.484 36.413-.674 15.033 5.347 29.669 15.27 46.489l17.226-10.161c-9.439-16.001-12.92-26.419-12.516-35.433.396-8.855 4.645-18.322 15.674-32.155l5.702-7.153-6.617-6.315-7.641-7.293-28.428-31.376c-.729-3.988-.602-6.599-.031-8.89.675-2.702 2.172-5.796 5.372-10.576 5.216-3.573 8.086-4.842 10.176-5.179 1.535-.248 3.618-.153 7.75 2.118.475.431 1.15 1.046 2.005 1.827a1560.82 1560.82 0 0132.286 30.412c19.085 18.519 40.029 39.969 49.873 53.638 8.964 12.449 18.497 39.944 19.717 71.415 1.21 31.229-5.847 64.329-27.579 89.024-44.031 50.038-128.767 57.667-188.051-.412l-98.738-103.745c-4.208-14.745-1.526-23.929 2.42-28.144 3.603-3.849 11.534-6.856 25.927-1.656l71.817 75.503.012.012 14.502-13.772-.011-.012L239.22 304.693c-3.406-13.627-.843-20.96 2.47-24.283 3.345-3.353 10.888-6.091 25.2-2.829l92.31 92.587 14.163-14.121-94.106-94.388-26.056-28.918c-1.677-12.904 1.424-21.036 5.734-25.076 4.111-3.854 12.061-6.475 25.728-2.305l13.211 13.355 89.527 90.506 14.219-14.065zm33.736-109.452c15.401.568 22.419 3.025 26.367 6.984 4.036 4.046 7.155 11.955 8.051 29.934l19.975-.996c-.928-18.619-4.168-33.339-13.865-43.061-9.784-9.81-23.872-12.26-39.791-12.847l-.737 19.986zm51.595 181.006c10.502 14.273 14.302 23.296 14.549 30.724.238 7.158-2.771 14.96-11.706 27.015l16.068 11.909c9.757-13.165 16.094-25.553 15.627-39.59-.458-13.766-7.416-26.943-18.429-41.911l-16.109 11.853zm-307.817 60.662c2.72 16.666 6.774 30.099 15.709 39.776 9.146 9.904 21.872 14.272 37.85 16.658l2.954-19.78c-14.399-2.151-21.596-5.559-26.11-10.447-4.724-5.115-8.063-13.49-10.664-29.427l-19.739 3.22zm-35.062-.415c3.365 27.962 9.011 49.774 23.141 65.363 14.299 15.773 35.608 23.4 65.611 27.475l2.692-19.818c-28.559-3.879-44.004-10.631-53.484-21.089-9.649-10.644-14.806-26.917-18.104-54.321l-19.856 2.39z" fill="#013845"/></svg>