<svg width="709" height="676" fill="none" xmlns="http://www.w3.org/2000/svg"><path fill-rule="evenodd" clip-rule="evenodd" d="M705.981 353.135c1.006-5.163 2.01-10.319 3.019-15.462C709 132.83 505.198-36.009 305.632 6.643c-205.056 0-279.393 132.897-303.526 331.03-21.345 175.24 121.596 348.945 336.942 328.247 295.066 56.177 331.855-132.693 366.933-312.785zM169.947 205.206c-19.579 27.498-27.993 52.146-26.844 77.039 1.136 24.614 11.583 48.003 26.569 72.981 7.896 13.161 23.616 32.423 42.137 53.422 18.695 21.196 40.791 44.766 61.902 66.735 21.123 21.979 41.314 42.413 56.222 57.348A4251.8 4251.8 0 00347.8 550.53a3028.068 3028.068 0 006.249 6.167l.335.329.085.084.022.021.006.006.178-.18 2.547 2.245h9.353l2.915-2.848-6.99-7.152c6.99 7.152 6.99 7.151 6.992 7.15l.005-.006.022-.021.086-.084.335-.328 1.302-1.276c1.141-1.12 2.815-2.767 4.956-4.878a4239.156 4239.156 0 0017.891-17.761c14.928-14.904 35.146-35.295 56.297-57.229 21.14-21.923 43.265-45.444 61.985-66.595 18.546-20.955 34.288-40.178 42.196-53.314 15.007-24.926 25.473-48.273 26.611-72.849 1.151-24.858-7.28-49.464-26.886-76.906-4.603-7.178-13.31-15.908-24.542-23.716-11.518-8.008-26.317-15.487-43.327-19.45-34.655-8.073-77.156-1.195-117.694 41.899l-.013.013-.019.02-.118.126c-.098.104-.231.248-.397.429-.33.362-.791.874-1.348 1.514a104.988 104.988 0 00-4.867 6.031 106.045 106.045 0 00-4.772-5.927 86.926 86.926 0 00-1.743-1.947l-.071-.076-.047-.05-.019-.02-.013-.014c-40.484-43.183-82.94-50.085-117.568-41.991-16.993 3.973-31.776 11.47-43.28 19.495-11.218 7.826-19.913 16.574-24.507 23.765zm192.205 330.315l-.543.536a4194.584 4194.584 0 01-17.521-17.455c-14.849-14.877-34.947-35.216-55.956-57.077-21.019-21.873-42.896-45.214-61.323-66.106-18.601-21.089-33.153-39.093-39.987-50.483-14.474-24.124-22.837-44.032-23.74-63.613-.888-19.234 5.38-39.613 23.304-64.723l.172-.24.157-.25c2.691-4.285 9.245-11.334 19.182-18.266 9.789-6.828 22.267-13.121 36.389-16.423 27.599-6.451 62.783-1.831 98.437 36.207l.021.023.013.013.003.003.002.003.002.002.048.052.252.274c.232.254.583.645 1.025 1.154a85.021 85.021 0 013.458 4.261c2.786 3.669 5.61 8.035 7.104 11.97l9.694 25.533 9.086-25.756.303-.859c1.563-3.662 4.157-7.612 6.72-10.976a85.77 85.77 0 013.463-4.251 60.49 60.49 0 011.278-1.425l.048-.052.002-.002h.001l.002-.003.003-.002.012-.014.022-.022c35.701-37.959 70.945-42.579 98.6-36.136 14.147 3.295 26.646 9.577 36.449 16.392 9.952 6.919 16.514 13.953 19.207 18.225l.158.25.172.241c17.947 25.056 24.216 45.382 23.328 64.56-.904 19.526-9.272 39.384-23.766 63.459-6.842 11.364-21.412 29.329-40.038 50.374-18.452 20.848-40.358 44.14-61.406 65.967-21.037 21.816-41.162 42.113-56.031 56.958a4205.951 4205.951 0 01-17.806 17.677z" fill="#013845"/></svg>