<svg width="709" height="676" fill="none" xmlns="http://www.w3.org/2000/svg"><path fill-rule="evenodd" clip-rule="evenodd" d="M705.981 353.135c1.006-5.163 2.01-10.319 3.019-15.462C709 132.83 505.198-36.009 305.632 6.643c-205.056 0-279.393 132.897-303.526 331.03-21.345 175.24 121.596 348.945 336.942 328.247 295.066 56.177 331.855-132.693 366.933-312.785zM363.373 111.486c-5.442-5.418-14.232-5.441-19.702-.052L299.5 154.946V148.5c0-7.732-6.268-14-14-14H200c-7.732 0-14 6.268-14 14v117.277l-63.764 66.536c-8.531 8.902-2.222 23.687 10.107 23.687H177v198.501c0 7.732 6.268 14 14 14h106.5c7.732 0 14-6.268 14-14v-9.2c10.744 7.004 22.447 14.075 35.11 21.239a14.006 14.006 0 0013.687.057c12.563-6.97 24.126-13.987 34.703-21.052v8.956c0 7.732 6.268 14 14 14h103c7.732 0 14-6.268 14-14V356h49.078c12.488 0 18.727-15.111 9.877-23.922L363.373 111.486zM228.805 464.017c10.465 21.753 29.69 42.468 56.695 63.037v15.447H203V344c0-7.732-6.268-14-14-14h-28.536l47.644-49.715a13.999 13.999 0 003.892-9.687V160.5h61.5v23.111c0 12.422 14.975 18.691 23.825 9.974l56.126-55.289L546.016 330H514c-7.732 0-14 6.268-14 14v198.501h-79v-16.018c24.828-20.136 42.341-41.008 52.175-62.762 10.628-23.511 11.976-47.407 4.757-71.021-17.714-57.941-85.523-71.52-123.505-34.146-19.868-16.464-43.627-23.508-66.317-19.944-26.727 4.197-49.795 22.782-61.711 53.141-9.563 24.361-9.033 48.49 2.406 72.266zm138.035-80.059c22.572-31.911 73.297-25.952 86.228 16.344 5.368 17.56 4.445 34.946-3.585 52.709-8.173 18.079-24.003 37.152-49.458 56.927-13.035 10.126-28.474 20.342-46.475 30.621-18.174-10.496-33.923-20.635-47.358-30.497-28.234-20.724-45.461-39.655-53.957-57.316-8.196-17.037-8.648-33.628-1.634-51.495 8.924-22.735 24.918-34.345 41.543-36.956 16.845-2.646 36.521 3.618 53.013 21.171 6.11 6.503 16.594 5.687 21.683-1.508z" fill="#013845"/></svg>