<svg width="43" height="40" fill="none" xmlns="http://www.w3.org/2000/svg"><path fill-rule="evenodd" clip-rule="evenodd" d="M17 .05c-9.389 0-17 7.61-17 17v5.185c0 9.389 7.611 17 17 17h8.912c9.389 0 17-7.611 17-17V17.05c0-9.389-7.611-17-17-17H17zm21.144 6.53c0 1.203-1.067 2.178-2.384 2.178-1.316 0-2.383-.975-2.383-2.177 0-1.203 1.067-2.177 2.383-2.177 1.317 0 2.384.974 2.384 2.177zm-5.96 13.47c0 5.186-4.603 9.389-10.281 9.389-5.678 0-10.28-4.203-10.28-9.388s4.602-9.389 10.28-9.389c5.678 0 10.28 4.204 10.28 9.389z" fill="#013845"/></svg>