<svg width="709" height="676" fill="none" xmlns="http://www.w3.org/2000/svg"><path fill-rule="evenodd" clip-rule="evenodd" d="M705.981 353.135c1.006-5.163 2.01-10.319 3.019-15.462C709 132.83 505.198-36.009 305.632 6.643c-205.056 0-279.393 132.897-303.526 331.03-21.345 175.24 121.596 348.945 336.942 328.247 295.066 56.177 331.855-132.693 366.933-312.785zM420.716 158.241c0 38.793-28.965 70.241-64.696 70.241-35.73 0-64.695-31.448-64.695-70.241S320.29 88 356.02 88c35.731 0 64.696 31.448 64.696 70.241zm57.303 133.829c-26.988-54.345-198.524-62.479-242.147-4.806-11.048 14.606-13.149 46.306-15.196 77.2v.002c-.865 13.062-1.721 25.981-3.24 37.403a4.871 4.871 0 01-.158.736c-6.751 22.75-18.966 27.203-38.17 34.204l-.004.001a519.968 519.968 0 00-8.979 3.339 4.84 4.84 0 00-.821.41c-20.401 12.906-13.65 38.842 7.197 41.823.386.055.781.056 1.169.01 38.049-4.578 83.73-32.588 87.776-56.865l.239-1.716c4.045-29.116 7.646-55.031 13.81-64.458 8.654 30.65 2.94 75.274-12.835 121.456-.711 2.081-2.73 3.433-4.928 3.352-47.861-1.763-64.851 2.804-85.011 15.674-23.661 14.788-28.097 50.648 0 70.241 29.575 25.509 133.828 19.964 175.603 0-12.987-5.4-26.063-12.947-38.763-20.277-23.812-13.744-46.298-26.722-64.381-23.346 11.976-9.919 34.108-3.489 94.272 24.03 72.643 37.612 169.562 60.88 206.743.465a5.02 5.02 0 00.462-.991c19.338-57.574-54.278-67.128-95.189-67.128-26.248-2.218-34.381-106.84-23.291-124.955 7.099 15.017 8.826 30.239 10.828 47.892v.003c.694 6.11 1.42 12.512 2.413 19.298.045.304.116.603.22.894 8.906 25.01 43.854 50.091 84.852 56.804.262.043.539.065.804.062 27.479-.334 27.247-34.277 12.13-41.975a4.358 4.358 0 00-.708-.279c-36.419-11.046-48.831-21.341-49.91-49.427-2.218-73.568-11.09-93.162-14.787-99.076z" fill="#013845"/></svg>