<svg width="709" height="676" fill="none" xmlns="http://www.w3.org/2000/svg"><path fill-rule="evenodd" clip-rule="evenodd" d="M705.981 353.135c1.006-5.163 2.01-10.319 3.019-15.462C709 132.83 505.198-36.009 305.632 6.643c-205.056 0-279.393 132.897-303.526 331.03-21.345 175.24 121.596 348.945 336.942 328.247 295.066 56.177 331.855-132.693 366.933-312.785zM282.5 124.5h-1.992l-1.729.988-44.328 25.33-35.168 5.781-3.549.584-1.767 3.133-26.344 46.724a8.498 8.498 0 00-1.053 5.027l6.945 68.961a8.503 8.503 0 001.176 3.533l38.473 63.895 3.331 30.41a8.503 8.503 0 003.575 6.038l6.43 4.501V411.5h-1.573a8.5 8.5 0 00-8.476 7.856l-9.348 123c-.375 4.934 3.528 9.144 8.476 9.144h280.803c5.069 0 9.011-4.408 8.447-9.446l-13.776-123a8.5 8.5 0 00-8.447-7.554H481.5v-23.111l7.347-8.12a8.495 8.495 0 002.14-4.722l3.13-26.953 41.051-63.819a8.496 8.496 0 001.333-4.049l4.465-68.953a8.505 8.505 0 00-1.011-4.603l-25.363-46.747-1.725-3.18-3.564-.629-32.659-5.763-42.828-25.308-1.766-1.043H282.5zm-73.771 45.748l24.414-4.013 84.598 143.786L278.187 378h-41.823l-5.279-3.695-3.19-29.122-19.166-174.935zm137.145 91.422l-19.48 33.479-79.078-134.406 32.311-18.463 24.891 44.859 41.356 74.531zM315.492 176l-20.253-36.5h121.72L395.721 176h-80.229zm148.253-15.348l-31.06-18.354-26.168 44.974-45.534 78.258-28.07 48.242L295.541 378h28.091a8.502 8.502 0 018.368-7h8.207l123.538-210.348zM282.5 393h41v18.5h-82V393h41zm3 33.5h34.733l-29.584 80.05c-2.413 6.529 3.615 13.032 10.308 11.12l36.063-10.304a8.5 8.5 0 005.86-5.917l11.108-40.341 9.581 40.064a8.5 8.5 0 005.986 6.211l37.082 10.327c6.626 1.845 12.586-4.535 10.295-11.02l-28.328-80.19h88.189l12.32 110H277.932l6.16-110h1.408zm91.767 67.46l-13.262-55.46h12.929l21.694 61.408-21.361-5.948zM385.5 393v18.5h81V393h-81zm90.827-21.251L470.672 378h-85.304a8.502 8.502 0 00-8.368-7h-19.397l120.225-204.709 21.907 3.866-20.318 174.978-3.09 26.614zm49.549-159.074l-13.161-24.257-14.67 126.341 23.596-36.682 4.235-65.402zM370.5 419v4.5h-32V386h32v33zm-61.337 80.725l22.627-61.228c.052.002.105.003.157.003h12.709l-15.268 55.446-20.225 5.779zM269.068 426.5l-6.16 110h-40.316l8.36-110h38.116zM323.815 191h63.178l-32.338 55.579L323.815 191zM209.269 312.909L195.583 187.99 181.7 212.613l6.594 65.46 20.975 34.836z" fill="#013845"/></svg>