<svg width="709" height="676" fill="none" xmlns="http://www.w3.org/2000/svg"><path fill-rule="evenodd" clip-rule="evenodd" d="M705.981 353.135c1.006-5.163 2.01-10.319 3.019-15.462C709 132.83 505.198-36.009 305.632 6.643c-205.056 0-279.393 132.897-303.526 331.03-21.345 175.24 121.596 348.945 336.942 328.247 295.066 56.177 331.855-132.693 366.933-312.785zM422.215 149.892l-10.574-10.574 41.247-41.247 10.574 10.574-7.731 7.73-25.696 25.696-7.82 7.821zm7.853 13.426l-.749.749c-3.905 3.905-10.237 3.905-14.142 0l-17.678-17.678c-3.905-3.905-3.905-10.237 0-14.142l48.318-48.318c3.905-3.905 10.237-3.905 14.142 0l17.678 17.678c3.905 3.905 3.905 10.236 0 14.142l-.659.659 97.995 97.996c12.954 12.953 12.954 33.956 0 46.909-12.954 12.954-33.956 12.954-46.91 0l-48.928-48.928a7.245 7.245 0 01-2.572-1.661 7.237 7.237 0 01-1.662-2.573l-44.833-44.833zm18.753-2.46l15.169 15.169 5.033-5.033a7.262 7.262 0 1110.27 10.27l-5.033 5.033 8.23 8.23 4.533-4.533a7.262 7.262 0 1110.27 10.27l-4.533 4.533 10.23 10.23 5.033-5.033a7.262 7.262 0 1110.27 10.27l-5.033 5.033 10.73 10.73 5.033-5.033a7.262 7.262 0 1110.27 10.27l-5.033 5.033 4.41 4.41c7.096 7.096 18.601 7.096 25.697 0 7.095-7.096 7.095-18.601 0-25.697l-65.359-65.358a7.461 7.461 0 01-4.08 1.206h-46.107zm36.393-15l-18.843-18.843-18.844 18.843h37.687zm-233.643-41.8c-4.885-4.86-12.781-4.85-17.654.021L105.663 232.295c-4.884 4.882-4.884 12.798 0 17.68l71.674 71.653c4.882 4.88 12.794 4.88 17.675 0l5.584-5.581.674-.502.14.14 1.37-1.357 96.46-95.55 31.617-10.073c8.937-2.847 11.671-14.157 5.022-20.772l-84.308-83.875zm37.54 103.64l-10.762 10.66H140.82l37.758-37.747c.05.053.101.106.153.157l11.314 11.314a7.5 7.5 0 0010.607-10.606l-11.314-11.314a5.556 5.556 0 00-.156-.151l10.16-10.157c.349.69.813 1.338 1.389 1.914l11.314 11.314a7.5 7.5 0 0010.607-10.606l-11.314-11.314a7.514 7.514 0 00-1.912-1.389l10.159-10.155.146.15 11.314 11.314a7.5 7.5 0 0010.607-10.606l-11.314-11.314a6.763 6.763 0 00-.149-.145l12.57-12.567 79.621 79.213-28.266 9.005a12.505 12.505 0 00-5.003 3.03zm-163.296 25.66h137.392L192.599 303.3l-1.108.824c-.485.362-.944.758-1.372 1.186l-3.944 3.943-68.139-68.118 7.779-7.777zm256.811-76.217c3.519-7.05 13.596-7 17.043.085l14.86 30.54c1.02 2.098 1.545 4.676 1.068 7.374-2.372 13.407-12.444 21.796-23.722 22.203-11.511.415-22.066-7.489-25.404-21.607-.695-2.939-.19-5.84.989-8.204l15.166-30.391zm8.438 16.684l-9.726 19.491c2.056 7.179 6.65 9.157 9.997 9.037 3.557-.129 7.838-2.648 9.295-8.868l-9.566-19.66zm-39.619 39.388c-3.45-7.077-13.516-7.127-17.037-.086l-17.443 34.886c-1.19 2.381-1.676 5.273-1.006 8.178 3.614 15.673 15.212 24.3 27.751 23.849 12.301-.441 23.365-9.62 25.898-24.449.454-2.663-.053-5.23-1.084-7.344l-17.079-35.034zm-20.617 40.616l12.015-24.03L354.641 254c-1.658 7.627-6.921 10.887-11.47 11.05-4.332.156-9.971-2.484-12.343-11.221zm-15.4 65.029v-18h90v18h-90zm-15-23c0-5.523 4.477-10 10-10h100c5.523 0 10 4.477 10 10v28c0 5.523-4.477 10-10 10h-2.5v48.78c0 .889.526 1.897 1.598 2.475 34.274 18.486 56.52 45.429 65.46 76.881 8.238 28.984 4.974 61.075-9.533 92.864h30.975a5 5 0 015 5v30a5 5 0 01-5 5h-270a5 5 0 01-5-5v-30a5 5 0 015-5h29.468c-14.506-31.789-17.77-63.88-9.532-92.864 8.939-31.452 31.185-58.395 65.46-76.881 1.071-.578 1.598-1.586 1.598-2.475v-48.78h-2.994c-5.523 0-10-4.477-10-10v-28zm27.994 38v48.78c0 6.728-3.845 12.639-9.478 15.677-31.197 16.827-50.463 40.727-58.152 67.78-7.618 26.803-4.105 57.53 11.751 88.763h19.335c-13.96-18.509-20.442-33.47-22.115-54.196-.597-7.397 5.353-13.304 12.37-13.304h89.478c4.559-6.927 12.404-11.5 21.317-11.5s16.758 4.573 21.316 11.5h26.478c7.018 0 12.968 5.907 12.371 13.304-1.673 20.726-8.155 35.687-22.115 54.196h17.828c15.856-31.233 19.369-61.96 11.751-88.763-7.689-27.053-26.954-50.953-58.152-67.78-5.632-3.038-9.477-8.949-9.477-15.677v-48.78h-64.506zm-43.433 168.5h82.458c.525 13.62 11.733 24.5 25.481 24.5 13.748 0 24.955-10.88 25.481-24.5h19.458c-2.009 18.426-8.763 31.646-26.036 52.5H311.025c-17.273-20.854-24.027-34.074-26.036-52.5zm-48.561 67.5v10h250v-10h-250zm90-109c6.075 0 11-4.925 11-11s-4.925-11-11-11-11 4.925-11 11 4.925 11 11 11zm0 15c14.359 0 26-11.64 26-26 0-14.359-11.641-26-26-26-14.36 0-26 11.641-26 26 0 14.36 11.64 26 26 26zm73-40a5 5 0 11-10 0 5 5 0 0110 0zm15 0c0 11.046-8.954 20-20 20s-20-8.954-20-20 8.954-20 20-20 20 8.954 20 20zm-21.5 76c5.799 0 10.5-4.701 10.5-10.5s-4.701-10.5-10.5-10.5-10.5 4.701-10.5 10.5 4.701 10.5 10.5 10.5z" fill="#013845"/></svg>