<svg width="1351" height="468" fill="none" xmlns="http://www.w3.org/2000/svg"><ellipse cx="199.5" cy="357.5" rx="135.5" ry="89.5" fill="#EA8B09"/><ellipse cx="198.5" cy="335.5" rx="115.5" ry="89.5" fill="#FDB817"/><path d="M348.919 246.5H48.127a1 1 0 01-.993-1.119l9.828-82.063a1 1 0 00-.116-.599l-21.79-39.792c-.413-.752.252-1.64 1.09-1.457l50.035 10.96c.207.045.424.024.618-.062l25.508-11.283c.127-.056.265-.085.404-.085H199l61.251-7.47a.995.995 0 01.483.061l39.475 15.296a.992.992 0 00.595.04l61.847-14.862c.866-.209 1.552.735 1.086 1.495l-30.773 50.184a1 1 0 00.231 1.307l10.963 8.678c.218.173.354.429.376.706l5.382 68.987a1 1 0 01-.997 1.078z" fill="#3AE7C9"/><path d="M315.861 313.036l29.748-62.904a1.014 1.014 0 00-.412-1.297c-119.74-70.102-185.813-70.767-300.323-.07a1.014 1.014 0 00-.334 1.394l39.898 63.021c.29.457.903.593 1.368.318 85.23-50.285 135.583-51.413 228.65-.023.506.279 1.158.083 1.405-.439z" fill="#FF4862"/><path fill-rule="evenodd" clip-rule="evenodd" d="M304.027 326.294l18.741 78.327c.216.9 1.432 1.05 1.86.23l29.15-55.911c.074-.142.113-.301.113-.462v-66.476c0-.871-1.036-1.326-1.677-.736l-47.891 44.06a1 1 0 00-.296.968zm-214.164 0l-18.74 78.327c-.216.9-1.432 1.05-1.86.23l-29.15-55.911a.997.997 0 01-.113-.462v-66.476c0-.871 1.036-1.326 1.677-.736l47.89 44.06a1 1 0 01.296.968z" fill="#FF4862"/><path d="M198 120V7l183 71-52 20.5-42-11V119l-89 1z" fill="#BCBAB8"/><path d="M200 123V10L17 81l52 20.5 42-11V122l89 1z" fill="#93928E"/><path fill-rule="evenodd" clip-rule="evenodd" d="M47.774 265.091l-7.411-2.267a147.787 147.787 0 00-5.361 19.275 145.462 145.462 0 00-1.003 53.432c4.079 24.364 14.3 47.48 29.826 67.453 15.526 19.972 35.915 36.233 59.494 47.448 23.578 11.214 49.676 17.064 76.151 17.068 26.476.005 52.575-5.836 76.158-17.043 23.583-11.207 43.978-27.461 59.512-47.428 15.533-19.968 25.764-43.081 29.851-67.443a145.464 145.464 0 00-.981-53.432 147.414 147.414 0 00-5.354-19.277l-10.245 3.13-5.218 22.507 1.592-.487a125.463 125.463 0 01.482 44.25c-3.525 21.01-12.365 41.055-25.913 58.471-13.555 17.424-31.452 31.733-52.31 41.645-20.861 9.913-44.023 15.111-67.571 15.107-23.547-.004-46.707-5.209-67.564-15.13-20.854-9.918-38.745-24.233-52.293-41.661-13.542-17.42-22.374-37.468-25.891-58.48a125.442 125.442 0 01.5-44.25l1.56.477-8.01-23.365z" fill="#013845"/><path fill-rule="evenodd" clip-rule="evenodd" d="M112.884 314.554l-2.54 17.422c-6.637-1.344-13.092-3.56-19.252-6.584-9.027-4.431-17.42-10.598-24.82-18.297-12.448-12.952-21.594-29.731-26.416-48.459-4.821-18.729-5.128-38.67-.885-57.592 2.636-11.757 6.963-22.833 12.75-32.767l.425-.722L65 185l.156.715c-2.853 6.133-5.109 12.742-6.67 19.704-3.552 15.843-3.291 32.575.739 48.23 4.03 15.658 11.586 29.306 21.467 39.587 3.977 4.138 8.253 7.654 12.733 10.537l.075.227 2 1.5 2 1.5 3 2 4.5 2.5 6.5 2.5 1.384.554zM287 314.498l2.54 17.423c6.637-1.344 13.092-3.56 19.251-6.584 9.028-4.432 17.421-10.598 24.82-18.297 12.449-12.952 21.595-29.731 26.416-48.46 4.822-18.728 5.128-38.669.886-57.592-2.636-11.756-6.963-22.832-12.751-32.766-.14-.241-.282-.482-.424-.722l-12.854 17.445-.156.715c2.853 6.133 5.108 12.741 6.669 19.704 3.552 15.843 3.292 32.575-.738 48.23-4.031 15.658-11.587 29.306-21.468 39.587-3.976 4.137-8.252 7.654-12.732 10.537l-.075.227-2 1.5-2 1.5-3 2-4.5 2.5-6.5 2.5-1.384.553z" fill="#013845"/><path d="M315 310c-34.342 28.226-73.897 7.936-108.5 56.484m-7 10.016c2.158-3.637 4.825-6.965 7-10.016m-7 10.016l7-10.016m-7 10.016L192 366M87 311.5c34.342 28.226 70.897 6.436 105.5 54.984m7 10.016c-2.158-3.637-4.825-6.965-7-10.016m7 10.016l-7-10.016m7 10.016L207 366m118.383 35c-19.141-31.326-22.903-50.446-19-86.5M74 401c19.141-31.326 22.903-50.446 19-86.5M346 189c2.5-.5-5.252-13.725-14-21 16.935-13.825 23.286-22.279 29.5-38.5m-162 90.5c28-78.5 98.623-80.224 161.5-101.5" stroke="#013845" stroke-width="20"/><path d="M361.813 120.375c-.102-.025-.438-.644-.487-.764-.08-.198-.123-.417-.215-.611a3.353 3.353 0 01-.298-1.264c-.027-.769-.09-1.413-.487-2.048-.156-.251-.181-.486-.277-.764-.147-.423-.174-.612-.5-.938-.517-.516-.986-1.242-.986-1.986 0-.265-.131-.741-.299-.951-.216-.271-.074-.487.174-.598.231-.102.57-.187.812-.201.14-.008.593-.149.701-.236.089-.071.275-.044.375-.125.051-.04.237-.132.299-.139.232-.027.6-.157.813-.264.239-.119.499-.138.75-.25.132-.059.578-.184.621-.333.031-.109.292-.427.413-.462.142-.04.637-.187.716-.285.081-.102.518-.246.652-.284.206-.059.432-.261.625-.372.409-.233 1.044-.464 1.348-.844.129-.162.238-.397.406-.531.192-.154.188-.475.375-.625.183-.147.449-.288.594-.469.141-.177.62-.213.75-.375.08-.1.7-.093.843-.093.265 0 .525.062.813.062.258 0 .551-.034.75.125.193.155.265.397.375.594.135.244.169.497.281.75.037.083.181.232.181.312 0 .045-.335.153-.382.17-.908.337-1.804.373-2.611.973-.478.354-.987.671-1.487.986-.943.594-1.796 1.329-2.666 2.028-.849.681-1.995.816-2.785 1.562-.636.6-.687 1.43-.687 2.264 0 1.314-.101 2.692.048 4a15.767 15.767 0 01-.035 4.049c-.083.589-.243 1.173-.263 1.763-.023.656-.204 1.422-.014 2.063.113.383-.011.867.152 1.236.124.279.102.443.348.639.305.245.717.327 1.076.455.907.324 1.844.646 2.719 1.097.691.357 1.414.418 2.062.778.455.252 1.013.334 1.497.472.204.058-.061 1.548.535 1.233.174-.093.177-.623.187-.799.012-.211.054-.621.139-.812.103-.232.16-.623.174-.875.015-.283.109-.553.125-.813.015-.264.278-.525.312-.812.03-.253.188-.54.188-.813 0-.521.312-1.05.312-1.594 0-.213.127-.585.191-.809.04-.14.163-.63.278-.722.122-.098.241-.616.278-.781.058-.262.253-.538.253-.813 0-.307.188-.619.188-.937 0-.299.187-.608.187-.875 0-.185.137-.494.191-.684.069-.241.184-.493.184-.754 0-.583.313-1.178.313-1.75 0-.248.185-.527.25-.784.113-.455.169-.87.34-1.309.081-.209.116-.435.156-.653.026-.141.129-.314.129-.441 0-.326.187-.64.187-.969 0-.293.031-.686.066-1 .046-.415-.045-1.056.108-1.437.109-.273.014-.768.014-1.063 0-.316.012-.635 0-.951a2.628 2.628 0 00-.264-.986c-.166-.313-.478-.515-.66-.813-.299-.489-1.068-.96-1.139-1.562-.059-.506-.974-.523-1.312-.674-.571-.254-1.282.089-1.862.111-.289.011-.802.149-1.076.264-.335.141-.613.34-.799.674-.261.47-.544 1.048-.687 1.562-.392 1.412-.993 2.793-1.542 4.153-.941 2.334-1.877 4.673-2.854 6.993-.661 1.569-1.285 3.133-1.632 4.805-.12.579-.245 1.154-.361 1.733-.079.397-.245.901-.174 1.309.027.155.967-.348 1.087-.406.203-.098.371-.267.531-.42a21.717 21.717 0 001.667-1.792c.59-.707 1.276-1.435 1.722-2.246.34-.618.566-1.303.882-1.934.511-1.022 1.084-2.011 1.518-3.07.234-.573.337-1.189.468-1.792.095-.434.237-.877.237-1.326 0-.222-.257.366-.348.569-.457 1.027-.946 2.092-1.205 3.191-.366 1.556-.403 3.164-.444 4.754-.022.876.032 1.785.153 2.653.129.929-.048 1.927.125 2.857.049.268-.13.951.278.66 1.18-.843 2.118-2.158 2.725-3.458.604-1.291 1.216-2.884 1.216-4.33 0-.88.042-1.771-.004-2.649a22.918 22.918 0 01.347-5.247c.113-.628.157-1.272.157-1.91 0-.373.138-.726.184-1.093.017-.144.091-.238.003-.348-.146-.182-.738.092-.875.16-.614.307-1.313.758-1.656 1.368-.128.228-.337.431-.5.632-.287.353-.501.761-.781 1.122-.549.705-1.062 1.532-1.5 2.312-.268.475-.583.92-.851 1.396-.366.65-.569 1.358-.837 2.049a16.217 16.217 0 00-.497 1.548c-.104.382-.307.72-.406 1.101-.355 1.369-.748 3.13-.111 4.469.153.321.207.75.639.75.509 0 .854-.038 1.361-.188 1.195-.352 1.698-1.727 2.104-2.805.498-1.321.908-2.65 1.236-4.021.172-.717.337-1.471.688-2.125.511-.953.936-2.014 1.25-3.049.113-.373.136-.749.222-1.125.08-.349.135-1.071-.236-1.236-.289-.128-.806.224-1.014.375-.382.279-1.093.97-1.111 1.472-.009.247-.031.535.014.778.05.269.135.252.368.097.473-.315.823-.822 1.174-1.26.57-.713.966-1.405 1.652-2 .1-.087.362-.392.507-.372.068.01.04.548.032.625a27.431 27.431 0 01-1.091 5.306c-.211.68-.398 1.367-.666 2.028-.423 1.039-.691 2.094-1.025 3.156-.393 1.252-.659 2.545-.875 3.837-.187 1.123-.594 2.201-1.09 3.194" stroke="#013845" stroke-width="3" stroke-linecap="round"/><path d="M360.875 111.875c-.505 0-.954.011-1.438.118-.323.072.424.132.563.132m5.25 15.375c-.28.249-.493.5-.875.5" stroke="#013845" stroke-width="3" stroke-linecap="round"/><path d="M53.226 189.438c-2.5-.5 5.252-13.726 14-21-16.935-13.826-23.286-22.28-29.5-38.5m162 90.5c-28-78.5-98.623-80.225-161.5-101.5" stroke="#013845" stroke-width="20"/><path d="M37.414 120.813c.101-.026.437-.644.486-.764.08-.198.123-.418.215-.611.178-.377.284-.846.299-1.264.026-.769.089-1.414.486-2.049.156-.251.181-.486.277-.764.147-.423.174-.611.5-.937.517-.517.987-1.243.987-1.986 0-.265.13-.741.298-.952.216-.27.074-.487-.173-.597a2.643 2.643 0 00-.813-.201c-.14-.009-.593-.15-.701-.237-.088-.07-.275-.044-.375-.125a1.04 1.04 0 00-.299-.138c-.231-.028-.6-.158-.812-.264-.24-.12-.5-.139-.75-.25-.133-.059-.58-.184-.622-.334-.031-.109-.292-.427-.413-.461-.142-.041-.637-.187-.715-.285-.082-.102-.519-.246-.653-.285-.206-.059-.432-.261-.625-.371-.409-.234-1.044-.465-1.347-.844-.13-.163-.239-.397-.407-.531-.192-.154-.188-.476-.375-.625-.183-.147-.449-.288-.593-.469-.142-.177-.621-.214-.75-.375-.081-.101-.7-.094-.844-.094-.265 0-.525.063-.813.063-.258 0-.551-.034-.75.125-.193.154-.265.396-.375.593-.135.244-.169.498-.28.75-.038.083-.181.232-.181.313 0 .045.334.153.381.17.908.336 1.804.372 2.612.972.477.355.986.672 1.486.986.943.594 1.796 1.33 2.666 2.028.85.681 1.995.816 2.785 1.563.636.6.688 1.43.688 2.263 0 1.314.1 2.693-.05 4a15.798 15.798 0 00.036 4.049c.083.59.243 1.173.264 1.764.022.656.203 1.421.013 2.062-.113.383.011.868-.152 1.237-.124.279-.102.442-.348.638-.305.245-.717.327-1.076.455-.907.324-1.844.646-2.719 1.098-.69.356-1.414.417-2.062.777-.454.253-1.013.334-1.497.473-.204.058.06 1.547-.534 1.232-.175-.092-.178-.622-.188-.798-.012-.212-.054-.622-.139-.813-.103-.231-.16-.623-.173-.875-.016-.282-.11-.553-.125-.812-.016-.265-.28-.526-.313-.813-.03-.252-.187-.539-.187-.812 0-.522-.313-1.051-.313-1.594 0-.214-.127-.585-.19-.809-.04-.14-.164-.631-.279-.722-.122-.099-.24-.617-.277-.782-.059-.262-.254-.538-.254-.812 0-.307-.187-.619-.187-.938 0-.299-.188-.607-.188-.875 0-.185-.137-.494-.19-.684-.07-.24-.185-.493-.185-.753 0-.583-.312-1.178-.312-1.75 0-.248-.186-.527-.25-.785-.114-.455-.17-.87-.34-1.309-.082-.209-.117-.435-.157-.653-.026-.141-.128-.314-.128-.441 0-.326-.188-.639-.188-.968 0-.293-.031-.687-.066-1-.046-.416.045-1.057-.108-1.438-.109-.273-.013-.768-.013-1.062 0-.317-.013-.636 0-.952.011-.308.126-.727.263-.986.166-.313.478-.515.66-.812.299-.489 1.068-.961 1.14-1.563.059-.506.973-.523 1.312-.674.57-.253 1.28.089 1.86.112.29.011.803.148 1.077.263.335.142.613.34.799.674.26.47.544 1.048.687 1.563.392 1.411.993 2.793 1.542 4.152.941 2.335 1.877 4.674 2.854 6.993.661 1.57 1.285 3.133 1.632 4.806.12.578.245 1.154.361 1.733.08.396.245.9.174 1.309-.027.155-.967-.349-1.087-.407-.203-.097-.371-.266-.531-.42a21.944 21.944 0 01-1.667-1.791c-.59-.707-1.276-1.435-1.722-2.247-.34-.618-.566-1.302-.882-1.934-.51-1.021-1.084-2.011-1.518-3.069-.234-.574-.337-1.189-.468-1.792-.095-.435-.236-.878-.236-1.326 0-.223.256.366.347.569.458 1.027.946 2.092 1.205 3.191.366 1.556.403 3.164.444 4.753.023.876-.032 1.785-.153 2.653-.129.929.048 1.927-.125 2.858-.05.268.13.951-.277.66-1.181-.844-2.119-2.159-2.726-3.459-.604-1.291-1.215-2.883-1.215-4.33 0-.88-.043-1.77.003-2.649a22.867 22.867 0 00-.347-5.246 10.813 10.813 0 01-.156-1.91c0-.374-.139-.727-.184-1.094-.018-.143-.092-.238-.004-.347.146-.182.738.091.875.16.614.306 1.313.757 1.656 1.368.128.227.337.43.5.632.287.353.5.76.782 1.121.548.705 1.06 1.532 1.5 2.313.267.475.583.92.85 1.395.366.651.569 1.359.837 2.049.189.485.36 1.045.497 1.549.104.382.307.719.406 1.1.355 1.37.748 3.131.11 4.469-.152.321-.206.75-.638.75-.509 0-.854-.038-1.361-.187-1.195-.353-1.698-1.728-2.104-2.806a33.413 33.413 0 01-1.236-4.021c-.172-.716-.337-1.47-.688-2.125a16.972 16.972 0 01-1.25-3.048c-.113-.373-.136-.749-.222-1.125-.08-.35-.135-1.071.236-1.237.289-.128.807.224 1.014.375.382.28 1.093.971 1.111 1.473.009.247.031.535-.014.777-.05.27-.135.253-.368.098-.472-.315-.823-.823-1.174-1.261-.57-.713-.966-1.405-1.652-2-.1-.086-.362-.392-.507-.371-.068.009-.04.548-.031.625a27.338 27.338 0 001.09 5.305c.21.681.398 1.368.666 2.028.423 1.039.691 2.095 1.025 3.156.393 1.252.66 2.545.875 3.837.187 1.124.594 2.202 1.09 3.195" stroke="#013845" stroke-width="3" stroke-linecap="round"/><path d="M38.351 112.312c.505 0 .955.011 1.438.119.323.072-.424.131-.563.131m-5.25 15.376c.28.249.493.5.875.5" stroke="#013845" stroke-width="3" stroke-linecap="round"/><path d="M181.883 272.5l15.832-43.099 19.224 40.785-18.659 28.636-16.397-26.322z" fill="#F66500"/><path d="M191.5 229.5c0 30.327-24.413 54.88-53.719 54.88-29.265 0-53.281-24.322-53.281-54.69 0-30.367 24.016-54.69 53.281-54.69 29.365 0 53.719 24.233 53.719 54.5zm121.126.19c0 30.368-24.016 54.69-53.282 54.69C230.018 284.38 205 259.306 205 229c0-30.089 24.801-54 54.344-54 29.266 0 53.282 24.323 53.282 54.69z" fill="#fff" stroke="#013845" stroke-width="15"/><ellipse cx="144.566" cy="229.69" rx="20.637" ry="21.116" fill="#013845"/><ellipse cx="253.69" cy="229.69" rx="20.637" ry="21.116" fill="#013845"/><ellipse cx="152.482" cy="219.855" rx="7.068" ry="7.231" fill="#D9D9D9"/><ellipse cx="262.171" cy="219.855" rx="7.068" ry="7.231" fill="#D9D9D9"/><path d="M177.077 268.74l13.191 23.256c3.852 6.791 13.654 6.745 17.442-.082l12.338-22.237" stroke="#013843" stroke-width="15"/><path d="M93 131.5c36.146-19.316 59.598-20.211 106.5-6 44.966-11.616 69.365-15.404 104.5 6" stroke="#013845" stroke-width="20"/><path d="M104 137V88l95.5-31L294 88v49" stroke="#013845" stroke-width="20"/><path d="M100 101L11.185 78.314c-.957-.245-1.018-1.582-.087-1.912L198.17 10.117c.214-.076.448-.076.663-.002l190.632 66.329c.927.322.883 1.648-.063 1.908L292.5 105" stroke="#013845" stroke-width="20"/><path d="M197.5 219v7.5" stroke="#013845" stroke-width="3" stroke-linecap="round"/><path d="M189.239 157.114c-.52 0-1.042-.046-1.319-.392-.151-.188-.232-.237-.232-.462a.45.45 0 00-.107-.206c-.1-.091-.04-.314-.076-.435a1.328 1.328 0 01.28-1.273c.193-.225.347-.435.571-.648.271-.258.584-.49.835-.756.972-1.03 2.244-1.953 3.839-2.447.605-.188 1.144-.499 1.783-.633.248-.052.494-.102.727-.178.247-.081.561-.115.834-.115.283 0 .583-.119.859-.144.67-.061 1.343-.205 2.014-.281a20.373 20.373 0 012.327-.144h.824c.263 0 .536.077.799.105.117.012.169.05.269.071.16.033.384.07.531.128.209.083.458.142.693.197l.02.005c.321.076.644.095.97.178.301.077.58.17.861.285.396.161.77.485 1.212.526.172.015.41.163.533.249.184.127.412.215.592.348.276.202.549.366.792.595.219.207.405.433.625.64.203.192.261.438.436.639.23.266.341.608.218.925-.049.126-.204.23-.242.358-.047.155-.138.316-.194.461a1.424 1.424 0 01-.313.34c-.164.097-.239.278-.484.318a8.287 8.287 0 01-1.309.109c-.259 0-.523-.146-.751-.229-.379-.14-.706-.342-1.042-.534a2.468 2.468 0 00-.824-.271c-.135-.022-.256-.069-.396-.069-.157 0-.306-.034-.463-.036-.092-.001-.275.037-.358.014-.857-.242-1.794-.404-2.709-.301-.302.035-.844.14-1.079.295-.223.147-.697.181-.98.233-.328.061-.711.169-1.029.257-.465.129-.88.335-1.357.455-.423.106-.83.154-1.152.384-.159.113-.327.22-.485.336-.255.187-.515.374-.689.605-.093.122-.397.324-.571.399-.192.083-.382.349-.495.49-.127.159-.369.268-.523.41-.19.174-.42.34-.678.462a4.888 4.888 0 00-.415.214c-.194.116-.396.102-.649.14-.628.095-1.192.269-1.844.269-.298 0-.574-.064-.848-.109-.192-.031-.461-.018-.63-.087-.247-.1-.564-.116-.727-.302-.176-.201-.449-.436-.17-.641m.485.214c-.279-.021-.508-.16-.754-.212-.268-.056-.114-.199-.191-.358-.123-.251-.073-.563-.073-.836a.96.96 0 01.086-.374c.056-.092.149-.325.156-.427.022-.288.218-.568.388-.818m6.446-.32c-.149.058-.284.142-.461.142-.236 0-.484.018-.708.073-.276.068-.554.168-.818.255-.105.035-.211.022-.313.055-.088.029-.245.008-.342.008-.396 0 .153-1.04.227-1.154.407-.629.905-1.136 1.761-1.457.413-.156.883-.211 1.311-.342.479-.148.975-.336 1.475-.435.473-.094.958-.126 1.433-.242.618-.15 1.164-.293 1.814-.338.776-.052 1.572-.017 2.351-.017 1.277 0 2.404.283 3.503.731.152.062.511.079.603.194a.455.455 0 00.28.178" stroke="#013845" stroke-width="9" stroke-linecap="round"/><circle cx="136.5" cy="373.5" r="8.5" fill="#fff"/><circle cx="143.5" cy="401.5" r="8.5" fill="#fff"/><circle cx="266.5" cy="376.5" r="8.5" fill="#fff"/><circle cx="260.5" cy="401.5" r="8.5" fill="#fff"/><circle cx="234.5" cy="387.5" r="8.5" fill="#fff"/><circle cx="176.5" cy="413.5" r="8.5" fill="#fff"/><circle cx="168.5" cy="387.5" r="8.5" fill="#fff"/><circle cx="225.5" cy="413.5" r="8.5" fill="#fff"/><rect width="30.064" height="131.963" rx="15" transform="matrix(.85081 .52547 -.51953 .85445 1192.56 197)" fill="#013845"/><rect x="1129.59" y="321.43" width="30.235" height="82" rx="15" transform="rotate(-90 1129.59 321.43)" fill="#013845"/><rect x="1129.59" y="229.716" width="30.235" height="82" rx="15" transform="rotate(-90 1129.59 229.716)" fill="#013845"/><circle cx="452.5" cy="260.5" r="45.5" stroke="#013845" stroke-width="30"/><path d="M948.605 282.78v37.44c-1.43.39-3.705.78-6.825 1.17-2.99.39-5.98.585-8.97.585s-5.655-.26-7.995-.78c-2.21-.39-4.095-1.17-5.655-2.34-1.43-1.17-2.535-2.795-3.315-4.875-.78-2.08-1.17-4.81-1.17-8.19v-91.845c0-2.73.715-4.81 2.145-6.24 1.56-1.56 3.64-2.795 6.24-3.705 4.42-1.56 9.555-2.665 15.405-3.315 5.85-.78 12.09-1.17 18.72-1.17 17.94 0 31.46 3.77 40.56 11.31 9.105 7.54 13.655 17.745 13.655 30.615 0 8.06-2.08 14.95-6.24 20.67-4.16 5.72-9.105 10.14-14.825 13.26 4.68 6.37 9.295 12.35 13.845 17.94 4.55 5.59 8.13 10.66 10.73 15.21-1.3 4.55-3.71 8.06-7.22 10.53-3.38 2.34-7.21 3.51-11.505 3.51-2.86 0-5.33-.325-7.41-.975-2.08-.65-3.9-1.56-5.46-2.73s-2.99-2.6-4.29-4.29a57.269 57.269 0 01-3.705-5.46l-16.38-26.325h-10.335zm12.285-25.935c4.94 0 8.84-1.235 11.7-3.705 2.86-2.6 4.29-6.37 4.29-11.31s-1.625-8.645-4.875-11.115c-3.12-2.6-8.125-3.9-15.015-3.9-1.95 0-3.51.065-4.68.195s-2.47.325-3.9.585v29.25h12.48z" fill="#013845"/><circle cx="849.5" cy="260.5" r="45.5" stroke="#013845" stroke-width="30"/><rect x="699" y="200" width="30" height="121" rx="15" fill="#013845"/><rect x="700" y="230" width="30" height="94" rx="15" transform="rotate(-90 700 230)" fill="#013845"/><rect x="700" y="276" width="30" height="70" rx="15" transform="rotate(-90 700 276)" fill="#013845"/><rect x="519" y="200" width="30" height="121" rx="15" fill="#013845"/><rect x="513" y="245.213" width="30" height="116.361" rx="15" transform="rotate(-45 513 245.213)" fill="#013845"/><rect x="593.958" y="193" width="30" height="113.638" rx="15" transform="rotate(45 593.958 193)" fill="#013845"/><rect x="1253" y="200" width="30" height="121" rx="15" fill="#013845"/><rect x="1247" y="245.213" width="30" height="116.361" rx="15" transform="rotate(-45 1247 245.213)" fill="#013845"/><rect x="1327.96" y="193" width="30" height="113.638" rx="15" transform="rotate(45 1327.96 193)" fill="#013845"/><path d="M642.409 235.976l-.244.724a3.178 3.178 0 00.375 2.784l.46.684c.662.985 1.486 1.85 2.438 2.558l.562.417.943.561a19.932 19.932 0 003.255 1.559l2.302.856 3.188.992 3.312.991 3 .992 3 .992 3 .992 2.5.992 3 1.487 1.018.404c.986.392 1.94.861 2.852 1.404l1.13.672.861.64a20.082 20.082 0 012.147 1.847l1.492 1.48.99.982a19.974 19.974 0 011.868 2.137l.642.848 1.5 1.984.408.54c.727.96 1.365 1.984 1.907 3.06l.185.367 1 1.984 1 2.479.5 1.984.5 2.479.015.061c.322 1.277.485 2.589.485 3.907v2.466c0 1.328-.132 2.652-.395 3.954l-.105.522-.5 1.984-.135.667a19.908 19.908 0 01-1.057 3.527l-.308.765-1 2.479-.5.992-1 1.488-.66 1.145a19.963 19.963 0 01-3.246 4.216l-.094.094-2.5 2.479-1.5 1.488-2.5 1.984-1.5.991-2.5 1.488-1.13.672a20.063 20.063 0 01-2.852 1.404l-1.018.404-3 .991-1.521.503a19.91 19.91 0 01-3.016.743l-1.463.242-3.5.496h-5.439a16.89 16.89 0 01-4.061-.496l-2.5-.496-4.5-.992-3-.991-3-.992-3-1.488-4-2.479-3-2.48-2.5-2.479-2-1.984a18.866 18.866 0 01-2.564-3.653l-.436-.81-2-3.471-1.18-2.732a9.944 9.944 0 01-.517-1.521l-.114-.452a6.233 6.233 0 01.264-3.856l.254-.63c.195-.484.429-.952.699-1.398l.186-.309a14.23 14.23 0 012.153-2.735l.255-.253.88-.873a12.287 12.287 0 014.125-2.699l.995-.395a9.826 9.826 0 013.08-.496h5.141a6.36 6.36 0 013.807 1.261l.45.334c.348.259.676.542.984.847l2.038 2.021 1.548 1.536c.301.298.58.618.836.956a8.957 8.957 0 002.726 2.388l1.89 1.071a14.284 14.284 0 006.349 1.488h2.919c1.468 0 2.916-.34 4.232-.992l2.5-1.488 1.292-1.025a5.832 5.832 0 002.208-4.57v-.128a6.496 6.496 0 00-1.922-4.613l-.078-.078-.381-.302a19.98 19.98 0 00-4.608-2.739l-1.011-.43-3-.992-3-.992-3-.991-4.5-1.488-4-.992-3.5-.992-1.338-.331a19.979 19.979 0 01-5.048-2.013l-1.114-.631-.388-.231a20.024 20.024 0 01-3.857-2.987l-3.755-3.725-1.286-1.53a19.963 19.963 0 01-2.136-3.092l-1.578-2.816-2-4.463-.552-1.643a18.186 18.186 0 01-.948-5.796v-3.967l.5-3.967.203-1.614a20.006 20.006 0 011.136-4.572l.661-1.749 2-3.967 1.283-2.037a20.092 20.092 0 012.837-3.537l1.88-1.864 1.826-1.812a19.95 19.95 0 012.523-2.119l2.151-1.524 2.304-1.429a19.965 19.965 0 013.566-1.746l2.13-.793 2.623-1.04a20.01 20.01 0 014.915-1.258l1.462-.181 4.5-.496h5l4 .496 3 .496 3.5.992 3 .991 2.5.992 3 1.488 2.5 1.488 2.151 1.524a19.95 19.95 0 012.523 2.119l1.826 1.812.748.742a19.976 19.976 0 013.029 3.848l.223.369 1.5 2.479.986 2.282a12.33 12.33 0 011.014 4.903v3.276a7.415 7.415 0 01-1.806 4.853l-1.11 1.285a17.738 17.738 0 01-2.382 2.284l-1.202.953-2.5 1.488a9.533 9.533 0 01-4.232.992h-3.143c-1.732 0-3.447-.35-5.041-1.027l-.128-.055a11.381 11.381 0 01-5.28-4.578l-.176-.291-1.027-1.698a7.395 7.395 0 00-3.047-2.802l-1.926-.955-.864-.286a13.997 13.997 0 00-4.386-.706h-.367a11.71 11.71 0 00-5.98 1.645l-.576.343a7.811 7.811 0 00-3.418 4.234zM1074.4 291v18.777c0 4.143-1.25 7.963-3.38 11.13 1.12.062 2.25.093 3.38.093 33.41 0 60.5-27.087 60.5-60.5s-27.09-60.5-60.5-60.5c-2.16 0-4.3.113-6.4.335a19.933 19.933 0 016.4 14.665v15c16.85 0 30.5 13.655 30.5 30.5s-13.65 30.5-30.5 30.5zm-49.4-76c0-8.284 6.72-15 15-15 8.28 0 15 6.716 15 15v91c0 8.284-6.72 15-15 15-8.28 0-15-6.716-15-15v-91z" fill="#013845"/><path d="M1040 321c-8.28 0-15-6.716-15-15 0-8.284 6.72-15 15-15h32c8.28 0 15 6.716 15 15 0 8.284-6.72 15-15 15h-32zm0-91c-8.28 0-15-6.716-15-15 0-8.284 6.72-15 15-15h32c8.28 0 15 6.716 15 15 0 8.284-6.72 15-15 15h-32z" fill="#013845"/><rect x="1217" y="200" width="30" height="121" rx="15" fill="#013845"/></svg>