<svg width="709" height="676" fill="none" xmlns="http://www.w3.org/2000/svg"><path fill-rule="evenodd" clip-rule="evenodd" d="M705.981 353.135c1.006-5.163 2.01-10.319 3.019-15.462C709 132.83 505.198-36.009 305.632 6.643c-205.056 0-279.393 132.897-303.526 331.03-21.345 175.24 121.596 348.945 336.942 328.247 295.066 56.177 331.855-132.693 366.933-312.785zM209.843 170.798c54.537-50.139 126.096-54.824 188.344-30.702 62.233 24.116 113.955 76.605 128.873 139.28-32.593 25.756-69.937 61.938-114.626 108.888-14.352 2.102-25.735 6.586-34.343 16.732-8.727 10.287-13.712 25.423-17.75 46.384-1.184 4.77-2.529 7.491-4.448 9.624-2.043 2.271-5.322 4.528-11.567 7.269-7.552 3.316-6.336 14.016 1.246 16.032 29.655 7.888 52.613 9.285 70.645.552 17.882-8.66 28.945-26.286 37.584-51.188 33.436-35.241 58.614-62.986 78.699-86.929-.334 33.901-2.4 59.064-12.888 82.85-12.514 28.379-37.506 55.721-89.001 92.627-49.14 35.218-114.272 34.082-166.867 12.883-26.215-10.567-48.817-25.943-64.351-43.672-15.41-17.59-23.508-37.037-22.165-56.308 1.745-7.217 5.796-14.312 11.498-21.705 5.168-6.701 11.334-13.209 17.84-20.076v-.001c.86-.907 1.725-1.82 2.595-2.741 14.266-15.107 30.437-32.736 32.458-54.638.655-7.106-1.931-13.159-5.701-18.209-3.662-4.905-8.745-9.283-13.93-13.326-2.84-2.216-5.742-4.365-8.647-6.517l-.001-.001c-8.245-6.107-16.511-12.23-23.467-19.921-8.977-9.928-14.959-21.736-13.707-37.961 1.281-16.597 10.201-38.858 33.677-69.226zm193.764-44.689c63.924 24.772 118.283 78.03 136.4 143.405 17.157-12.555 32.997-22.003 47.944-28.4 7.969-3.41 14.465 5.415 10.671 12.03-14.527 25.327-29.646 48.158-51.07 75.168.084 43.087-.449 76.109-14.216 107.33-14.153 32.098-41.804 61.368-93.987 98.767-54.512 39.068-125.408 37.096-181.212 14.603-27.985-11.279-52.675-27.895-70.026-47.7-17.345-19.798-27.718-43.251-25.802-67.842.032-.407.094-.818.187-1.227 2.367-10.376 7.898-19.62 14.353-27.989 5.668-7.35 12.401-14.452 18.839-21.245l1.456-1.536 1.112-1.176c15.008-15.891 26.96-29.831 28.426-45.716.217-2.346-.494-4.789-2.784-7.858-2.398-3.212-6.138-6.575-11.134-10.471-2.251-1.755-4.758-3.61-7.415-5.576l-.001-.001c-8.506-6.294-18.545-13.722-26.6-22.629-11-12.164-19.182-27.862-17.537-49.176 1.61-20.866 12.568-46.049 37.107-77.689.275-.353.592-.704.949-1.034 59.652-55.164 137.788-59.828 204.34-34.038zm9.562 277.219c-11.554 1.873-18.513 5.33-23.64 11.373-6.054 7.135-10.506 18.935-14.494 39.701l-.036.185-.045.183c-1.509 6.165-3.682 11.567-7.909 16.266a31.221 31.221 0 01-2.332 2.327c20.406 3.96 34.483 3.07 44.966-2.006 11.963-5.794 21.013-17.933 29.002-39.932l-25.512-28.097zm34.185 15.335c68.925-72.877 101.045-112.423 126.776-153.748-38.449 22.358-85.104 64.845-147.838 130.551l21.062 23.197zM280.019 242.926c0 14.073-11.012 24.803-23.77 24.803s-23.77-10.73-23.77-24.803c0-14.072 11.012-24.802 23.77-24.802s23.77 10.73 23.77 24.802zm15 0c0 21.983-17.358 39.803-38.77 39.803-21.412 0-38.77-17.82-38.77-39.803 0-21.982 17.358-39.802 38.77-39.802 21.412 0 38.77 17.82 38.77 39.802zm66.684-5.447c12.758 0 23.77-10.73 23.77-24.803 0-14.072-11.012-24.802-23.77-24.802s-23.77 10.73-23.77 24.802c0 14.073 11.012 24.803 23.77 24.803zm0 15c21.412 0 38.77-17.82 38.77-39.803 0-21.982-17.358-39.802-38.77-39.802-21.412 0-38.77 17.82-38.77 39.802 0 21.983 17.358 39.803 38.77 39.803zm112.94 23.882c0 14.072-11.011 24.803-23.769 24.803-12.759 0-23.77-10.731-23.77-24.803 0-14.073 11.011-24.803 23.77-24.803 12.758 0 23.769 10.73 23.769 24.803zm15 0c0 21.982-17.357 39.803-38.769 39.803s-38.77-17.821-38.77-39.803c0-21.983 17.358-39.803 38.77-39.803 21.412 0 38.769 17.82 38.769 39.803zM270.206 468.335c12.759 0 23.77-10.73 23.77-24.802 0-14.073-11.011-24.803-23.77-24.803-12.758 0-23.77 10.73-23.77 24.803 0 14.072 11.012 24.802 23.77 24.802zm0 15c21.412 0 38.77-17.82 38.77-39.802 0-21.983-17.358-39.803-38.77-39.803-21.412 0-38.77 17.82-38.77 39.803 0 21.982 17.358 39.802 38.77 39.802z" fill="#013845"/></svg>