<svg width="709" height="676" fill="none" xmlns="http://www.w3.org/2000/svg"><path fill-rule="evenodd" clip-rule="evenodd" d="M705.981 353.135c1.006-5.163 2.01-10.319 3.019-15.462C709 132.83 505.198-36.009 305.632 6.643c-205.056 0-279.393 132.897-303.526 331.03-21.345 175.24 121.596 348.945 336.942 328.247 295.066 56.177 331.855-132.693 366.933-312.785zM442.048 99.481c-31.672-13.84-70.311-18.914-107.809-17.14-43.675 2.065-87.337 13.492-118.47 32.841l.022.034C109.635 181.744 75.637 277.734 85.677 365.808c9.966 87.422 63.384 167.174 131.686 201.704 68.701 38.087 159.951 46.069 246.292 3.599 6.976 11.716 19.768 19.564 34.393 19.564h6c22.091 0 40-17.908 40-40V507.63l1.437.914 6.949-10.921c33.347-50.326 50.211-99.95 51.768-149.325 1.557-49.389-12.225-97.751-38.926-145.503l-.074-.133-.079-.131-6-10-.075-.125V83.676h-20v150.999c0 16.569-13.431 30-30 30h-17c-16.568 0-30-13.431-30-30v-151h-20v15.806zm0 22.132c-29.077-15-67.828-21.141-106.864-19.295-40.089 1.896-79.035 12.15-106.407 28.364l.005.009C127.416 193.109 96.288 282.306 105.549 363.543c9.353 82.049 59.849 155.862 121.944 186.675l-.016.033c64.023 35.32 149.573 42.48 230.58 1.298l-.006-.374a41.67 41.67 0 01-.003-.5v-58.204c-45.78 34.787-93.467 41.687-134.216 36.435-44.236-5.702-80.287-25.68-97.516-39.41l.088-.11c-107.858-91.994-85.653-233.494 2.152-299.216l5.999 8.014-5.906-8.083c50.552-36.932 100.865-43.665 142.157-37.633 29.245 4.272 54.012 14.948 71.242 25.773v-56.628zm16 283.063v62.187l-.144-.162c-44.809 39.831-91.807 47.487-131.515 42.369-38.278-4.934-69.791-21.779-85.441-33.539l.02-.023c-99.167-83.034-79.166-210.347-.474-269.292 45.932-33.538 90.851-39.3 127.421-33.958 34.016 4.969 60.741 19.542 74.133 30.476v31.941c0 26.608 20.783 48.36 47 49.912v80.088h9c-22.091 0-40 17.909-40 40.001zm51-40.001v-80c27.614 0 50-22.385 50-50v-.28c17.742 37.851 26.355 75.467 25.164 113.272-1.29 40.911-14.082 82.684-40.164 125.832v-68.824c0-22.091-17.908-40-40-40h5zm0-281v134h20v-134h-20zm-5 301h-6c-11.046 0-20 8.955-20 20.001v145.999c0 11.046 8.954 20 20 20h6c11.046 0 20-8.954 20-20v-146c0-11.045-8.954-20-20-20zm-28-167v-134h20v134h-20z" fill="#013845"/></svg>