<svg width="709" height="676" fill="none" xmlns="http://www.w3.org/2000/svg"><path fill-rule="evenodd" clip-rule="evenodd" d="M705.981 353.135c1.006-5.163 2.01-10.319 3.019-15.462C709 132.83 505.198-36.009 305.632 6.643c-205.056 0-279.393 132.897-303.526 331.03-21.345 175.24 121.596 348.945 336.942 328.247 295.066 56.177 331.855-132.693 366.933-312.785zm-362.416 76.014c5.263-12.254 12.375-28.812 30.576-47.894 11.24-11.783 28.968-22.112 48.114-33.268 58.383-34.017 129.956-75.718 70.985-189.77a2.168 2.168 0 00-.289-.421c-57.191-64.204-99.389-78.22-191.712-65.566a2.065 2.065 0 00-.343.077c-70.604 22.599-94.996 51.955-108.788 114.031a2.02 2.02 0 00.026.971c13.247 47.289 67.009 53.667 87.924-.289.049-.126.113-.254.186-.368 29.576-46.096 53.2-60.762 104.914-42.791 51.777 17.994 50.676 84.461 0 114.94-35.491 21.724-54.231 34.811-83.924 60.81a2.033 2.033 0 00-.303.332c-20.942 28.822-27.469 47.188-24.868 85.305.019.287.103.576.241.827 7.066 12.889 12.508 18.101 24.608 23.054.1.041.213.076.318.1 30.709 6.985 34.444-1.71 42.335-20.08zm-63.432 58.6l57.772 9.507c.165.027.329.076.482.144 10.497 4.646 13.691 8.803 12.252 20.094l-8.391 58.369a1.952 1.952 0 01-.255.725c-4.373 7.394-8.137 10.303-18.258 11.384a1.998 1.998 0 01-.535-.016l-59.3-9.822a2.006 2.006 0 01-.56-.181c-7.627-3.797-10.759-7.114-11.822-16.859a2.002 2.002 0 01.014-.53l10.16-62.775c.052-.323.185-.632.385-.892 5.819-7.561 9.82-9.639 18.056-9.148z" fill="#013845"/></svg>