<svg width="709" height="676" fill="none" xmlns="http://www.w3.org/2000/svg"><path fill-rule="evenodd" clip-rule="evenodd" d="M705.981 353.135c1.006-5.163 2.01-10.319 3.019-15.462C709 132.83 505.198-36.009 305.632 6.643c-205.056 0-279.393 132.897-303.526 331.03-21.345 175.24 121.596 348.945 336.942 328.247 295.066 56.177 331.855-132.693 366.933-312.785zM198.5 155c24.024 0 43.5-19.476 43.5-43.5S222.524 68 198.5 68 155 87.476 155 111.5s19.476 43.5 43.5 43.5zm47.535-9.395C252.936 136.004 257 124.226 257 111.5c0-32.309-26.191-58.5-58.5-58.5S140 79.191 140 111.5s26.191 58.5 58.5 58.5c14.136 0 27.101-5.014 37.214-13.36L317.409 254H210c-38.66 0-70 31.34-70 70v8.94c-35.493 11.448-56.069 41.286-57.428 72.42-1.389 31.802 17.253 63.717 57.428 78.313V495c0 38.66 31.34 70 70 70h289c38.66 0 70-31.34 70-70v-11.012c40.781-14.448 59.704-46.596 58.305-78.628-1.37-31.39-22.274-61.462-58.305-72.698V324c0-38.66-31.34-70-70-70H389.571l44.844-53.442A49.274 49.274 0 00463.5 210c27.338 0 49.5-22.162 49.5-49.5S490.838 111 463.5 111 414 133.162 414 160.5a49.281 49.281 0 009.721 29.466L369.99 254h-33l-90.955-108.395zM499 269H210c-30.376 0-55 24.624-55 55v171c0 30.376 24.624 55 55 55h289c30.376 0 55-24.624 55-55V324c0-30.376-24.624-55-55-55zM97.558 406.015c1.024-23.472 15.749-46.652 42.442-57.154v118.694c-30.758-13.166-43.468-38.048-42.442-61.54zM569 348.522v119.403c31.393-13.065 44.355-38.196 43.32-61.91-1.036-23.728-16.072-47.157-43.32-57.493zM341.5 456c-8.008 0-14.5 6.492-14.5 14.5s6.492 14.5 14.5 14.5h25c8.008 0 14.5-6.492 14.5-14.5s-6.492-14.5-14.5-14.5h-25zM259 400c15.464 0 28-12.536 28-28s-12.536-28-28-28-28 12.536-28 28 12.536 28 28 28zm239-239.5c0 19.054-15.446 34.5-34.5 34.5-19.054 0-34.5-15.446-34.5-34.5 0-19.054 15.446-34.5 34.5-34.5 19.054 0 34.5 15.446 34.5 34.5zM479 372c0 15.464-12.536 28-28 28s-28-12.536-28-28 12.536-28 28-28 28 12.536 28 28z" fill="#013845"/></svg>