<svg width="180" height="172" fill="none" xmlns="http://www.w3.org/2000/svg"><path fill-rule="evenodd" clip-rule="evenodd" d="M179.234 89.653c.255-1.31.51-2.62.766-3.925 0-52.005-51.741-94.87-102.407-84.041-52.059 0-70.931 33.74-77.058 84.04-5.42 44.491 30.87 88.591 85.542 83.336 74.911 14.262 84.251-33.688 93.157-79.41zM29.217 134.724c4.283 26.872 125.191 21.141 121.769.058a2.64 2.64 0 01-.037-.397c-.106-14.249-11.705-29.165-23.135-30.595-.813-.101-1.539-.612-1.806-1.387-4.312-12.495-3.492-19.8-2.027-32.842l.001-.002c.207-1.849.428-3.813.649-5.925 1.826-17.453-11.174-48.917-34.929-44.097a2.202 2.202 0 01-.407.043c-24.969.253-31.02 13.834-33.644 43.801-.014.166-.008.34.02.505 3.928 24.065 3.633 33.07-1.617 39.252-.306.359-.748.577-1.214.65-17.372 2.712-23.577 22.117-23.644 30.655 0 .095.006.187.021.281zm46.714-37.91c10.34 7.707 17.82 7.626 27.991-.023 1.183-.89 2.892-.285 3.624 1 .774 1.358 1.899 2.367 3.73 3.43.724.42 1.159 1.231.786 1.982-1.582 3.19-7.109 8.387-13.732 14.615-2.2 2.069-4.52 4.251-6.858 6.511-.78.754-2.02.756-2.804.005-2.283-2.187-4.522-4.257-6.645-6.22l-.001-.001c-6.188-5.721-11.387-10.529-13.802-14.637-.514-.877-.127-1.953.727-2.503 1.566-1.008 2.584-1.951 3.29-3.134.766-1.282 2.498-1.916 3.694-1.024zm25.158-50.32L67.748 63.547a2 2 0 01-2.139-.202l-.957-.745c-.674-.524-1.649-.551-2.011.222-1.343 2.867-.255 9.319 2.314 10.93.13.082.265.163.4.244.75.45 1.55.929 1.857 1.712 6.678 16.998 28.195 38.048 45.51-.316.345-.764 1.181-1.203 1.937-1.565 2.372-1.137 2.991-5.785 2.991-9.7-.102-1.15-.26-1.928-.581-2.359-.319-.43-.822-.7-1.316-.966-.644-.347-1.272-.685-1.462-1.357-2.685-9.531-5.448-13.028-12.293-13.166a1.921 1.921 0 00-.909.215z" fill="#013845"/></svg>