<svg width="709" height="676" viewBox="0 0 709 676" fill="none" xmlns="http://www.w3.org/2000/svg">
<path fill-rule="evenodd" clip-rule="evenodd" d="M705.981 353.135C706.987 347.972 707.991 342.816 709 337.673C709 132.83 505.198 -36.0088 305.632 6.64374C100.576 6.64374 26.2393 139.54 2.10585 337.673C-19.2391 512.913 123.702 686.618 339.048 665.92C634.114 722.097 670.903 533.227 705.981 353.135ZM195.007 158.431C195.007 152.118 200.124 147 206.438 147C212.751 147 217.868 152.118 217.868 158.431V180.531H490.686V158.431C490.686 152.118 495.804 147 502.117 147C508.43 147 513.548 152.118 513.548 158.431V191.915L513.548 191.962L513.548 192.008V265.088L513.548 265.119L513.548 265.151V354.249L513.548 354.28L513.548 354.312V441.885L513.548 441.917L513.548 441.949V505.168H532.599C538.912 505.168 544.03 510.286 544.03 516.599C544.03 522.912 538.912 528.03 532.599 528.03H174.431C168.118 528.03 163 522.912 163 516.599C163 510.286 168.118 505.168 174.431 505.168H195.007V441.917V354.28V265.119V191.962V158.431ZM217.868 447.251V505.168H490.686V447.251H471.101C468.63 459.426 457.866 468.589 444.962 468.589C432.058 468.589 421.295 459.426 418.824 447.251H398.705C396.234 459.426 385.47 468.589 372.567 468.589C359.663 468.589 348.899 459.426 346.428 447.251H325.547C323.076 459.426 312.313 468.589 299.409 468.589C286.505 468.589 275.741 459.426 273.27 447.251H217.868ZM490.686 436.583H471.101C468.629 424.408 457.866 415.245 444.962 415.245C432.059 415.245 421.295 424.408 418.824 436.583H398.705C396.234 424.408 385.47 415.245 372.567 415.245C359.663 415.245 348.9 424.408 346.428 436.583H325.547C323.076 424.408 312.312 415.245 299.409 415.245C286.505 415.245 275.742 424.408 273.27 436.583H217.868V359.615H235.929C238.401 371.789 249.164 380.953 262.068 380.953C274.972 380.953 285.735 371.789 288.207 359.615H304.515C306.986 371.789 317.75 380.953 330.653 380.953C343.557 380.953 354.321 371.789 356.792 359.615H373.1C375.571 371.789 386.335 380.953 399.239 380.953C412.142 380.953 422.906 371.789 425.377 359.615H490.686V436.583ZM288.206 348.946H304.515C306.986 336.772 317.75 327.608 330.653 327.608C343.557 327.608 354.321 336.772 356.792 348.946H373.1C375.571 336.772 386.335 327.608 399.239 327.608C412.142 327.608 422.906 336.772 425.377 348.946H490.686V270.454H475.673C473.202 282.628 462.439 291.791 449.535 291.791C436.631 291.791 425.867 282.628 423.396 270.454H401.753C399.282 282.628 388.519 291.791 375.615 291.791C362.711 291.791 351.947 282.628 349.476 270.454H286.682C284.211 282.628 273.448 291.791 260.544 291.791C247.64 291.791 236.876 282.628 234.405 270.454H217.868V348.946H235.929C238.401 336.772 249.164 327.608 262.068 327.608C274.972 327.608 285.735 336.772 288.206 348.946ZM401.753 259.785H423.396C425.868 247.61 436.631 238.447 449.535 238.447C462.438 238.447 473.202 247.61 475.673 259.785H490.686V203.393H217.868V259.785H234.405C236.877 247.61 247.64 238.447 260.544 238.447C273.447 238.447 284.211 247.61 286.682 259.785H349.476C351.948 247.61 362.711 238.447 375.615 238.447C388.518 238.447 399.282 247.61 401.753 259.785Z" fill="#013845"/>
</svg>
