<svg width="709" height="676" viewBox="0 0 709 676" fill="none" xmlns="http://www.w3.org/2000/svg">
<path fill-rule="evenodd" clip-rule="evenodd" d="M705.981 353.135C706.987 347.972 707.991 342.816 709 337.673C709 132.83 505.198 -36.0088 305.632 6.64374C100.576 6.64374 26.2393 139.54 2.10585 337.673C-19.2391 512.913 123.702 686.618 339.048 665.92C634.114 722.097 670.903 533.227 705.981 353.135ZM315.478 225.574V141.951C324.066 132.101 331.492 124.917 338.221 120.142C345.3 115.12 351.189 113.06 356.538 113.001C367.089 112.886 379.357 120.584 397.426 141.891V225.574H315.478ZM412.426 139.522V225.574H438.471C443.165 225.574 446.971 229.379 446.971 234.074V334.743C448.326 348.615 451.301 357.012 456.336 363.356C460.217 368.246 465.709 372.421 473.894 376.788C474.702 368.275 476.09 361.12 478.654 354.983C482.335 346.17 488.176 340.035 496.548 334.705C497.961 333.806 499.581 333.365 501.176 333.375C519.119 333.494 529.352 331.927 536.009 328.96C541.756 326.4 545.432 322.528 549.261 315.775C549.695 291.7 552.468 273.894 568.545 262.614L568.822 263.009C569.963 262.207 571.353 261.737 572.853 261.737C576.728 261.737 579.869 264.878 579.869 268.753C579.869 271.128 578.689 273.228 576.883 274.497L577.16 274.893C567.562 281.628 564.581 292.296 564.234 317.615C564.216 318.974 563.87 320.327 563.212 321.544C558.248 330.725 552.403 338.077 542.114 342.662C532.715 346.85 520.326 348.384 503.055 348.382C497.645 352.096 494.559 355.823 492.495 360.765C490.065 366.582 488.812 374.624 488.193 387.461L488.044 387.454C488.147 387.982 488.201 388.527 488.201 389.083V569.467C488.201 574.161 484.396 577.967 479.701 577.967H230.975C226.28 577.967 222.475 574.162 222.475 569.467V393.776C207.625 389.613 196.235 385.127 187.987 378.607C178.187 370.86 173.512 360.845 171.451 347.7C171.33 346.926 171.316 346.138 171.409 345.365C173.328 329.436 176.718 317.277 182.672 305.987C188.295 295.325 196.012 285.818 206.115 274.879C207.364 262.202 205.584 256.955 202.981 254.305C199.944 251.212 193.478 249.085 178.78 248.656C168.922 248.792 162.286 250.479 156.731 252.953C151.586 255.245 147.207 258.254 141.595 262.11L141.594 262.11L141.589 262.114L141.58 262.12C140.827 262.637 140.051 263.171 139.248 263.719L138.975 263.321C137.849 264.092 136.485 264.543 135.017 264.543C131.141 264.543 128 261.402 128 257.527C128 255.12 129.212 252.997 131.058 251.733L130.786 251.334C131.545 250.815 132.303 250.293 133.064 249.769C138.551 245.989 144.134 242.144 150.627 239.251C158.276 235.843 166.999 233.798 178.747 233.655L178.899 233.653L179.051 233.658C193.539 234.067 205.967 235.937 213.684 243.795C221.709 251.968 222.483 264.223 220.788 278.704C220.579 280.492 219.801 282.189 218.559 283.521C207.95 294.9 200.875 303.626 195.94 312.984C191.167 322.034 188.192 332.072 186.413 346.253C188.112 356.266 191.411 362.193 197.289 366.84C203.588 371.82 213.447 375.829 229.595 380.175C241.665 373.753 249.474 368.05 255.213 361.438C261.15 354.598 265.31 346.281 269.277 333.94V234.074C269.277 229.379 273.082 225.574 277.777 225.574H300.478V139.53C300.478 137.441 301.249 135.485 302.533 133.989C312.095 122.846 320.941 114.011 329.541 107.909C338.198 101.767 347.016 98.1043 356.375 98.0022C374.949 97.7996 391.711 111.597 410.45 134.073C411.684 135.554 412.426 137.473 412.426 139.522ZM397.426 263.219V240.574H315.478V263.219H300.478V240.574H284.277V334.95C284.277 335.831 284.139 336.694 283.883 337.508C279.512 351.364 274.509 362.091 266.541 371.271C259.279 379.636 249.942 386.269 237.475 392.972V562.967H473.201V393.228C460.941 387.381 451.393 381.257 444.587 372.681C436.972 363.085 433.479 351.321 432.004 335.814L431.971 335.459V335.103V240.574H412.426V263.219H397.426ZM276.777 421.437H287.106V501.054C287.106 505.748 290.912 509.554 295.606 509.554H412.841C417.535 509.554 421.341 505.748 421.341 501.054V421.437H429.442V406.437H413.841H294.606H276.777V421.437ZM302.106 494.554V421.437H406.341V494.554H302.106Z" fill="#013845"/>
</svg>
