<svg width="709" height="676" viewBox="0 0 709 676" fill="none" xmlns="http://www.w3.org/2000/svg">
<path fill-rule="evenodd" clip-rule="evenodd" d="M705.981 353.135C706.987 347.972 707.991 342.816 709 337.673C709 132.83 505.198 -36.0088 305.632 6.64374C100.576 6.64374 26.2393 139.54 2.10585 337.673C-19.2391 512.913 123.702 686.618 339.048 665.92C634.114 722.097 670.903 533.227 705.981 353.135ZM286.422 123.721C287.531 102.883 295.528 87.775 306.53 77.6638C318.557 66.6114 334.82 60.9468 351.372 61.0004C367.925 61.054 384.216 66.8263 396.27 77.9297C407.302 88.0924 415.286 103.173 416.388 123.803C374.523 111.949 328.493 111.651 286.422 123.721ZM271.061 128.75H266.291C266.291 100.13 276.698 77.9168 292.997 62.9379C309.138 48.1043 330.432 40.9324 351.437 41.0005C372.44 41.0685 393.706 48.3761 409.82 63.2196C426.091 78.2083 436.518 100.346 436.518 128.75H431.769C493.769 151.155 543.768 200.134 553.058 272.813V368.863C571.338 368.153 587.282 369.936 598.356 380.417C609.582 391.044 613.147 408.124 613.993 430.118L614 430.31V430.502V467.694C614 477.467 611.21 487.412 605.1 495.701C596.568 507.275 588.529 515.703 579.222 521.647C569.817 527.654 559.827 530.672 548.137 532.527L545.003 512.774C555.048 511.18 562.136 508.828 568.457 504.791C574.876 500.692 581.21 494.404 589.001 483.834C592.275 479.393 594 473.735 594 467.694V430.697C593.152 409.12 589.524 399.597 584.607 394.943C579.855 390.444 571.34 388.101 553.058 388.879V461.704C553.058 527.978 499.333 581.703 433.058 581.703H269.424C222.741 581.703 182.283 555.046 162.444 516.122L159.863 532.386C148.173 530.531 138.183 527.513 128.778 521.507C119.471 515.563 111.432 507.134 102.9 495.56C96.79 487.272 94 477.326 94 467.553V430.362V430.17L94.0074 429.978C94.8529 407.983 98.4177 390.903 109.645 380.277C119.589 370.864 133.46 368.467 149.424 368.589V284.267C149.424 276.648 150.078 268.902 151.908 261.506C163.156 216.051 187.358 181.587 218.594 157.522V157.303H218.879C234.728 145.142 252.379 135.649 271.061 128.75ZM171.323 266.31C179.807 232.02 196.578 204.583 218.594 183.825V189.153C218.594 260.95 276.797 319.153 348.594 319.153H353.241C425.038 319.153 483.241 260.95 483.241 189.153V181.371C509.512 204.474 527.851 235.725 533.058 274.124V461.704C533.058 516.932 488.287 561.703 433.058 561.703H269.424C214.196 561.703 169.424 516.932 169.424 461.703V284.267C169.424 277.723 169.993 271.682 171.323 266.31ZM361.452 135.037C398.547 136.784 434.106 147.517 463.241 166.297V189.153C463.241 249.904 413.992 299.153 353.241 299.153H348.594C287.843 299.153 238.594 249.904 238.594 189.153V167.723C273.643 143.699 317.471 132.966 361.452 135.037ZM123.393 394.802C127.639 390.783 134.889 388.484 149.424 388.595V461.703C149.424 479.749 153.408 496.864 160.543 512.218C151.774 510.635 145.337 508.351 139.543 504.651C133.124 500.551 126.79 494.263 118.999 483.693C115.725 479.252 114 473.594 114 467.553V430.556C114.848 408.98 118.476 399.456 123.393 394.802ZM259.093 466.193H374.719V493.508H394.719V466.193H449.231V446.193H259.093V466.193Z" fill="#013845"/>
</svg>
