<svg width="709" height="676" viewBox="0 0 709 676" fill="none" xmlns="http://www.w3.org/2000/svg">
<path fill-rule="evenodd" clip-rule="evenodd" d="M705.981 353.135C706.987 347.972 707.991 342.816 709 337.673C709 132.83 505.198 -36.0088 305.632 6.64374C100.576 6.64374 26.2393 139.54 2.10585 337.673C-19.2391 512.913 123.702 686.618 339.048 665.92C634.114 722.097 670.903 533.227 705.981 353.135ZM443.749 527.567C416.523 540.519 386.06 547.768 353.904 547.768C321.986 547.768 291.736 540.626 264.665 527.854L292.308 521.972V522.751H415.499V521.557L443.749 527.567ZM529.131 453.044C550.728 420.107 563.288 380.712 563.288 338.384C563.288 334.585 563.187 330.81 562.987 327.061L546.732 351.598L548.202 351.934L530.603 428.929L529.448 428.665L529.131 453.044ZM527.29 220.963C499.946 180.665 458.921 150.402 410.889 136.848L426.268 156.895L498.593 208.196L498.03 208.989L527.29 220.963ZM180.669 456.028L180.261 424.642L160.221 348.654L144.907 325.539C144.65 329.787 144.52 334.07 144.52 338.384C144.52 381.998 157.855 422.498 180.669 456.028ZM179.926 221.84L204.769 211.673L205.439 209.685L207.335 208.282L279.93 154.606L281.917 153.137H283.045L297.458 136.696C248.846 150.273 207.37 180.953 179.926 221.84ZM578.288 338.384C578.288 462.308 477.828 562.768 353.904 562.768C229.98 562.768 129.52 462.308 129.52 338.384C129.52 214.46 229.98 114 353.904 114C477.828 114 578.288 214.46 578.288 338.384ZM444.329 457.731L412.429 507.751H297.333L265.065 457.154L309.403 412.472C310.389 412.795 311.437 412.968 312.515 412.968H395.356C397.113 412.968 398.791 412.509 400.253 411.688L444.329 457.731ZM300.915 399.73L276.853 326.843L213.209 297.267L175.786 348.852L194.699 420.563L254.489 446.516L300.915 399.73ZM347.284 265.776L282.573 312.96L217.177 282.57L219.376 218.034L283.931 170.303L347.284 189.712V265.776ZM362.284 189.451V266.993L427.06 313.709L491.891 284.442L489.705 220.281L420.979 171.534L362.284 189.451ZM496.894 298.641L431.279 328.261L408.52 395.299L410.549 400.752L454.626 446.797L517.356 419.568L533.472 349.061L496.894 298.641Z" fill="#013845"/>
</svg>
