<svg width="709" height="676" viewBox="0 0 709 676" fill="none" xmlns="http://www.w3.org/2000/svg">
<path fill-rule="evenodd" clip-rule="evenodd" d="M709 337.673C707.991 342.816 706.987 347.972 705.981 353.135C670.903 533.227 634.114 722.097 339.048 665.92C123.702 686.618 -19.2392 512.913 2.10581 337.673C26.2393 139.54 100.576 6.64387 305.632 6.64387C505.198 -36.0087 709 132.83 709 337.673ZM349.859 97.9932L338.113 92.7725C337.709 92.5931 337.271 92.5051 336.83 92.5146L270.574 93.9446C269.093 93.9765 267.857 95.0842 267.664 96.5525L260.808 148.66C260.627 150.033 261.427 151.358 262.719 151.857C310.909 170.481 337.986 181.429 362.134 198.123C363.809 199.28 363.816 201.737 362.159 202.918C334.208 222.841 310.101 232.256 269.38 247.894C267.807 248.498 266.034 247.693 265.468 246.106L242.311 181.177C241.649 179.321 239.408 178.596 237.784 179.714L211.486 197.821C210.853 198.257 210.077 198.433 209.317 198.313L202.482 197.234C201.549 197.087 200.601 197.387 199.924 198.046L184.41 213.116C183.828 213.681 183.5 214.458 183.5 215.268V256.022C183.5 257.222 184.215 258.307 185.318 258.779L193.01 262.076C193.65 262.35 194.177 262.843 194.497 263.461C202.161 278.222 207.401 286.145 218.5 298.5C245.715 323.434 255.413 340.685 262.938 377.198C262.979 377.396 263 377.602 263 377.805V436.013C263 436.336 262.948 436.656 262.846 436.962L259.168 447.996C259.057 448.329 259.005 448.68 259.015 449.032L261.488 534.079C261.496 534.358 261.545 534.641 261.63 534.907C266.915 551.449 270.704 558.677 278.684 565.333C279.208 565.77 279.872 566 280.554 566H320.404C321.112 566 321.802 565.748 322.337 565.285C348.34 542.777 354.895 508.957 365.337 446.966C365.442 446.346 365.35 445.696 365.072 445.132L286.544 285.637C285.732 283.987 286.585 282.001 288.338 281.447C325.121 269.818 346.879 262.009 382.981 243.063C384.169 242.44 384.807 241.095 384.528 239.783L380 218.5L379.154 214.691C379.053 214.237 379.059 213.765 379.172 213.313L379.873 210.51C379.957 210.173 379.982 209.823 379.947 209.477L375.622 167.193C375.544 166.427 375.174 165.721 374.59 165.22L364.157 156.278C362.043 154.465 363.325 151 366.11 151H366.647C368.748 151 370.198 148.896 369.45 146.932L351.444 99.6666C351.16 98.92 350.589 98.3177 349.859 97.9932ZM355.282 100.16L374.5 147.536C375.071 148.942 376.608 149.699 378.074 149.303C406.184 141.708 423.473 137.927 447.024 136.458C449.948 136.275 451.28 139.963 448.957 141.749C432.856 154.126 423.228 162.442 413.802 174.334C413.015 175.327 411.695 175.741 410.489 175.351L384.232 166.868C382.208 166.214 380.165 167.815 380.317 169.937L382.399 199.094C382.463 199.985 382.921 200.802 383.648 201.321L386.754 203.539C388.215 204.583 388.438 206.669 387.23 207.998L385.492 209.91C384.866 210.598 384.595 211.537 384.758 212.453L391.219 248.793C391.688 251.435 395.125 252.177 396.652 249.971C405.53 237.146 411.693 228.919 421.242 220.583C422.019 219.905 423.109 219.694 424.092 220.007C456.639 230.376 475.462 238.217 503.907 252.428C506.38 253.663 509.092 251.197 508.071 248.629L496.882 220.462C496.634 219.839 496.186 219.317 495.607 218.979L454.585 195.011C453.156 194.177 452.663 192.334 453.617 190.982C457.889 184.92 463.941 180.41 471.701 174.627L471.704 174.625L471.71 174.621C473.425 173.343 475.223 172.003 477.104 170.57C477.967 169.913 478.401 168.824 478.246 167.751C473.738 136.611 472.17 121.267 472.012 102.716C472.001 101.4 471.126 100.232 469.866 99.8528C425.292 86.4194 399.706 85.3424 357.31 96.1427C355.558 96.5892 354.602 98.4846 355.282 100.16ZM391.912 285.5C384.55 314.417 376.848 460.196 439.399 469.428C439.731 469.477 440.084 469.466 440.412 469.394C475.074 461.778 491.561 402.759 509.289 339.301L509.293 339.284C510.636 334.479 511.985 329.648 513.35 324.813C513.677 323.655 515.253 323.939 515.132 325.136C514.729 329.113 514.259 333.383 513.772 337.809V337.81C511.468 358.76 508.777 383.22 510.958 396.744C510.986 396.919 510.999 397.093 510.997 397.27C510.758 418.072 510.77 429.899 515.932 452.206C515.976 452.399 516.003 452.604 516.009 452.802C517.678 508.662 509.329 537.772 482.865 585.447C482.337 586.398 481.326 587 480.239 587H418.166C417.13 587 416.158 586.451 415.612 585.571C385.974 537.828 373.384 510.148 366.032 459.717C366.011 459.575 366 459.428 366 459.283V445.861C366 444.996 366.373 444.173 367.025 443.604L372.782 438.566C373.542 437.901 373.916 436.903 373.785 435.901C363.198 354.631 399.247 256.694 391.912 285.5Z" fill="#013845"/>
</svg>
