<svg width="719" height="697" viewBox="0 0 719 697" fill="none" xmlns="http://www.w3.org/2000/svg">
<path fill-rule="evenodd" clip-rule="evenodd" d="M667.954 180.132C666.243 175.158 664.535 170.191 662.837 165.232C560.416 -12.1665 299.499 -56.4843 147.996 80.237C-29.5874 182.765 -27.5173 335.024 50.6492 518.68C119.784 681.114 330.427 760.077 506.573 634.479C790.197 535.597 727.621 353.636 667.954 180.132ZM345.297 232.896C270.728 184.941 225.14 172.619 136.495 179.552V458.126C217.999 455.345 263.754 466.04 345.297 507.766V232.896ZM366.495 233.729C441.064 185.92 486.652 173.635 575.297 180.547V458.277C493.793 455.504 448.038 466.167 366.495 507.766V233.729Z" fill="#013845"/>
</svg>
