<svg width="709" height="676" viewBox="0 0 709 676" fill="none" xmlns="http://www.w3.org/2000/svg">
<path fill-rule="evenodd" clip-rule="evenodd" d="M705.981 353.135C706.987 347.972 707.991 342.816 709 337.673C709 132.83 505.198 -36.0088 305.632 6.64374C100.576 6.64374 26.2393 139.54 2.10585 337.673C-19.2391 512.913 123.702 686.618 339.048 665.92C634.114 722.097 670.902 533.227 705.981 353.135ZM340.233 182H369.179C369.842 182 370.322 181.367 370.142 180.729L360.957 148.123C360.751 147.392 361.404 146.708 362.144 146.878L396.276 154.719C396.902 154.863 397.5 154.387 397.5 153.744V124.239C397.5 123.602 396.912 123.127 396.289 123.262L362.118 130.65C361.383 130.809 360.742 130.13 360.943 129.405L370.148 96.2676C370.325 95.6304 369.846 95 369.184 95H340.23C339.595 95 339.121 95.583 339.251 96.204L346.184 129.484C346.332 130.195 345.697 130.822 344.988 130.664L311.717 123.27C311.092 123.132 310.5 123.607 310.5 124.247V153.736C310.5 154.382 311.102 154.858 311.73 154.71L344.966 146.862C345.68 146.694 346.326 147.325 346.174 148.042L339.255 180.793C339.124 181.415 339.598 182 340.233 182ZM403.328 252.992H306.672C306.266 252.992 305.9 252.746 305.746 252.369L289.847 213.343C289.651 212.862 289.867 212.305 290.33 212.07C339.923 186.938 368.532 186.457 419.663 212.072C420.129 212.305 420.348 212.864 420.152 213.347L404.254 252.369C404.1 252.746 403.734 252.992 403.328 252.992ZM387.034 328.992H322.483C321.937 328.992 321.492 329.442 321.482 329.987C320.3 391.748 310.531 422.469 290.043 474.612C289.785 475.269 290.263 475.992 290.968 475.992H419.047C419.748 475.992 420.226 475.276 419.977 474.621C399.143 419.961 390.13 388.236 388.034 329.969C388.015 329.43 387.573 328.992 387.034 328.992ZM243 540C231.402 540 222 549.402 222 561C222 572.598 231.402 582 243 582H467C478.598 582 488 572.598 488 561C488 549.402 478.598 540 467 540H243ZM289 274C289 267.925 293.925 263 300 263H410C416.075 263 421 267.925 421 274C421 280.075 416.075 285 410 285H300C293.925 285 289 280.075 289 274ZM316 295C309.925 295 305 299.925 305 306C305 312.075 309.925 317 316 317H394C400.075 317 405 312.075 405 306C405 299.925 400.075 295 394 295H316ZM241 509C241 497.402 250.402 488 262 488H447C458.598 488 468 497.402 468 509C468 520.598 458.598 530 447 530H262C250.402 530 241 520.598 241 509Z" fill="#013845"/>
</svg>
