<svg width="709" height="676" viewBox="0 0 709 676" fill="none" xmlns="http://www.w3.org/2000/svg">
<path fill-rule="evenodd" clip-rule="evenodd" d="M705.981 353.135C706.987 347.972 707.991 342.816 709 337.673C709 132.83 505.198 -36.0087 305.632 6.64368C100.576 6.64368 26.2393 139.54 2.10585 337.673C-19.2391 512.913 123.702 686.618 339.048 665.92C634.114 722.097 670.903 533.227 705.981 353.135ZM317.5 160.501C320.536 158.22 322.5 154.589 322.5 150.5C322.5 143.597 316.904 138 310 138C303.096 138 297.5 143.597 297.5 150.5C297.5 154.589 299.464 158.22 302.5 160.501V177.867L220.228 259.165L218 261.367V264.5V388H147.5C140.596 388 135 393.597 135 400.5V431.5V469V508V525.5C135 532.403 140.596 538 147.5 538H230.5H250.5H366H386H567C571.142 538 574.5 534.642 574.5 530.5C574.5 526.358 571.142 523 567 523H560.099C561.576 521.63 562.5 519.673 562.5 517.5C562.5 513.697 559.669 510.555 556 510.066V510H555H549.5H536H522.5H511.771L505.037 505.511L495.344 497.203L488.301 488.839L461.402 435.529L457.521 424.749C456.761 422.639 455.449 420.773 453.72 419.345L444.03 411.34C442.786 410.313 441.355 409.536 439.817 409.052L423.981 404.075C422.768 403.694 421.504 403.5 420.233 403.5H398.5V264.5V261.46L396.383 259.278L317.5 177.96V160.501ZM150 403H218V411V424H150V403ZM150 439H218V461.5H150V439ZM150 476.5H218V500.5H150V476.5ZM150 515.5H218V523H150V515.5ZM248 523H233V508V469V431.5V418.5H248V445.5V523ZM255.5 403.5H233V395.5V272H383.5V403.5H361H349V403.447V403.356V403.263V403.171V403.078V402.984V402.89V402.796V402.701V402.605V402.509V402.412V402.315V402.217V402.119V402.021V401.922V401.822V401.722V401.622V401.521V401.419V401.317V401.214V401.111V401.007V400.903V400.799V400.694V400.588V400.482V400.376V400.269V400.161V400.053V399.945V399.836V399.726V399.616V399.506V399.395V399.284V399.172V399.06V398.947V398.834V398.72V398.606V398.491V398.376V398.26V398.144V398.027V397.91V397.792V397.674V397.556V397.437V397.318V397.197V397.077V396.956V396.835V396.713V396.591V396.468V396.345V396.221V396.097V395.973V395.848V395.722V395.596V395.47V395.343V395.215V395.088V394.96V394.831V394.702V394.572V394.442V394.312V394.181V394.049V393.918V393.785V393.652V393.519V393.385V393.252V393.117V392.982V392.846V392.711V392.574V392.438V392.3V392.163V392.025V391.886V391.747V391.608V391.468V391.328V391.187V391.046V390.904V390.762V390.62V390.477V390.334V390.191V390.046V389.901V389.756V389.611V389.465V389.319V389.172V389.026V388.878V388.73V388.582V388.433V388.283V388.134V387.984V387.833V387.682V387.531V387.38V387.227V387.075V386.922V386.768V386.614V386.46V386.306V386.151V385.995V385.839V385.683V385.526V385.369V385.212V385.054V384.896V384.737V384.578V384.419V384.259V384.098V383.938V383.776V383.615V383.453V383.291V383.129V382.965V382.802V382.638V382.474V382.309V382.144V381.979V381.813V381.647V381.48V381.313V381.146V380.978V380.81V380.641V380.473V380.303V380.133V379.964V379.793V379.622V379.451V379.279V379.108V378.935V378.763V378.589V378.416V378.242V378.068V377.894V377.719V377.544V377.368V377.192V377.015V376.839V376.661V376.484V376.306V376.128V375.949V375.77V375.591V375.411V375.231V375.05V374.87V374.689V374.507V374.325V374.143V373.961V373.777V373.594V373.411V373.227V373.042V372.858V372.672V372.487V372.301V372.115V371.929V371.742V371.555V371.367V371.179V370.991V370.803V370.614V370.425V370.235V370.045V369.855V369.665V369.474V369.282V369.091V368.899V368.707V368.514V368.321V368.128V367.934V367.74V367.546V367.351V367.156V366.961V366.766V366.57V366.374V366.177V365.98V365.783V365.585V365.387V365.189V364.991V364.792V364.593V364.393V364.193V363.993V363.793V363.592V363.391V363.19V362.988V362.786V362.584V362.381V362.178V361.975V361.772V361.568V361.363V361.159V360.954V360.749V360.544V360.338V360.132V359.926V359.719V359.512V359.305V359.098V358.89V358.682V358.473V358.265V358.056V357.846V357.637V357.427V357.216V357.006V356.796V356.584V356.373V356.161V355.949V355.737V355.525V355.312V355.099V354.885V354.672V354.458V354.244V354.029V353.814V353.599V353.384V353.168V352.952V352.736V352.52V352.303V352.086V351.869V351.651V351.433V351.215V350.997V350.778V350.559V350.34V350.121V349.901V349.681V349.461V349.24V349.019V348.798V348.577V348.355V348.133V347.911V347.689V347.466V347.243V347.02V346.797V346.573V346.349V346.125V345.901V345.676V345.451V345.226V345C349 332.858 343.557 323.75 335.271 318.071C327.296 312.606 317.177 310.609 307.637 311.071C298.072 311.535 288.241 314.506 280.596 319.993C272.836 325.562 267 334.044 267 345V345.188V345.375V345.563V345.751V345.938V346.126V346.314V346.502V346.689V346.877V347.065V347.253V347.441V347.629V347.817V348.005V348.193V348.381V348.569V348.757V348.945V349.133V349.321V349.509V349.698V349.886V350.074V350.262V350.45V350.638V350.827V351.015V351.203V351.391V351.579V351.767V351.955V352.144V352.332V352.52V352.708V352.896V353.084V353.272V353.46V353.648V353.835V354.023V354.211V354.399V354.587V354.775V354.962V355.15V355.337V355.525V355.713V355.9V356.087V356.275V356.462V356.649V356.837V357.024V357.211V357.398V357.585V357.772V357.959V358.145V358.332V358.519V358.705V358.892V359.078V359.265V359.451V359.637V359.823V360.009V360.195V360.381V360.567V360.753V360.938V361.124V361.309V361.495V361.68V361.865V362.05V362.235V362.42V362.605V362.789V362.974V363.158V363.342V363.526V363.711V363.895V364.079V364.262V364.446V364.63V364.813V364.996V365.179V365.362V365.545V365.728V365.91V366.093V366.275V366.457V366.639V366.821V367.003V367.185V367.366V367.547V367.729V367.91V368.09V368.272V368.452V368.632V368.813V368.993V369.172V369.353V369.532V369.712V369.891V370.07V370.249V370.427V370.606V370.784V370.963V371.141V371.318V371.496V371.674V371.851V372.028V372.205V372.382V372.559V372.735V372.911V373.087V373.263V373.438V373.614V373.789V373.964V374.139V374.313V374.487V374.662V374.836V375.009V375.183V375.356V375.529V375.702V375.874V376.047V376.219V376.391V376.563V376.734V376.905V377.076V377.247V377.417V377.588V377.757V377.927V378.097V378.266V378.435V378.604V378.773V378.941V379.109V379.277V379.444V379.611V379.778V379.945V380.112V380.278V380.444V380.61V380.775V380.941V381.105V381.27V381.434V381.598V381.762V381.925V382.089V382.252V382.414V382.577V382.739V382.901V383.062V383.223V383.384V383.545V383.705V383.865V384.025V384.184V384.343V384.502V384.66V384.818V384.976V385.134V385.291V385.448V385.605V385.761V385.917V386.072V386.228V386.383V386.537V386.692V386.846V386.999V387.152V387.306V387.458V387.61V387.762V387.914V388.066V388.216V388.367V388.517V388.667V388.817V388.966V389.115V389.263V389.411V389.559V389.706V389.854V390V390.147V390.292V390.438V390.583V390.728V390.872V391.016V391.16V391.303V391.446V391.589V391.731V391.873V392.014V392.155V392.296V392.436V392.576V392.715V392.855V392.993V393.131V393.269V393.406V393.544V393.68V393.817V393.952V394.088V394.223V394.357V394.491V394.625V394.758V394.891V395.024V395.156V395.287V395.419V395.549V395.68V395.81V395.939V396.068V396.197V396.325V396.453V396.58V396.707V396.833V396.959V397.085V397.21V397.334V397.458V397.582V397.705V397.828V397.95V398.072V398.193V398.315V398.435V398.555V398.674V398.794V398.912V399.03V399.148V399.265V399.381V399.498V399.613V399.729V399.843V399.958V400.071V400.185V400.297V400.41V400.522V400.633V400.744V400.854V400.964V401.073V401.182V401.29V401.398V401.505V401.612V401.718V401.824V401.929V402.034V402.138V402.241V402.345V402.447V402.549V402.651V402.752V402.852V402.952V403.052V403.151V403.249V403.347V403.444V403.5H255.5ZM373.276 257H243.76L309.887 191.655L373.276 257ZM368.5 418.5H383.5V435.5V523H368.5V445.5V418.5ZM398.5 523V435.5V418.5H419.849L434.853 423.216L443.639 430.474L447.443 441.041L447.598 441.471L447.804 441.879L475.041 495.858C475.478 496.723 476.014 497.536 476.639 498.278L484.001 507.02C484.239 507.302 484.489 507.574 484.75 507.834C484.968 508.05 485.194 508.259 485.428 508.459L495.619 517.194L495.963 517.489L496.34 517.74L504.08 522.901L504.231 523H398.5ZM353.5 453V523H263V453H353.5ZM353.5 438H263V418.5H274.5H341.5H353.5V438ZM334 403.447V403.5H282V403.444V403.347V403.249V403.151V403.052V402.952V402.852V402.752V402.651V402.549V402.447V402.345V402.241V402.138V402.034V401.929V401.824V401.718V401.612V401.505V401.398V401.29V401.182V401.073V400.964V400.854V400.744V400.633V400.522V400.41V400.297V400.185V400.071V399.958V399.843V399.729V399.613V399.498V399.381V399.265V399.148V399.03V398.912V398.794V398.674V398.555V398.435V398.315V398.193V398.072V397.95V397.828V397.705V397.582V397.458V397.334V397.21V397.085V396.959V396.833V396.707V396.58V396.453V396.325V396.197V396.068V395.939V395.81V395.68V395.549V395.419V395.287V395.156V395.024V394.891V394.758V394.625V394.491V394.357V394.223V394.088V393.952V393.817V393.68V393.544V393.406V393.269V393.131V392.993V392.855V392.715V392.576V392.436V392.296V392.155V392.014V391.873V391.731V391.589V391.446V391.303V391.16V391.016V390.872V390.728V390.583V390.438V390.292V390.147V390V389.854V389.706V389.559V389.411V389.263V389.115V388.966V388.817V388.667V388.517V388.367V388.216V388.066V387.914V387.762V387.61V387.458V387.306V387.152V386.999V386.846V386.692V386.537V386.383V386.228V386.072V385.917V385.761V385.605V385.448V385.291V385.134V384.976V384.818V384.66V384.502V384.343V384.184V384.025V383.865V383.705V383.545V383.384V383.223V383.062V382.901V382.739V382.577V382.414V382.252V382.089V381.925V381.762V381.598V381.434V381.27V381.105V380.941V380.775V380.61V380.444V380.278V380.112V379.945V379.778V379.611V379.444V379.277V379.109V378.941V378.773V378.604V378.435V378.266V378.097V377.927V377.757V377.588V377.417V377.247V377.076V376.905V376.734V376.563V376.391V376.219V376.047V375.874V375.702V375.529V375.356V375.183V375.009V374.836V374.662V374.487V374.313V374.139V373.964V373.789V373.614V373.438V373.263V373.087V372.911V372.735V372.559V372.382V372.205V372.028V371.851V371.674V371.496V371.318V371.141V370.963V370.784V370.606V370.427V370.249V370.07V369.891V369.712V369.532V369.353V369.172V368.993V368.813V368.632V368.452V368.272V368.09V367.91V367.729V367.547V367.366V367.185V367.003V366.821V366.639V366.457V366.275V366.093V365.91V365.728V365.545V365.362V365.179V364.996V364.813V364.63V364.446V364.262V364.079V363.895V363.711V363.526V363.342V363.158V362.974V362.789V362.605V362.42V362.235V362.05V361.865V361.68V361.495V361.309V361.124V360.938V360.753V360.567V360.381V360.195V360.009V359.823V359.637V359.451V359.265V359.078V358.892V358.705V358.519V358.332V358.145V357.959V357.772V357.585V357.398V357.211V357.024V356.837V356.649V356.462V356.275V356.087V355.9V355.713V355.525V355.337V355.15V354.962V354.775V354.587V354.399V354.211V354.023V353.835V353.648V353.46V353.272V353.084V352.896V352.708V352.52V352.332V352.144V351.955V351.767V351.579V351.391V351.203V351.015V350.827V350.638V350.45V350.262V350.074V349.886V349.698V349.509V349.321V349.133V348.945V348.757V348.569V348.381V348.193V348.005V347.817V347.629V347.441V347.253V347.065V346.877V346.689V346.502V346.314V346.126V345.938V345.751V345.563V345.375V345.188V345C282 339.956 284.539 335.626 289.342 332.179C294.259 328.651 301.178 326.402 308.363 326.054C315.573 325.704 322.204 327.3 326.792 330.444C331.068 333.376 334 337.892 334 345V345.226V345.451V345.676V345.901V346.125V346.349V346.573V346.797V347.02V347.243V347.466V347.689V347.911V348.133V348.355V348.577V348.798V349.019V349.24V349.461V349.681V349.901V350.121V350.34V350.559V350.778V350.997V351.215V351.433V351.651V351.869V352.086V352.303V352.52V352.736V352.952V353.168V353.384V353.599V353.814V354.029V354.244V354.458V354.672V354.885V355.099V355.312V355.525V355.737V355.949V356.161V356.373V356.584V356.796V357.006V357.216V357.427V357.637V357.846V358.056V358.265V358.473V358.682V358.89V359.098V359.305V359.512V359.719V359.926V360.132V360.338V360.544V360.749V360.954V361.159V361.363V361.568V361.772V361.975V362.178V362.381V362.584V362.786V362.988V363.19V363.391V363.592V363.793V363.993V364.193V364.393V364.593V364.792V364.991V365.189V365.387V365.585V365.783V365.98V366.177V366.374V366.57V366.766V366.961V367.156V367.351V367.546V367.74V367.934V368.128V368.321V368.514V368.707V368.899V369.091V369.282V369.474V369.665V369.855V370.045V370.235V370.425V370.614V370.803V370.991V371.179V371.367V371.555V371.742V371.929V372.115V372.301V372.487V372.672V372.858V373.042V373.227V373.411V373.594V373.777V373.961V374.143V374.325V374.507V374.689V374.87V375.05V375.231V375.411V375.591V375.77V375.949V376.128V376.306V376.484V376.661V376.839V377.015V377.192V377.368V377.544V377.719V377.894V378.068V378.242V378.416V378.589V378.763V378.935V379.108V379.279V379.451V379.622V379.793V379.964V380.133V380.303V380.473V380.641V380.81V380.978V381.146V381.313V381.48V381.647V381.813V381.979V382.144V382.309V382.474V382.638V382.802V382.965V383.129V383.291V383.453V383.615V383.776V383.938V384.098V384.259V384.419V384.578V384.737V384.896V385.054V385.212V385.369V385.526V385.683V385.839V385.995V386.151V386.306V386.46V386.614V386.768V386.922V387.075V387.227V387.38V387.531V387.682V387.833V387.984V388.134V388.283V388.433V388.582V388.73V388.878V389.026V389.172V389.319V389.465V389.611V389.756V389.901V390.046V390.191V390.334V390.477V390.62V390.762V390.904V391.046V391.187V391.328V391.468V391.608V391.747V391.886V392.025V392.163V392.3V392.438V392.574V392.711V392.846V392.982V393.117V393.252V393.385V393.519V393.652V393.785V393.918V394.049V394.181V394.312V394.442V394.572V394.702V394.831V394.96V395.088V395.215V395.343V395.47V395.596V395.722V395.848V395.973V396.097V396.221V396.345V396.468V396.591V396.713V396.835V396.956V397.077V397.197V397.318V397.437V397.556V397.674V397.792V397.91V398.027V398.144V398.26V398.376V398.491V398.606V398.72V398.834V398.947V399.06V399.172V399.284V399.395V399.506V399.616V399.726V399.836V399.945V400.053V400.161V400.269V400.376V400.482V400.588V400.694V400.799V400.903V401.007V401.111V401.214V401.317V401.419V401.521V401.622V401.722V401.822V401.922V402.021V402.119V402.217V402.315V402.412V402.509V402.605V402.701V402.796V402.89V402.984V403.078V403.171V403.263V403.356V403.447ZM534.5 212C548.307 212 559.5 200.807 559.5 187C559.5 173.193 548.307 162 534.5 162C520.693 162 509.5 173.193 509.5 187C509.5 200.807 520.693 212 534.5 212ZM534.5 227C556.591 227 574.5 209.091 574.5 187C574.5 164.909 556.591 147 534.5 147C512.409 147 494.5 164.909 494.5 187C494.5 209.091 512.409 227 534.5 227ZM466 156C461.858 156 458.5 159.358 458.5 163.5C458.5 167.642 461.858 171 466 171H481C485.142 171 488.5 167.642 488.5 163.5C488.5 159.358 485.142 156 481 156H466ZM467.803 231.91C464.874 234.839 464.874 239.588 467.803 242.517C470.732 245.446 475.481 245.446 478.41 242.517L489.017 231.91C491.946 228.981 491.946 224.233 489.017 221.304C486.088 218.375 481.339 218.375 478.41 221.304L467.803 231.91ZM555 263C550.858 263 547.5 259.642 547.5 255.5V240.5C547.5 236.358 550.858 233 555 233C559.142 233 562.5 236.358 562.5 240.5V255.5C562.5 259.642 559.142 263 555 263Z" fill="#013845"/>
</svg>
