<svg width="709" height="676" viewBox="0 0 709 676" fill="none" xmlns="http://www.w3.org/2000/svg">
<path fill-rule="evenodd" clip-rule="evenodd" d="M705.981 353.135C706.987 347.972 707.991 342.816 709 337.673C709 132.83 505.198 -36.0088 305.632 6.64374C100.576 6.64374 26.2393 139.54 2.10585 337.673C-19.2391 512.913 123.702 686.618 339.048 665.92C634.114 722.097 670.903 533.227 705.981 353.135ZM587.321 448.398C619.46 372.316 620.722 302.663 600.922 244.358C580.863 185.291 539.435 138.6 488.17 108.999C385.721 49.8436 242.87 58.4796 150.464 173.528C56.892 288.303 89.3229 433.818 176.747 519.874C220.571 563.012 278.642 591.772 342.465 594.52C405.928 597.253 474.117 574.221 538.605 515.774C543.554 517.772 548.963 518.873 554.628 518.873C578.276 518.873 597.447 499.702 597.447 476.053C597.447 465.511 593.638 455.859 587.321 448.398ZM166.012 186.107L158.244 179.871L165.965 186.165C80.312 291.227 109.02 425.143 190.778 505.621C231.545 545.749 285.075 572.031 343.325 574.539C399.942 576.977 461.942 556.996 522.007 503.793C515.647 496.32 511.808 486.635 511.808 476.053C511.808 452.404 530.979 433.233 554.628 433.233C560.301 433.233 565.717 434.337 570.672 436.34C599.359 366 599.685 302.913 581.984 250.789C563.624 196.723 525.621 153.719 478.169 126.319C383.201 71.4829 251.508 79.6087 166.012 186.107ZM366.133 239.306C384.344 239.306 399.106 224.543 399.106 206.333C399.106 188.123 384.344 173.36 366.133 173.36C347.923 173.36 333.161 188.123 333.161 206.333C333.161 224.543 347.923 239.306 366.133 239.306ZM366.133 259.306C395.389 259.306 419.106 235.589 419.106 206.333C419.106 177.077 395.389 153.36 366.133 153.36C336.877 153.36 313.161 177.077 313.161 206.333C313.161 235.589 336.877 259.306 366.133 259.306ZM471.345 264.963C471.345 264.955 471.345 264.951 471.345 264.951C471.345 264.951 471.345 264.955 471.345 264.963ZM468.721 269.994L423.233 293.363L421.082 294.469H418.664H288.638L258.311 325.101L277.377 308.831C280.998 305.742 285.601 304.045 290.36 304.045H307.282C319.81 304.045 329.254 315.432 326.937 327.745L315.391 389.083C315.268 389.735 315.124 390.305 315.016 390.71C314.993 390.797 314.97 390.882 314.948 390.963C314.921 391.065 314.894 391.16 314.872 391.24L314.872 391.242L314.869 391.253L314.844 391.343L314.8 391.504C314.829 391.739 314.891 392.143 315.027 392.739C315.276 393.823 315.694 395.216 316.309 396.849C317.541 400.121 319.405 403.939 321.742 407.587C324.096 411.262 326.738 414.466 329.419 416.756C332.137 419.078 334.365 420.019 335.992 420.216C346.587 421.499 359.05 425.69 369.342 430.5C374.545 432.931 379.473 435.651 383.542 438.454C387.07 440.883 391.019 444.084 393.425 447.953L434.503 502.587C435.832 502.612 436.762 502.548 437.388 502.461C437.484 501.739 437.545 500.648 437.491 499.053L400.349 427.271L378.766 412.556C372.138 408.037 368.852 399.996 370.417 392.128L384.741 320.142C386.603 310.784 394.815 304.045 404.356 304.045H420.353L468.721 269.994ZM286.673 274.565C282.056 275.021 277.717 277.072 274.424 280.398L234.857 320.364C233.29 321.948 231.926 323.849 230.936 326.036C229.245 329.767 227.818 333.505 227.231 336.954C226.686 340.157 226.439 345.759 230.688 350.181C234.689 354.345 240.044 354.616 243.028 354.498C246.408 354.365 250.2 353.562 254.029 352.543C256.94 351.768 259.55 350.336 261.711 348.492L290.36 324.045H307.282L295.738 385.371L295.738 385.372L295.738 385.373C295.736 385.378 295.734 385.39 295.729 385.41C295.721 385.444 295.707 385.5 295.684 385.585L295.662 385.667L295.649 385.717C295.63 385.784 295.61 385.859 295.584 385.951L295.579 385.971L295.578 385.973C295.54 386.115 295.488 386.3 295.437 386.493C295.237 387.248 294.857 388.733 294.788 390.505C294.622 394.728 296.002 399.675 297.592 403.897C298.055 405.126 298.573 406.391 299.144 407.678L285.173 436.3L233.093 455.78C230.471 456.761 227.968 458.321 225.879 460.481C222.488 463.988 219.579 467.484 217.632 470.997C215.68 474.521 214.12 479.123 215.268 484.207C216.426 489.334 219.832 492.721 222.945 494.886C226.013 497.021 229.751 498.645 233.5 500.017C236.954 501.281 240.578 501.468 243.933 500.819L306.49 488.711C310.738 487.889 314.604 485.712 317.509 482.506L351.686 444.793C354.796 445.937 357.902 447.23 360.874 448.618C365.365 450.717 369.271 452.909 372.198 454.925C375.279 457.047 376.296 458.315 376.389 458.43C376.395 458.437 376.397 458.44 376.396 458.439L376.722 459.018L377.121 459.55L418.642 514.771C421.884 519.083 427.083 522.347 433.274 522.56C439.341 522.77 446.858 522.112 452.142 516.529C457.291 511.088 457.69 503.673 457.467 498.02C457.349 495.035 456.51 492.289 455.296 489.942L418.111 418.08C416.587 415.135 414.355 412.615 411.615 410.747L390.033 396.031L404.356 324.045H420.353C424.474 324.045 428.495 322.772 431.866 320.399L481.988 285.113C485.136 282.897 487.81 279.662 489.203 275.605C490.257 272.533 491.152 269.236 491.317 266.029C491.487 262.737 490.927 258.415 487.764 254.758C484.689 251.203 480.594 249.963 477.452 249.513C474.29 249.06 470.825 249.22 467.406 249.598C464.951 249.869 462.675 250.615 460.673 251.643L416.245 274.469H288.638H286.673V274.565ZM303.147 445.073L311.765 427.416C313.225 429.023 314.78 430.554 316.428 431.962C320.078 435.08 324.53 437.886 329.675 439.299L302.69 469.076L240.198 481.171C238.344 480.487 236.967 479.891 235.96 479.386C236.811 478.185 238.141 476.58 240.151 474.494L292.18 455.032C296.976 453.239 300.901 449.674 303.147 445.073ZM233.991 478.179C233.991 478.178 233.995 478.182 234.002 478.189C233.997 478.184 233.993 478.181 233.992 478.179L233.991 478.179ZM234.813 481.34C234.809 481.358 234.805 481.367 234.805 481.367C234.804 481.367 234.807 481.358 234.813 481.34ZM577.447 476.053C577.447 488.656 567.231 498.873 554.628 498.873C542.025 498.873 531.808 488.656 531.808 476.053C531.808 463.45 542.025 453.233 554.628 453.233C567.231 453.233 577.447 463.45 577.447 476.053Z" fill="#013845"/>
</svg>
