<svg width="709" height="676" viewBox="0 0 709 676" fill="none" xmlns="http://www.w3.org/2000/svg">
<path fill-rule="evenodd" clip-rule="evenodd" d="M705.981 353.135C706.987 347.972 707.991 342.816 709 337.673C709 132.83 505.198 -36.0087 305.632 6.64368C100.576 6.64368 26.2394 139.54 2.10585 337.673C-19.2391 512.913 123.702 686.618 339.048 665.92C634.114 722.097 670.903 533.227 705.981 353.135ZM186.5 102C175.73 102 167 110.731 167 121.5V554.757C167 565.527 175.731 574.257 186.5 574.257H514.718H516.185C526.954 574.257 535.685 565.526 535.685 554.757V528.589H531.363C532.463 528.583 533.352 527.69 533.352 526.589V435.851L503.696 490.005C503.535 490.299 503.451 490.63 503.451 490.965V528.589H500.685V539.257H202V137H500.685V151.568V234.339H503.017V321.011L533.352 265.541V234.339H535.685V151.568V121.5C535.685 110.731 526.954 102 516.185 102H186.5ZM444.081 465.863V502.367C444.081 503.954 445.841 504.909 447.171 504.044L479.648 482.914C479.912 482.742 480.131 482.511 480.289 482.239L597.355 279.839C597.908 278.883 597.581 277.66 596.626 277.107L567.14 260.036C566.188 259.485 564.971 259.806 564.414 260.753L444.357 464.849C444.176 465.157 444.081 465.507 444.081 465.863ZM574.714 243.876L585.632 226.044C586.2 225.115 587.407 224.812 588.347 225.361L618.235 242.828C619.212 243.4 619.521 244.668 618.916 245.624L607.628 263.467C607.049 264.381 605.849 264.67 604.919 264.119L575.401 246.641C574.441 246.072 574.131 244.828 574.714 243.876ZM226.969 300.643H415.046V323.178H226.969V300.643ZM415.046 188.837H226.969V211.372H415.046V188.837ZM226.969 409.849H415.046V432.384H226.969V409.849ZM471.382 355.246H226.969V377.781H471.382V355.246ZM226.969 247.774H471.382V270.308H226.969V247.774Z" fill="#013845"/>
</svg>
