<svg width="709" height="676" viewBox="0 0 709 676" fill="none" xmlns="http://www.w3.org/2000/svg">
<path fill-rule="evenodd" clip-rule="evenodd" d="M705.981 353.135C706.987 347.972 707.991 342.816 709 337.673C709 132.83 505.198 -36.0087 305.632 6.64387C100.576 6.64387 26.2393 139.54 2.10586 337.673C-19.2391 512.913 123.702 686.618 339.048 665.92C634.114 722.097 670.903 533.227 705.981 353.135ZM436.63 147.908C462.773 151.479 477.559 157.266 486.958 167.056C496.422 176.913 502.118 192.585 505.399 220.395L525.261 218.052C521.868 189.287 515.582 167.992 501.386 153.205C487.125 138.35 466.574 131.813 439.336 128.092L436.63 147.908ZM297.173 189.567L298.686 191.097C300.975 182.768 304.272 175.755 309.419 170.601C319.042 160.962 332.32 160.217 346.837 162.336L348.881 162.635L350.64 163.719L364.754 172.42L365.787 173.057L366.638 173.922L416.232 224.368C420.313 222 424.537 220.169 429.05 219.44C436.888 218.173 443.914 220.428 450.92 224.509L451.819 225.033L452.591 225.73L445.887 233.15C452.591 225.73 452.592 225.731 452.593 225.732L452.595 225.734L452.606 225.743L452.644 225.778L452.79 225.91C452.918 226.026 453.107 226.197 453.352 226.421C453.845 226.868 454.566 227.525 455.49 228.37C457.337 230.059 459.995 232.501 463.249 235.52C469.753 241.556 478.648 249.912 488.207 259.188C507.09 277.509 529.336 300.153 540.382 315.492C552.307 332.051 562.534 363.733 563.855 397.82C565.185 432.15 557.564 470.991 531.306 500.831C479.388 559.83 381.285 567.309 314.109 501.36L313.988 501.242L313.871 501.119L213.376 395.529L211.792 393.864L211.093 391.674C204.951 372.421 206.081 353.657 217.321 341.649C222.644 335.962 229.4 332.641 237.013 331.434L222.961 316.612L221.272 314.831L220.6 312.469C215.511 294.589 216.439 277.407 227.529 266.287C232.965 260.837 239.926 257.767 247.813 256.64L236.339 243.905L234.409 241.764L233.916 238.923C230.792 220.945 233.775 203.838 245.256 193.074C257.024 182.042 274.426 180.672 293.304 187.139L295.523 187.9L297.173 189.567ZM401.62 295.156L315.58 208.176C317.729 194.314 320.472 187.836 323.572 184.732C326.008 182.292 330.366 180.421 341.949 181.856L353.226 188.808L402.123 238.545C399.983 242.283 398.295 246.055 397.286 250.097C395.587 256.907 396.042 263.501 397.76 270.825L398.35 273.34L400.085 275.255L430.572 308.903L430.816 309.172L431.079 309.422L432.536 310.813C423.876 322.989 418.62 334.544 418.052 347.226C417.378 362.259 423.399 376.895 433.322 393.715L450.548 383.554C441.109 367.553 437.628 357.135 438.032 348.121C438.428 339.266 442.677 329.799 453.706 315.966L459.408 308.813L452.791 302.498L445.15 295.205L416.722 263.829C415.993 259.841 416.12 257.23 416.691 254.939C417.366 252.237 418.863 249.143 422.063 244.363C427.279 240.79 430.149 239.521 432.239 239.184C433.774 238.936 435.857 239.031 439.989 241.302C440.464 241.733 441.139 242.348 441.994 243.129C443.809 244.79 446.431 247.198 449.644 250.18C456.072 256.146 464.855 264.397 474.28 273.541C493.365 292.06 514.309 313.51 524.153 327.179C533.117 339.628 542.65 367.123 543.87 398.594C545.08 429.823 538.023 462.923 516.291 487.618C472.26 537.656 387.524 545.285 328.24 487.206L229.502 383.461C225.294 368.716 227.976 359.532 231.922 355.317C235.525 351.468 243.456 348.461 257.849 353.661L329.666 429.164L329.678 429.176L344.18 415.404L344.169 415.392L239.22 304.693C235.814 291.066 238.377 283.733 241.69 280.41C245.035 277.057 252.578 274.319 266.89 277.581L359.2 370.168L373.363 356.047L279.257 261.659L253.201 232.741C251.524 219.837 254.625 211.705 258.935 207.665C263.046 203.811 270.996 201.19 284.663 205.36L297.874 218.715L387.401 309.221L401.62 295.156ZM435.356 185.704C450.757 186.272 457.775 188.729 461.723 192.688C465.759 196.734 468.878 204.643 469.774 222.622L489.749 221.626C488.821 203.007 485.581 188.287 475.884 178.565C466.1 168.755 452.012 166.305 436.093 165.718L435.356 185.704ZM486.951 366.71C497.453 380.983 501.253 390.006 501.5 397.434C501.738 404.592 498.729 412.394 489.794 424.449L505.862 436.358C515.619 423.193 521.956 410.805 521.489 396.768C521.031 383.002 514.073 369.825 503.06 354.857L486.951 366.71ZM179.134 427.372C181.854 444.038 185.908 457.471 194.843 467.148C203.989 477.052 216.715 481.42 232.693 483.806L235.647 464.026C221.248 461.875 214.051 458.467 209.537 453.579C204.813 448.464 201.474 440.089 198.873 424.152L179.134 427.372ZM144.072 426.957C147.437 454.919 153.083 476.731 167.213 492.32C181.512 508.093 202.821 515.72 232.824 519.795L235.516 499.977C206.957 496.098 191.512 489.346 182.032 478.888C172.383 468.244 167.226 451.971 163.928 424.567L144.072 426.957Z" fill="#013845"/>
</svg>
