<svg width="709" height="676" viewBox="0 0 709 676" fill="none" xmlns="http://www.w3.org/2000/svg">
<path fill-rule="evenodd" clip-rule="evenodd" d="M705.981 353.135C706.987 347.972 707.991 342.816 709 337.673C709 132.83 505.198 -36.0088 305.632 6.64374C100.576 6.64374 26.2393 139.54 2.10585 337.673C-19.2391 512.913 123.702 686.618 339.048 665.92C634.114 722.097 670.903 533.227 705.981 353.135ZM169.947 205.206C150.368 232.704 141.954 257.352 143.103 282.245C144.239 306.859 154.686 330.248 169.672 355.226C177.568 368.387 193.288 387.649 211.809 408.648C230.504 429.844 252.6 453.414 273.711 475.383C294.834 497.362 315.025 517.796 329.933 532.731C337.388 540.2 343.525 546.298 347.8 550.53C349.938 552.646 351.61 554.296 352.749 555.418C353.319 555.979 353.755 556.408 354.049 556.697L354.384 557.026L354.469 557.11L354.491 557.131L354.497 557.137C354.497 557.137 354.498 557.137 354.675 556.957L357.222 559.202H361H362.5H366.575L369.49 556.354L362.5 549.202C369.49 556.354 369.49 556.353 369.492 556.352L369.497 556.346L369.519 556.325L369.605 556.241L369.94 555.913C370.235 555.625 370.672 555.196 371.242 554.637C372.383 553.517 374.057 551.87 376.198 549.759C380.479 545.536 386.624 539.451 394.089 531.998C409.017 517.094 429.235 496.703 450.386 474.769C471.526 452.846 493.651 429.325 512.371 408.174C530.917 387.219 546.659 367.996 554.567 354.86C569.574 329.934 580.04 306.587 581.178 282.011C582.329 257.153 573.898 232.547 554.292 205.105C549.689 197.927 540.982 189.197 529.75 181.389C518.232 173.381 503.433 165.902 486.423 161.939C451.768 153.866 409.267 160.744 368.729 203.838L368.716 203.851L368.697 203.871C368.667 203.903 368.627 203.945 368.579 203.997C368.481 204.101 368.348 204.245 368.182 204.426C367.852 204.788 367.391 205.3 366.834 205.94C365.722 207.217 364.204 209.028 362.546 211.204C362.356 211.453 362.163 211.709 361.967 211.971C361.801 211.749 361.637 211.531 361.476 211.319C359.82 209.139 358.305 207.324 357.195 206.044C356.638 205.402 356.178 204.89 355.848 204.527C355.682 204.346 355.549 204.202 355.452 204.097L355.381 204.021L355.334 203.971L355.315 203.951L355.302 203.937C314.818 160.754 272.362 153.852 237.734 161.946C220.741 165.919 205.958 173.416 194.454 181.441C183.236 189.267 174.541 198.015 169.947 205.206ZM362.152 535.521L361.609 536.057C357.371 531.861 351.36 525.888 344.088 518.602C329.239 503.725 309.141 483.386 288.132 461.525C267.113 439.652 245.236 416.311 226.809 395.419C208.208 374.33 193.656 356.326 186.822 344.936C172.348 320.812 163.985 300.904 163.082 281.323C162.194 262.089 168.462 241.71 186.386 216.6L186.558 216.36L186.715 216.11C189.406 211.825 195.96 204.776 205.897 197.844C215.686 191.016 228.164 184.723 242.286 181.421C269.885 174.97 305.069 179.59 340.723 217.628L340.744 217.651L340.757 217.664L340.76 217.667L340.762 217.67L340.762 217.67L340.764 217.672L340.812 217.724C340.863 217.778 340.948 217.871 341.064 217.998C341.296 218.252 341.647 218.643 342.089 219.152C342.976 220.174 344.207 221.648 345.547 223.413C348.333 227.082 351.157 231.448 352.651 235.383L362.345 260.916L371.431 235.16L371.734 234.301C373.297 230.639 375.891 226.689 378.454 223.325C379.797 221.564 381.029 220.094 381.917 219.074C382.359 218.566 382.711 218.175 382.943 217.922C382.992 217.868 383.035 217.821 383.073 217.78C383.125 217.724 383.166 217.68 383.195 217.649L383.243 217.597L383.245 217.595L383.246 217.595L383.248 217.592L383.251 217.59L383.263 217.576L383.285 217.554C418.986 179.595 454.23 174.975 481.885 181.418C496.032 184.713 508.531 190.995 518.334 197.81C528.286 204.729 534.848 211.763 537.541 216.035L537.699 216.285L537.871 216.526C555.818 241.582 562.087 261.908 561.199 281.086C560.295 300.612 551.927 320.47 537.433 344.545C530.591 355.909 516.021 373.874 497.395 394.919C478.943 415.767 457.037 439.059 435.989 460.886C414.952 482.702 394.827 502.999 379.958 517.844C372.525 525.266 366.408 531.322 362.152 535.521Z" fill="#013845"/>
</svg>
