<svg width="709" height="676" viewBox="0 0 709 676" fill="none" xmlns="http://www.w3.org/2000/svg">
<path fill-rule="evenodd" clip-rule="evenodd" d="M705.981 353.135C706.987 347.972 707.991 342.816 709 337.673C709 132.83 505.198 -36.0087 305.632 6.64387C100.576 6.64387 26.2393 139.54 2.10586 337.673C-19.2391 512.913 123.702 686.618 339.048 665.92C634.114 722.097 670.903 533.227 705.981 353.135ZM363.373 111.486C357.931 106.068 349.141 106.045 343.671 111.434L299.5 154.946V148.5C299.5 140.768 293.232 134.5 285.5 134.5H200C192.268 134.5 186 140.768 186 148.5V265.777L122.236 332.313C113.705 341.215 120.014 356 132.343 356H177V554.501C177 562.233 183.268 568.501 191 568.501H297.5C305.232 568.501 311.5 562.233 311.5 554.501V545.301C322.244 552.305 333.947 559.376 346.61 566.54C350.849 568.938 356.035 568.961 360.297 566.597C372.86 559.627 384.423 552.61 395 545.545V554.501C395 562.233 401.268 568.501 409 568.501H512C519.732 568.501 526 562.233 526 554.501V356H572H575.078C587.566 356 593.805 340.889 584.955 332.078L363.373 111.486ZM228.805 464.017C239.27 485.77 258.495 506.485 285.5 527.054V542.501H203V344C203 336.268 196.732 330 189 330H160.464L208.108 280.285C210.606 277.679 212 274.208 212 270.598V160.5H273.5V183.611C273.5 196.033 288.475 202.302 297.325 193.585L353.451 138.296L546.016 330H514C506.268 330 500 336.268 500 344V542.501H421V526.483C445.828 506.347 463.341 485.475 473.175 463.721C483.803 440.21 485.151 416.314 477.932 392.7C460.218 334.759 392.409 321.18 354.427 358.554C334.559 342.09 310.8 335.046 288.11 338.61C261.383 342.807 238.315 361.392 226.399 391.751C216.836 416.112 217.366 440.241 228.805 464.017ZM366.84 383.958C389.412 352.047 440.137 358.006 453.068 400.302C458.436 417.862 457.513 435.248 449.483 453.011C441.31 471.09 425.48 490.163 400.025 509.938C386.99 520.064 371.551 530.28 353.55 540.559C335.376 530.063 319.627 519.924 306.192 510.062C277.958 489.338 260.731 470.407 252.235 452.746C244.039 435.709 243.587 419.118 250.601 401.251C259.525 378.516 275.519 366.906 292.144 364.295C308.989 361.649 328.665 367.913 345.157 385.466C351.267 391.969 361.751 391.153 366.84 383.958Z" fill="#013845"/>
</svg>
