<svg width="32" height="32" viewBox="0 0 32 32" fill="none" xmlns="http://www.w3.org/2000/svg">
<path fill-rule="evenodd" clip-rule="evenodd" d="M15.9908 0.730469C7.46164 0.730469 0.547363 7.64475 0.547363 16.1739C0.547363 24.7031 7.46164 31.6174 15.9908 31.6174C24.52 31.6174 31.4343 24.7031 31.4343 16.1739C31.4343 12.4546 30.1195 9.04233 27.9293 6.37661C27.9771 6.21892 28.0028 6.05165 28.0028 5.87837C28.0028 4.93068 27.2345 4.16242 26.2868 4.16242C26.1136 4.16242 25.9463 4.18811 25.7887 4.23586C23.1229 2.04544 19.7104 0.730469 15.9908 0.730469ZM25.7887 4.23586C25.0839 4.44933 24.5709 5.10393 24.5709 5.87837C24.5709 6.82605 25.3391 7.59431 26.2868 7.59431C27.0612 7.59431 27.7158 7.08131 27.9293 6.37661C27.2873 5.59519 26.57 4.87792 25.7887 4.23586ZM23.7128 16.4957C23.7128 20.5826 20.3997 23.8957 16.3128 23.8957C12.2259 23.8957 8.91281 20.5826 8.91281 16.4957C8.91281 12.4087 12.2259 9.09565 16.3128 9.09565C20.3997 9.09565 23.7128 12.4087 23.7128 16.4957Z" fill="#2CA6AE"/>
</svg>
