<svg width="43" height="40" viewBox="0 0 43 40" fill="none" xmlns="http://www.w3.org/2000/svg">
<path fill-rule="evenodd" clip-rule="evenodd" d="M17 0.0493164C7.61116 0.0493164 0 7.66047 0 17.0493V22.2352C0 31.624 7.61116 39.2352 17 39.2352H25.9117C35.3006 39.2352 42.9117 31.624 42.9117 22.2352V17.0493C42.9117 7.66048 35.3006 0.0493164 25.9117 0.0493164H17ZM38.1444 6.5806C38.1444 7.78292 37.0771 8.75759 35.7604 8.75759C34.4438 8.75759 33.3765 7.78292 33.3765 6.5806C33.3765 5.37828 34.4438 4.4036 35.7604 4.4036C37.0771 4.4036 38.1444 5.37828 38.1444 6.5806ZM32.1839 20.0506C32.1839 25.2356 27.581 29.4389 21.903 29.4389C16.225 29.4389 11.6221 25.2356 11.6221 20.0506C11.6221 14.8656 16.225 10.6623 21.903 10.6623C27.581 10.6623 32.1839 14.8656 32.1839 20.0506Z" fill="#013845"/>
</svg>
