<svg width="709" height="676" viewBox="0 0 709 676" fill="none" xmlns="http://www.w3.org/2000/svg">
<path fill-rule="evenodd" clip-rule="evenodd" d="M705.981 353.135C706.987 347.972 707.991 342.816 709 337.673C709 132.83 505.198 -36.0088 305.632 6.64374C100.576 6.64374 26.2393 139.54 2.10585 337.673C-19.2391 512.913 123.702 686.618 339.048 665.92C634.114 722.097 670.903 533.227 705.981 353.135ZM420.716 158.241C420.716 197.034 391.751 228.482 356.02 228.482C320.29 228.482 291.325 197.034 291.325 158.241C291.325 119.448 320.29 88 356.02 88C391.751 88 420.716 119.448 420.716 158.241ZM478.019 292.07C451.031 237.725 279.495 229.591 235.872 287.264C224.824 301.87 222.723 333.57 220.676 364.464L220.676 364.466C219.811 377.528 218.955 390.447 217.436 401.869C217.403 402.117 217.349 402.365 217.278 402.605C210.527 425.355 198.312 429.808 179.108 436.809L179.104 436.81C176.265 437.845 173.274 438.936 170.125 440.149C169.843 440.258 169.56 440.398 169.304 440.559C148.903 453.465 155.654 479.401 176.501 482.382C176.887 482.437 177.282 482.438 177.67 482.392C215.719 477.814 261.4 449.804 265.446 425.527L265.685 423.811C269.73 394.695 273.331 368.78 279.495 359.353C288.149 390.003 282.435 434.627 266.66 480.809C265.949 482.89 263.93 484.242 261.732 484.161C213.871 482.398 196.881 486.965 176.721 499.835C153.06 514.623 148.624 550.483 176.721 570.076C206.296 595.585 310.549 590.04 352.324 570.076C339.337 564.676 326.261 557.129 313.561 549.799C289.749 536.055 267.263 523.077 249.18 526.453C261.156 516.534 283.288 522.964 343.452 550.483C416.095 588.095 513.014 611.363 550.195 550.948C550.381 550.644 550.543 550.295 550.657 549.957C569.995 492.383 496.379 482.829 455.468 482.829C429.22 480.611 421.087 375.989 432.177 357.874C439.276 372.891 441.003 388.113 443.005 405.766L443.005 405.769C443.699 411.879 444.425 418.281 445.418 425.067C445.463 425.371 445.534 425.67 445.638 425.961C454.544 450.971 489.492 476.052 530.49 482.765C530.752 482.808 531.029 482.83 531.294 482.827C558.773 482.493 558.541 448.55 543.424 440.852C543.2 440.738 542.957 440.646 542.716 440.573C506.297 429.527 493.885 419.232 492.806 391.146C490.588 317.578 481.716 297.984 478.019 292.07Z" fill="#013845"/>
</svg>
