<svg width="709" height="676" viewBox="0 0 709 676" fill="none" xmlns="http://www.w3.org/2000/svg">
<path fill-rule="evenodd" clip-rule="evenodd" d="M705.981 353.135C706.987 347.972 707.991 342.816 709 337.673C709 132.83 505.198 -36.0088 305.632 6.64374C100.576 6.64374 26.2393 139.54 2.10585 337.673C-19.2391 512.913 123.702 686.618 339.048 665.92C634.114 722.097 670.903 533.227 705.981 353.135ZM282.5 124.5H280.508L278.779 125.488L234.451 150.818L199.283 156.599L195.734 157.183L193.967 160.316L167.623 207.04C166.762 208.567 166.394 210.323 166.57 212.067L173.515 281.028C173.641 282.278 174.043 283.485 174.691 284.561L213.164 348.456L216.495 378.866C216.762 381.3 218.065 383.5 220.07 384.904L226.5 389.405V411.5H224.927C220.482 411.5 216.788 414.924 216.451 419.356L207.103 542.356C206.728 547.29 210.631 551.5 215.579 551.5H270H282.5H309.5H496.382C501.451 551.5 505.393 547.092 504.829 542.054L491.053 419.054C490.571 414.752 486.934 411.5 482.606 411.5H481.5V388.389L488.847 380.269C490.035 378.956 490.783 377.306 490.987 375.547L494.117 348.594L535.168 284.775C535.949 283.561 536.408 282.167 536.501 280.726L540.966 211.773C541.069 210.174 540.719 208.578 539.955 207.17L514.592 160.423L512.867 157.243L509.303 156.614L476.644 150.851L433.816 125.543L432.05 124.5H430H282.5ZM208.729 170.248L233.143 166.235L317.741 310.021L278.187 378H236.364L231.085 374.305L227.895 345.183L208.729 170.248ZM345.874 261.67L326.394 295.149L247.316 160.743L279.627 142.28L304.518 187.139L345.874 261.67ZM315.492 176L295.239 139.5H416.959L395.721 176H315.492ZM463.745 160.652L432.685 142.298L406.517 187.272L360.983 265.53L332.913 313.772L295.541 378H323.632C324.34 374.021 327.817 371 332 371H340.207L463.745 160.652ZM282.5 393H323.5V411.5H285.5H277H241.5V393H282.5ZM285.5 426.5H320.233L290.649 506.55C288.236 513.079 294.264 519.582 300.957 517.67L337.02 507.366C339.872 506.551 342.093 504.309 342.88 501.449L353.988 461.108L363.569 501.172C364.287 504.176 366.579 506.554 369.555 507.383L406.637 517.71C413.263 519.555 419.223 513.175 416.932 506.69L388.604 426.5H474H476.793L489.113 536.5H309.5H282.5H277.932L284.092 426.5H285.5ZM377.267 493.96L364.005 438.5H376.934L398.628 499.908L377.267 493.96ZM385.5 393V411.5H466.5V393H385.5ZM476.327 371.749L470.672 378H385.368C384.66 374.021 381.183 371 377 371H357.603L477.828 166.291L499.735 170.157L479.417 345.135L476.327 371.749ZM525.876 212.675L512.715 188.418L498.045 314.759L521.641 278.077L525.876 212.675ZM370.5 419V423.5H354.5H338.5V419V386H344.5H370.5V419ZM309.163 499.725L331.79 438.497C331.842 438.499 331.895 438.5 331.947 438.5C331.965 438.5 331.982 438.5 332 438.5H344.656L329.388 493.946L309.163 499.725ZM269.068 426.5L262.908 536.5H222.592L230.952 426.5H234H269.068ZM323.815 191H386.993L354.655 246.579L323.815 191ZM209.269 312.909L195.583 187.99L181.7 212.613L188.294 278.073L209.269 312.909Z" fill="#013845"/>
</svg>
