<svg width="709" height="676" viewBox="0 0 709 676" fill="none" xmlns="http://www.w3.org/2000/svg">
<path fill-rule="evenodd" clip-rule="evenodd" d="M705.981 353.135C706.987 347.972 707.991 342.816 709 337.673C709 132.83 505.198 -36.0088 305.632 6.64374C100.576 6.64374 26.2393 139.54 2.10585 337.673C-19.2391 512.913 123.702 686.618 339.048 665.92C634.114 722.097 670.903 533.227 705.981 353.135ZM422.215 149.892L411.641 139.318L452.888 98.0711L463.462 108.645L455.731 116.375L430.035 142.071L422.215 149.892ZM430.068 163.318L429.319 164.067C425.414 167.972 419.082 167.972 415.177 164.067L397.499 146.389C393.594 142.484 393.594 136.152 397.499 132.247L445.817 83.9289C449.722 80.0237 456.054 80.0237 459.959 83.9289L477.637 101.607C481.542 105.512 481.542 111.843 477.637 115.749L476.978 116.408L574.973 214.404C587.927 227.357 587.927 248.36 574.973 261.313C562.019 274.267 541.017 274.267 528.063 261.313L479.135 212.385C478.197 212.032 477.318 211.478 476.563 210.724C475.808 209.969 475.254 209.089 474.901 208.151L430.068 163.318ZM448.821 160.858L463.99 176.027L469.023 170.994C471.859 168.158 476.457 168.158 479.293 170.994C482.129 173.83 482.129 178.428 479.293 181.264L474.26 186.297L482.49 194.527L487.023 189.994C489.859 187.158 494.457 187.158 497.293 189.994C500.129 192.83 500.129 197.428 497.293 200.264L492.76 204.797L502.99 215.027L508.023 209.994C510.859 207.158 515.457 207.158 518.293 209.994C521.129 212.83 521.129 217.428 518.293 220.264L513.26 225.297L523.99 236.027L529.023 230.994C531.859 228.158 536.457 228.158 539.293 230.994C542.129 233.83 542.129 238.428 539.293 241.264L534.26 246.297L538.67 250.707C545.766 257.803 557.271 257.803 564.367 250.707C571.462 243.611 571.462 232.106 564.367 225.01L499.008 159.652C497.834 160.415 496.433 160.858 494.928 160.858H448.821ZM485.214 145.858L466.371 127.015L447.527 145.858H485.214ZM251.571 104.058C246.686 99.1984 238.79 99.208 233.917 104.079L105.663 232.295C100.779 237.177 100.779 245.093 105.663 249.975L177.337 321.628C182.219 326.508 190.131 326.508 195.012 321.628L200.596 316.047L201.27 315.545L201.41 315.685L202.78 314.328L299.24 218.778L330.857 208.705C339.794 205.858 342.528 194.548 335.879 187.933L251.571 104.058ZM289.111 207.698L278.349 218.358H140.82L178.578 180.611C178.628 180.664 178.679 180.717 178.731 180.768L190.045 192.082C192.974 195.011 197.723 195.011 200.652 192.082C203.581 189.153 203.581 184.404 200.652 181.476L189.338 170.162C189.287 170.111 189.235 170.06 189.182 170.011L199.342 159.854C199.691 160.544 200.155 161.192 200.731 161.768L212.045 173.082C214.974 176.011 219.723 176.011 222.652 173.082C225.581 170.153 225.581 165.404 222.652 162.476L211.338 151.162C210.762 150.586 210.115 150.123 209.426 149.773L219.585 139.618C219.633 139.668 219.682 139.719 219.731 139.768L231.045 151.082C233.974 154.011 238.723 154.011 241.652 151.082C244.581 148.153 244.581 143.404 241.652 140.476L230.338 129.162C230.289 129.113 230.239 129.064 230.189 129.017L242.759 116.45L322.38 195.663L294.114 204.668C292.23 205.268 290.516 206.307 289.111 207.698ZM125.815 233.358H263.207L192.599 303.3L191.491 304.124C191.006 304.486 190.547 304.882 190.119 305.31L186.175 309.253L118.036 241.135L125.815 233.358ZM382.626 157.141C386.145 150.091 396.222 150.141 399.669 157.226L414.529 187.766C415.549 189.864 416.074 192.442 415.597 195.14C413.225 208.547 403.153 216.936 391.875 217.343C380.364 217.758 369.809 209.854 366.471 195.736C365.776 192.797 366.281 189.896 367.46 187.532L382.626 157.141ZM391.064 173.825L381.338 193.316C383.394 200.495 387.988 202.473 391.335 202.353C394.892 202.224 399.173 199.705 400.63 193.485L391.064 173.825ZM351.445 213.213C347.995 206.136 337.929 206.086 334.408 213.127L316.965 248.013C315.775 250.394 315.289 253.286 315.959 256.191C319.573 271.864 331.171 280.491 343.71 280.04C356.011 279.599 367.075 270.42 369.608 255.591C370.062 252.928 369.555 250.361 368.524 248.247L351.445 213.213ZM330.828 253.829L342.843 229.799L354.641 254C352.983 261.627 347.72 264.887 343.171 265.05C338.839 265.206 333.2 262.566 330.828 253.829ZM315.428 318.858V300.858H405.428V318.858H315.428ZM300.428 295.858C300.428 290.335 304.905 285.858 310.428 285.858H410.428C415.951 285.858 420.428 290.335 420.428 295.858V323.858C420.428 329.381 415.951 333.858 410.428 333.858H407.928V382.638C407.928 383.527 408.454 384.535 409.526 385.113C443.8 403.599 466.046 430.542 474.986 461.994C483.224 490.978 479.96 523.069 465.453 554.858H496.428C499.189 554.858 501.428 557.097 501.428 559.858V589.858C501.428 592.62 499.189 594.858 496.428 594.858H226.428C223.666 594.858 221.428 592.62 221.428 589.858V559.858C221.428 557.097 223.666 554.858 226.428 554.858H255.896C241.39 523.069 238.126 490.978 246.364 461.994C255.303 430.542 277.549 403.599 311.824 385.113C312.895 384.535 313.422 383.527 313.422 382.638V333.858H310.428C304.905 333.858 300.428 329.381 300.428 323.858V295.858ZM328.422 333.858V382.638C328.422 389.366 324.577 395.277 318.944 398.315C287.747 415.142 268.481 439.042 260.792 466.095C253.174 492.898 256.687 523.625 272.543 554.858H291.878C277.918 536.349 271.436 521.388 269.763 500.662C269.166 493.265 275.116 487.358 282.133 487.358H371.611C376.17 480.431 384.015 475.858 392.928 475.858C401.841 475.858 409.686 480.431 414.244 487.358H440.722C447.74 487.358 453.69 493.265 453.093 500.662C451.42 521.388 444.938 536.349 430.978 554.858H448.806C464.662 523.625 468.175 492.898 460.557 466.095C452.868 439.042 433.603 415.142 402.405 398.315C396.773 395.277 392.928 389.366 392.928 382.638V333.858H328.422ZM284.989 502.358H367.447C367.972 515.978 379.18 526.858 392.928 526.858C406.676 526.858 417.883 515.978 418.409 502.358H437.867C435.858 520.784 429.104 534.004 411.831 554.858H311.025C293.752 534.004 286.998 520.784 284.989 502.358ZM236.428 569.858V579.858H486.428V569.858H236.428ZM326.428 460.858C332.503 460.858 337.428 455.933 337.428 449.858C337.428 443.783 332.503 438.858 326.428 438.858C320.353 438.858 315.428 443.783 315.428 449.858C315.428 455.933 320.353 460.858 326.428 460.858ZM326.428 475.858C340.787 475.858 352.428 464.218 352.428 449.858C352.428 435.499 340.787 423.858 326.428 423.858C312.068 423.858 300.428 435.499 300.428 449.858C300.428 464.218 312.068 475.858 326.428 475.858ZM399.428 435.858C399.428 438.62 397.189 440.858 394.428 440.858C391.666 440.858 389.428 438.62 389.428 435.858C389.428 433.097 391.666 430.858 394.428 430.858C397.189 430.858 399.428 433.097 399.428 435.858ZM414.428 435.858C414.428 446.904 405.474 455.858 394.428 455.858C383.382 455.858 374.428 446.904 374.428 435.858C374.428 424.812 383.382 415.858 394.428 415.858C405.474 415.858 414.428 424.812 414.428 435.858ZM392.928 511.858C398.727 511.858 403.428 507.157 403.428 501.358C403.428 495.559 398.727 490.858 392.928 490.858C387.129 490.858 382.428 495.559 382.428 501.358C382.428 507.157 387.129 511.858 392.928 511.858Z" fill="#013845"/>
</svg>
