<svg width="1351" height="468" viewBox="0 0 1351 468" fill="none" xmlns="http://www.w3.org/2000/svg">
<ellipse cx="199.5" cy="357.5" rx="135.5" ry="89.5" fill="#EA8B09"/>
<ellipse cx="198.5" cy="335.5" rx="115.5" ry="89.5" fill="#FDB817"/>
<path d="M348.919 246.5H48.1269C47.5275 246.5 47.0627 245.976 47.134 245.381L56.9619 163.318C56.9867 163.111 56.9462 162.902 56.8461 162.719L35.0555 122.927C34.6433 122.175 35.3083 121.287 36.1465 121.47L86.1806 132.43C86.3881 132.475 86.6047 132.454 86.7991 132.368L112.307 121.085C112.434 121.029 112.572 121 112.711 121H199L260.251 113.53C260.415 113.51 260.58 113.531 260.734 113.591L300.209 128.887C300.398 128.961 300.606 128.975 300.804 128.927L362.651 114.065C363.517 113.856 364.203 114.8 363.737 115.56L332.964 165.744C332.699 166.175 332.799 166.736 333.195 167.051L344.158 175.729C344.376 175.902 344.512 176.158 344.534 176.435L349.916 245.422C349.961 246.003 349.502 246.5 348.919 246.5Z" fill="#3AE7C9"/>
<path d="M315.861 313.036L345.609 250.132C345.83 249.664 345.644 249.096 345.197 248.835C225.457 178.733 159.384 178.068 44.8736 248.765C44.4004 249.057 44.2428 249.689 44.5403 250.159L84.4383 313.18C84.7275 313.637 85.3406 313.773 85.8063 313.498C171.036 263.213 221.389 262.085 314.456 313.475C314.962 313.754 315.614 313.558 315.861 313.036Z" fill="#FF4862"/>
<path fill-rule="evenodd" clip-rule="evenodd" d="M304.027 326.294L322.768 404.621C322.984 405.521 324.2 405.671 324.628 404.851L353.778 348.94C353.852 348.798 353.891 348.639 353.891 348.478V282.002C353.891 281.131 352.855 280.676 352.214 281.266L304.323 325.326C304.056 325.571 303.943 325.942 304.027 326.294Z" fill="#FF4862"/>
<path fill-rule="evenodd" clip-rule="evenodd" d="M89.8634 326.294L71.1225 404.621C70.9073 405.521 69.6909 405.671 69.2633 404.851L40.1133 348.94C40.0389 348.798 40 348.639 40 348.478V282.002C40 281.131 41.0361 280.676 41.6771 281.266L89.5679 325.326C89.8347 325.571 89.9477 325.942 89.8634 326.294Z" fill="#FF4862"/>
<path d="M198 120V19V7L381 78L329 98.5L287 87.5V119L198 120Z" fill="#BCBAB8"/>
<path d="M200 123V22V10L17 81L69 101.5L111 90.5V122L200 123Z" fill="#93928E"/>
<path fill-rule="evenodd" clip-rule="evenodd" d="M47.7741 265.091L40.3626 262.824C38.9728 266.765 37.7551 270.749 36.7103 274.765C36.0772 277.198 35.5076 279.644 35.0017 282.099C31.3801 299.675 31.0229 317.751 33.9994 335.531C38.0778 359.895 48.2992 383.011 63.8253 402.984C79.3514 422.956 99.7399 439.217 123.319 450.432C146.897 461.646 172.995 467.496 199.47 467.5C225.946 467.505 252.045 461.664 275.628 450.457C299.211 439.25 319.606 422.996 335.14 403.029C350.673 383.061 360.904 359.948 364.991 335.586C367.975 317.807 367.624 299.731 364.01 282.154C363.504 279.694 362.934 277.245 362.301 274.807C361.258 270.795 360.043 266.815 358.656 262.877L348.411 266.007L343.193 288.514L344.785 288.027C347.56 302.622 347.735 317.569 345.267 332.277C341.742 353.287 332.902 373.332 319.354 390.748C305.799 408.172 287.902 422.481 267.044 432.393C246.183 442.306 223.021 447.504 199.473 447.5C175.926 447.496 152.766 442.291 131.909 432.37C111.055 422.452 93.1635 408.137 79.6155 390.709C66.0738 373.289 57.2422 353.241 53.7249 332.229C51.2626 317.52 51.443 302.573 54.2246 287.979L55.7849 288.456L47.7741 265.091Z" fill="#013845"/>
<path fill-rule="evenodd" clip-rule="evenodd" d="M112.884 314.554L110.344 331.976C103.707 330.632 97.252 328.416 91.0924 325.392C82.0647 320.961 73.6719 314.794 66.2724 307.095C53.8243 294.143 44.678 277.364 39.8565 258.636C35.035 239.907 34.7284 219.966 38.9709 201.044C41.6067 189.287 45.9341 178.211 51.7216 168.277C51.8622 168.036 52.0036 167.795 52.1459 167.555L65 185L65.1556 185.715C62.3028 191.848 60.0474 198.457 58.4864 205.419C54.9343 221.262 55.1948 237.994 59.225 253.649C63.2559 269.307 70.8114 282.955 80.6923 293.236C84.6688 297.374 88.9449 300.89 93.4245 303.773L93.5 304L95.5 305.5L97.5 307L100.5 309L105 311.5L111.5 314L112.884 314.554Z" fill="#013845"/>
<path fill-rule="evenodd" clip-rule="evenodd" d="M287 314.498L289.54 331.921C296.177 330.577 302.632 328.361 308.791 325.337C317.819 320.905 326.212 314.739 333.611 307.04C346.06 294.088 355.206 277.309 360.027 258.58C364.849 239.852 365.155 219.911 360.913 200.988C358.277 189.232 353.95 178.156 348.162 168.222C348.022 167.981 347.88 167.74 347.738 167.5L334.884 184.945L334.728 185.66C337.581 191.793 339.836 198.401 341.397 205.364C344.949 221.207 344.689 237.939 340.659 253.594C336.628 269.252 329.072 282.9 319.191 293.181C315.215 297.318 310.939 300.835 306.459 303.718L306.384 303.945L304.384 305.445L302.384 306.945L299.384 308.945L294.884 311.445L288.384 313.945L287 314.498Z" fill="#013845"/>
<path d="M315 310C280.658 338.226 241.103 317.936 206.5 366.484M199.5 376.5C201.658 372.863 204.325 369.535 206.5 366.484M199.5 376.5L206.5 366.484M199.5 376.5L192 366" stroke="#013845" stroke-width="20"/>
<path d="M87 311.5C121.342 339.726 157.897 317.936 192.5 366.484M199.5 376.5C197.342 372.863 194.675 369.535 192.5 366.484M199.5 376.5L192.5 366.484M199.5 376.5L207 366" stroke="#013845" stroke-width="20"/>
<path d="M325.383 401C306.242 369.674 302.48 350.554 306.383 314.5" stroke="#013845" stroke-width="20"/>
<path d="M74 401C93.1414 369.674 96.9033 350.554 93 314.5" stroke="#013845" stroke-width="20"/>
<path d="M346 189C348.5 188.5 340.748 175.275 332 168C348.935 154.175 355.286 145.721 361.5 129.5" stroke="#013845" stroke-width="20"/>
<path d="M199.5 220C227.5 141.5 298.123 139.776 361 118.5" stroke="#013845" stroke-width="20"/>
<path d="M361.813 120.375C361.711 120.35 361.375 119.731 361.326 119.611C361.246 119.413 361.203 119.194 361.111 119C360.933 118.623 360.827 118.155 360.813 117.736C360.786 116.967 360.723 116.323 360.326 115.688C360.17 115.437 360.145 115.202 360.049 114.924C359.902 114.501 359.875 114.312 359.549 113.986C359.032 113.47 358.563 112.744 358.563 112C358.563 111.735 358.432 111.259 358.264 111.049C358.048 110.778 358.19 110.562 358.438 110.451C358.669 110.349 359.008 110.264 359.25 110.25C359.39 110.242 359.843 110.101 359.951 110.014C360.04 109.943 360.226 109.97 360.326 109.889C360.377 109.849 360.563 109.757 360.625 109.75C360.857 109.723 361.225 109.593 361.438 109.486C361.677 109.367 361.937 109.348 362.188 109.236C362.32 109.177 362.766 109.052 362.809 108.903C362.84 108.794 363.101 108.476 363.222 108.441C363.364 108.401 363.859 108.254 363.938 108.156C364.019 108.054 364.456 107.91 364.59 107.872C364.796 107.813 365.022 107.611 365.215 107.5C365.624 107.267 366.259 107.036 366.563 106.656C366.692 106.494 366.801 106.259 366.969 106.125C367.161 105.971 367.157 105.65 367.344 105.5C367.527 105.353 367.793 105.212 367.938 105.031C368.079 104.854 368.558 104.818 368.688 104.656C368.768 104.556 369.388 104.563 369.531 104.563C369.796 104.563 370.056 104.625 370.344 104.625C370.602 104.625 370.895 104.591 371.094 104.75C371.287 104.905 371.359 105.147 371.469 105.344C371.604 105.588 371.638 105.841 371.75 106.094C371.787 106.177 371.931 106.326 371.931 106.406C371.931 106.451 371.596 106.559 371.549 106.576C370.641 106.913 369.745 106.949 368.938 107.549C368.46 107.903 367.951 108.22 367.451 108.535C366.508 109.129 365.655 109.864 364.785 110.563C363.936 111.244 362.79 111.379 362 112.125C361.364 112.725 361.313 113.555 361.313 114.389C361.313 115.703 361.212 117.081 361.361 118.389C361.517 119.757 361.518 121.078 361.326 122.438C361.243 123.027 361.083 123.611 361.063 124.201C361.04 124.857 360.859 125.623 361.049 126.264C361.162 126.647 361.038 127.131 361.201 127.5C361.325 127.779 361.303 127.943 361.549 128.139C361.854 128.384 362.266 128.466 362.625 128.594C363.532 128.918 364.469 129.24 365.344 129.691C366.035 130.048 366.758 130.109 367.406 130.469C367.861 130.721 368.419 130.803 368.903 130.941C369.107 130.999 368.842 132.489 369.438 132.174C369.612 132.081 369.615 131.551 369.625 131.375C369.637 131.164 369.679 130.754 369.764 130.563C369.867 130.331 369.924 129.94 369.938 129.688C369.953 129.405 370.047 129.135 370.063 128.875C370.078 128.611 370.341 128.35 370.375 128.063C370.405 127.81 370.563 127.523 370.563 127.25C370.563 126.729 370.875 126.2 370.875 125.656C370.875 125.443 371.002 125.071 371.066 124.847C371.106 124.707 371.229 124.217 371.344 124.125C371.466 124.027 371.585 123.509 371.622 123.344C371.68 123.082 371.875 122.806 371.875 122.531C371.875 122.224 372.063 121.912 372.063 121.594C372.063 121.295 372.25 120.986 372.25 120.719C372.25 120.534 372.387 120.225 372.441 120.035C372.51 119.794 372.625 119.542 372.625 119.281C372.625 118.698 372.938 118.103 372.938 117.531C372.938 117.283 373.123 117.004 373.188 116.747C373.301 116.292 373.357 115.877 373.528 115.438C373.609 115.229 373.644 115.003 373.684 114.785C373.71 114.644 373.813 114.471 373.813 114.344C373.813 114.018 374 113.704 374 113.375C374 113.082 374.031 112.689 374.066 112.375C374.112 111.96 374.021 111.319 374.174 110.938C374.283 110.665 374.188 110.17 374.188 109.875C374.188 109.559 374.2 109.24 374.188 108.924C374.176 108.616 374.061 108.197 373.924 107.938C373.758 107.625 373.446 107.423 373.264 107.125C372.965 106.636 372.196 106.165 372.125 105.563C372.066 105.057 371.151 105.04 370.813 104.889C370.242 104.635 369.531 104.978 368.951 105C368.662 105.011 368.149 105.149 367.875 105.264C367.54 105.405 367.262 105.604 367.076 105.938C366.815 106.408 366.532 106.986 366.389 107.5C365.997 108.912 365.396 110.293 364.847 111.653C363.906 113.987 362.97 116.326 361.993 118.646C361.332 120.215 360.708 121.779 360.361 123.451C360.241 124.03 360.116 124.605 360 125.184C359.921 125.581 359.755 126.085 359.826 126.493C359.853 126.648 360.793 126.145 360.913 126.087C361.116 125.989 361.284 125.82 361.444 125.667C362.034 125.102 362.589 124.502 363.111 123.875C363.701 123.168 364.387 122.44 364.833 121.629C365.173 121.011 365.399 120.326 365.715 119.695C366.226 118.673 366.799 117.684 367.233 116.625C367.467 116.052 367.57 115.436 367.701 114.833C367.796 114.399 367.938 113.956 367.938 113.507C367.938 113.285 367.681 113.873 367.59 114.076C367.133 115.103 366.644 116.168 366.385 117.267C366.019 118.823 365.982 120.431 365.941 122.021C365.919 122.897 365.973 123.806 366.094 124.674C366.223 125.603 366.046 126.601 366.219 127.531C366.268 127.799 366.089 128.482 366.497 128.191C367.677 127.348 368.615 126.033 369.222 124.733C369.826 123.442 370.438 121.849 370.438 120.403C370.438 119.523 370.48 118.632 370.434 117.754C370.342 116.002 370.47 114.238 370.781 112.507C370.894 111.879 370.938 111.235 370.938 110.597C370.938 110.224 371.076 109.871 371.122 109.504C371.139 109.36 371.213 109.266 371.125 109.156C370.979 108.974 370.387 109.248 370.25 109.316C369.636 109.623 368.937 110.074 368.594 110.684C368.466 110.912 368.257 111.115 368.094 111.316C367.807 111.669 367.593 112.077 367.313 112.438C366.764 113.143 366.251 113.97 365.813 114.75C365.545 115.225 365.23 115.67 364.962 116.146C364.596 116.796 364.393 117.504 364.125 118.195C363.936 118.68 363.766 119.239 363.628 119.743C363.524 120.125 363.321 120.463 363.222 120.844C362.867 122.213 362.474 123.974 363.111 125.313C363.264 125.634 363.318 126.063 363.75 126.063C364.259 126.063 364.604 126.025 365.111 125.875C366.306 125.523 366.809 124.148 367.215 123.07C367.713 121.749 368.123 120.42 368.451 119.049C368.623 118.332 368.788 117.578 369.139 116.924C369.65 115.971 370.075 114.91 370.389 113.875C370.502 113.502 370.525 113.126 370.611 112.75C370.691 112.401 370.746 111.679 370.375 111.514C370.086 111.386 369.569 111.738 369.361 111.889C368.979 112.168 368.268 112.859 368.25 113.361C368.241 113.608 368.219 113.896 368.264 114.139C368.314 114.408 368.399 114.391 368.632 114.236C369.105 113.921 369.455 113.414 369.806 112.976C370.376 112.263 370.772 111.571 371.458 110.976C371.558 110.889 371.82 110.584 371.965 110.604C372.033 110.614 372.005 111.152 371.997 111.229C371.805 113.044 371.451 114.778 370.906 116.535C370.695 117.215 370.508 117.902 370.24 118.563C369.817 119.602 369.549 120.657 369.215 121.719C368.822 122.971 368.556 124.264 368.34 125.556C368.153 126.679 367.746 127.757 367.25 128.75" stroke="#013845" stroke-width="3" stroke-linecap="round"/>
<path d="M360.875 111.875C360.37 111.875 359.921 111.886 359.437 111.993C359.114 112.065 359.861 112.125 360 112.125" stroke="#013845" stroke-width="3" stroke-linecap="round"/>
<path d="M365.25 127.5C364.97 127.749 364.757 128 364.375 128" stroke="#013845" stroke-width="3" stroke-linecap="round"/>
<path d="M53.2261 189.438C50.7261 188.938 58.4776 175.712 67.2261 168.438C50.2914 154.612 43.9397 146.158 37.7261 129.938" stroke="#013845" stroke-width="20"/>
<path d="M199.726 220.438C171.726 141.938 101.103 140.213 38.2261 118.938" stroke="#013845" stroke-width="20"/>
<path d="M37.4136 120.813C37.5151 120.787 37.8508 120.169 37.8997 120.049C37.9803 119.851 38.0233 119.631 38.1149 119.438C38.2935 119.061 38.3991 118.592 38.4136 118.174C38.4401 117.405 38.5027 116.76 38.8997 116.125C39.0564 115.874 39.0812 115.639 39.1774 115.361C39.3238 114.938 39.3513 114.75 39.6774 114.424C40.194 113.907 40.6636 113.181 40.6636 112.438C40.6636 112.173 40.7936 111.697 40.9622 111.486C41.1783 111.216 41.0363 110.999 40.7886 110.889C40.5572 110.786 40.2179 110.702 39.9761 110.688C39.8364 110.679 39.3834 110.538 39.2747 110.451C39.1865 110.381 39.0004 110.407 38.8997 110.326C38.8492 110.286 38.6634 110.195 38.6011 110.188C38.3695 110.16 38.0012 110.03 37.7886 109.924C37.5496 109.804 37.2893 109.785 37.0386 109.674C36.9063 109.615 36.4598 109.49 36.417 109.34C36.3858 109.231 36.1252 108.913 36.0038 108.879C35.8621 108.838 35.3669 108.692 35.2886 108.594C35.2067 108.492 34.7703 108.348 34.6358 108.309C34.4302 108.25 34.2042 108.048 34.0108 107.938C33.6025 107.704 32.9669 107.473 32.6636 107.094C32.5336 106.931 32.425 106.697 32.2573 106.563C32.0647 106.409 32.0693 106.087 31.8823 105.938C31.6991 105.791 31.4332 105.65 31.2886 105.469C31.147 105.292 30.6677 105.255 30.5386 105.094C30.458 104.993 29.8383 105 29.6948 105C29.4303 105 29.1699 105.063 28.8823 105.063C28.6237 105.063 28.3308 105.029 28.1323 105.188C27.9388 105.342 27.8668 105.584 27.7573 105.781C27.6217 106.025 27.5883 106.279 27.4761 106.531C27.4392 106.614 27.2955 106.763 27.2955 106.844C27.2955 106.889 27.6304 106.997 27.6774 107.014C28.5848 107.35 29.4811 107.386 30.2886 107.986C30.7661 108.341 31.275 108.658 31.7747 108.972C32.7183 109.566 33.5708 110.302 34.4413 111C35.2905 111.681 36.4358 111.816 37.2261 112.563C37.8616 113.163 37.9136 113.993 37.9136 114.826C37.9136 116.14 38.0139 117.519 37.8649 118.826C37.7091 120.194 37.7082 121.516 37.8997 122.875C37.9827 123.465 38.1432 124.048 38.1636 124.639C38.1862 125.295 38.3674 126.06 38.1774 126.701C38.064 127.084 38.1885 127.569 38.0247 127.938C37.9007 128.217 37.9228 128.38 37.6774 128.576C37.3717 128.821 36.96 128.903 36.6011 129.031C35.6945 129.355 34.7572 129.677 33.8823 130.129C33.1916 130.485 32.4677 130.546 31.8198 130.906C31.3656 131.159 30.8073 131.24 30.3233 131.379C30.1195 131.437 30.3839 132.926 29.7886 132.611C29.614 132.519 29.6108 131.989 29.6011 131.813C29.5893 131.601 29.547 131.191 29.4622 131C29.3593 130.769 29.3026 130.377 29.2886 130.125C29.2729 129.843 29.1788 129.572 29.1636 129.313C29.148 129.048 28.8848 128.787 28.8511 128.5C28.8214 128.248 28.6636 127.961 28.6636 127.688C28.6636 127.166 28.3511 126.637 28.3511 126.094C28.3511 125.88 28.2241 125.509 28.1601 125.285C28.1201 125.145 27.997 124.654 27.8823 124.563C27.7596 124.464 27.6412 123.946 27.6045 123.781C27.5463 123.519 27.3511 123.243 27.3511 122.969C27.3511 122.662 27.1636 122.35 27.1636 122.031C27.1636 121.732 26.9761 121.424 26.9761 121.156C26.9761 120.971 26.8393 120.662 26.7851 120.472C26.7164 120.232 26.6011 119.979 26.6011 119.719C26.6011 119.136 26.2886 118.541 26.2886 117.969C26.2886 117.721 26.1029 117.442 26.0386 117.184C25.9249 116.729 25.869 116.314 25.6983 115.875C25.6171 115.666 25.5817 115.44 25.542 115.222C25.5164 115.081 25.4136 114.908 25.4136 114.781C25.4136 114.455 25.2261 114.142 25.2261 113.813C25.2261 113.52 25.1949 113.126 25.1601 112.813C25.114 112.397 25.2049 111.756 25.0524 111.375C24.9433 111.102 25.0386 110.607 25.0386 110.313C25.0386 109.996 25.0264 109.677 25.0386 109.361C25.0504 109.053 25.1653 108.634 25.3024 108.375C25.4681 108.062 25.7802 107.86 25.9622 107.563C26.261 107.074 27.0302 106.602 27.1011 106C27.1606 105.494 28.0746 105.477 28.4136 105.326C28.9842 105.073 29.6946 105.415 30.2747 105.438C30.5639 105.449 31.0769 105.586 31.3511 105.701C31.686 105.843 31.9642 106.041 32.1497 106.375C32.4109 106.845 32.6943 107.423 32.8372 107.938C33.2292 109.349 33.8305 110.731 34.3788 112.09C35.3203 114.425 36.2559 116.764 37.233 119.083C37.8941 120.653 38.518 122.216 38.8649 123.889C38.9848 124.467 39.1102 125.043 39.2261 125.622C39.3053 126.018 39.4707 126.522 39.3997 126.931C39.3727 127.086 38.4332 126.582 38.3129 126.524C38.1096 126.427 37.9419 126.258 37.7816 126.104C37.1925 125.54 36.6374 124.939 36.1149 124.313C35.5252 123.606 34.8391 122.878 34.3927 122.066C34.0529 121.448 33.8267 120.764 33.5108 120.132C33.0001 119.111 32.427 118.121 31.9934 117.063C31.7586 116.489 31.6562 115.874 31.5247 115.271C31.4298 114.836 31.2886 114.393 31.2886 113.945C31.2886 113.722 31.5453 114.311 31.6358 114.514C32.0936 115.541 32.582 116.606 32.8406 117.705C33.2067 119.261 33.2443 120.869 33.2851 122.458C33.3075 123.334 33.2529 124.243 33.1323 125.111C33.0033 126.04 33.1796 127.038 33.0073 127.969C32.9577 128.237 33.137 128.92 32.7295 128.629C31.5488 127.785 30.6114 126.47 30.0038 125.17C29.4004 123.879 28.7886 122.287 28.7886 120.84C28.7886 119.96 28.7458 119.07 28.792 118.191C28.8842 116.439 28.7563 114.675 28.4448 112.945C28.3318 112.317 28.2886 111.673 28.2886 111.035C28.2886 110.661 28.1504 110.308 28.1045 109.941C28.0866 109.798 28.0134 109.703 28.1011 109.594C28.2469 109.412 28.8391 109.685 28.9761 109.754C29.5899 110.06 30.2891 110.511 30.6323 111.122C30.7605 111.349 30.9689 111.552 31.1323 111.754C31.4195 112.107 31.6329 112.514 31.9136 112.875C32.4619 113.58 32.9747 114.407 33.4136 115.188C33.6808 115.663 33.9966 116.108 34.2642 116.583C34.6301 117.234 34.8327 117.942 35.1011 118.632C35.2897 119.117 35.4601 119.677 35.5976 120.181C35.7017 120.563 35.9051 120.9 36.0038 121.281C36.3589 122.651 36.7523 124.412 36.1149 125.75C35.9619 126.071 35.9082 126.5 35.4761 126.5C34.9672 126.5 34.6221 126.462 34.1149 126.313C32.9203 125.96 32.4169 124.585 32.0108 123.507C31.5135 122.187 31.1028 120.857 30.7747 119.486C30.6032 118.77 30.4384 118.016 30.0872 117.361C29.5761 116.409 29.151 115.347 28.8372 114.313C28.7241 113.94 28.7009 113.564 28.6149 113.188C28.5351 112.838 28.4796 112.117 28.8511 111.951C29.1396 111.823 29.6576 112.175 29.8649 112.326C30.2473 112.606 30.9581 113.297 30.9761 113.799C30.9849 114.046 31.0074 114.334 30.9622 114.576C30.9121 114.846 30.8267 114.829 30.5941 114.674C30.1216 114.359 29.7709 113.851 29.4205 113.413C28.8499 112.7 28.4543 112.008 27.7677 111.413C27.668 111.327 27.4057 111.021 27.2608 111.042C27.1931 111.051 27.2214 111.59 27.2295 111.667C27.4206 113.482 27.7746 115.215 28.3198 116.972C28.5309 117.653 28.7178 118.34 28.9865 119C29.4092 120.039 29.6771 121.095 30.0108 122.156C30.4043 123.408 30.6705 124.701 30.8858 125.993C31.0731 127.117 31.4796 128.195 31.9761 129.188" stroke="#013845" stroke-width="3" stroke-linecap="round"/>
<path d="M38.3511 112.312C38.8558 112.312 39.3055 112.323 39.7886 112.431C40.1124 112.503 39.3646 112.562 39.2261 112.562" stroke="#013845" stroke-width="3" stroke-linecap="round"/>
<path d="M33.9761 127.938C34.2564 128.187 34.4693 128.438 34.8511 128.438" stroke="#013845" stroke-width="3" stroke-linecap="round"/>
<path d="M181.883 272.5L197.715 229.401L216.939 270.186L198.28 298.822L181.883 272.5Z" fill="#F66500"/>
<path d="M191.5 229.5C191.5 259.827 167.087 284.38 137.781 284.38C108.516 284.38 84.5 260.058 84.5 229.69C84.5 199.323 108.516 175 137.781 175C167.146 175 191.5 199.233 191.5 229.5Z" fill="white" stroke="#013845" stroke-width="15"/>
<path d="M312.626 229.69C312.626 260.058 288.61 284.38 259.344 284.38C230.018 284.38 205 259.306 205 229C205 198.911 229.801 175 259.344 175C288.61 175 312.626 199.323 312.626 229.69Z" fill="white" stroke="#013845" stroke-width="15"/>
<ellipse cx="144.566" cy="229.69" rx="20.6374" ry="21.1157" fill="#013845"/>
<ellipse cx="253.69" cy="229.69" rx="20.6374" ry="21.1157" fill="#013845"/>
<ellipse cx="152.482" cy="219.855" rx="7.0676" ry="7.23141" fill="#D9D9D9"/>
<ellipse cx="262.171" cy="219.855" rx="7.0676" ry="7.23141" fill="#D9D9D9"/>
<path d="M177.077 268.74L190.268 291.996C194.12 298.787 203.922 298.741 207.71 291.914L220.048 269.677" stroke="#013843" stroke-width="15"/>
<path d="M93 131.5C129.146 112.184 152.598 111.289 199.5 125.5C244.466 113.884 268.865 110.096 304 131.5" stroke="#013845" stroke-width="20"/>
<path d="M104 137V88L199.5 57L294 88V137" stroke="#013845" stroke-width="20"/>
<path d="M100 101L11.185 78.3136C10.2277 78.069 10.1672 76.7321 11.0985 76.4021L198.169 10.1173C198.383 10.0414 198.617 10.0407 198.832 10.1154L389.464 76.4437C390.391 76.7662 390.347 78.0921 389.401 78.3523L292.5 105" stroke="#013845" stroke-width="20"/>
<path d="M197.5 219V226.5" stroke="#013845" stroke-width="3" stroke-linecap="round"/>
<path d="M189.239 157.114C188.719 157.114 188.197 157.068 187.92 156.722C187.769 156.534 187.688 156.485 187.688 156.26C187.688 156.212 187.621 156.091 187.581 156.054C187.481 155.963 187.541 155.74 187.505 155.619C187.377 155.183 187.459 154.726 187.785 154.346C187.978 154.121 188.132 153.911 188.356 153.698C188.627 153.44 188.94 153.208 189.191 152.942C190.163 151.912 191.435 150.989 193.03 150.495C193.635 150.307 194.174 149.996 194.813 149.862C195.061 149.81 195.307 149.76 195.54 149.684C195.787 149.603 196.101 149.569 196.374 149.569C196.657 149.569 196.957 149.45 197.233 149.425C197.903 149.364 198.576 149.22 199.247 149.144C200.026 149.056 200.776 149 201.574 149H202.398C202.661 149 202.934 149.077 203.197 149.105C203.314 149.117 203.366 149.155 203.466 149.176C203.626 149.209 203.85 149.246 203.997 149.304C204.206 149.387 204.455 149.446 204.69 149.501L204.71 149.506C205.031 149.582 205.354 149.601 205.68 149.684C205.981 149.761 206.26 149.854 206.541 149.969C206.937 150.13 207.311 150.454 207.753 150.495C207.925 150.51 208.163 150.658 208.286 150.744C208.47 150.871 208.698 150.959 208.878 151.092C209.154 151.294 209.427 151.458 209.67 151.687C209.889 151.894 210.075 152.12 210.295 152.327C210.498 152.519 210.556 152.765 210.731 152.966C210.961 153.232 211.072 153.574 210.949 153.891C210.9 154.017 210.745 154.121 210.707 154.249C210.66 154.404 210.569 154.565 210.513 154.71C210.488 154.774 210.274 155.007 210.2 155.05C210.036 155.147 209.961 155.328 209.716 155.368C209.292 155.437 208.84 155.477 208.407 155.477C208.148 155.477 207.884 155.331 207.656 155.248C207.277 155.108 206.95 154.906 206.614 154.714C206.374 154.576 206.081 154.49 205.79 154.443C205.655 154.421 205.534 154.374 205.394 154.374C205.237 154.374 205.088 154.34 204.931 154.338C204.839 154.337 204.656 154.375 204.573 154.352C203.716 154.11 202.779 153.948 201.864 154.051C201.562 154.086 201.02 154.191 200.785 154.346C200.562 154.493 200.088 154.527 199.805 154.579C199.477 154.64 199.094 154.748 198.776 154.836C198.311 154.965 197.896 155.171 197.419 155.291C196.996 155.397 196.589 155.445 196.267 155.675C196.108 155.788 195.94 155.895 195.782 156.011C195.527 156.198 195.267 156.385 195.093 156.616C195 156.738 194.696 156.94 194.522 157.015C194.33 157.098 194.14 157.364 194.027 157.505C193.9 157.664 193.658 157.773 193.504 157.915C193.314 158.089 193.084 158.255 192.826 158.377C192.69 158.441 192.532 158.518 192.411 158.591C192.217 158.707 192.015 158.693 191.762 158.731C191.134 158.826 190.57 159 189.918 159C189.62 159 189.344 158.936 189.07 158.891C188.878 158.86 188.609 158.873 188.44 158.804C188.193 158.704 187.876 158.688 187.713 158.502C187.537 158.301 187.264 158.066 187.543 157.861M188.028 158.075C187.749 158.054 187.52 157.915 187.274 157.863C187.006 157.807 187.16 157.664 187.083 157.505C186.96 157.254 187.01 156.942 187.01 156.669C187.01 156.582 187.043 156.382 187.096 156.295C187.152 156.203 187.245 155.97 187.252 155.868C187.274 155.58 187.47 155.3 187.64 155.05M194.086 154.73C193.937 154.788 193.802 154.872 193.625 154.872C193.389 154.872 193.141 154.89 192.917 154.945C192.641 155.013 192.363 155.113 192.099 155.2C191.994 155.235 191.888 155.222 191.786 155.255C191.698 155.284 191.541 155.263 191.444 155.263C191.048 155.263 191.597 154.223 191.671 154.109C192.078 153.48 192.576 152.973 193.432 152.652C193.845 152.496 194.315 152.441 194.743 152.31C195.222 152.162 195.718 151.974 196.218 151.875C196.691 151.781 197.176 151.749 197.651 151.633C198.269 151.483 198.815 151.34 199.465 151.295C200.241 151.243 201.037 151.278 201.816 151.278C203.093 151.278 204.22 151.561 205.319 152.009C205.471 152.071 205.83 152.088 205.922 152.203C205.996 152.295 206.064 152.347 206.202 152.381" stroke="#013845" stroke-width="9" stroke-linecap="round"/>
<circle cx="136.5" cy="373.5" r="8.5" fill="white"/>
<circle cx="143.5" cy="401.5" r="8.5" fill="white"/>
<circle cx="266.5" cy="376.5" r="8.5" fill="white"/>
<circle cx="260.5" cy="401.5" r="8.5" fill="white"/>
<circle cx="234.5" cy="387.5" r="8.5" fill="white"/>
<circle cx="176.5" cy="413.5" r="8.5" fill="white"/>
<circle cx="168.5" cy="387.5" r="8.5" fill="white"/>
<circle cx="225.5" cy="413.5" r="8.5" fill="white"/>
<rect width="30.0644" height="131.963" rx="15" transform="matrix(0.850814 0.525467 -0.519534 0.85445 1192.56 197)" fill="#013845"/>
<rect x="1129.59" y="321.43" width="30.2352" height="82" rx="15" transform="rotate(-90 1129.59 321.43)" fill="#013845"/>
<rect x="1129.59" y="229.716" width="30.2352" height="82" rx="15" transform="rotate(-90 1129.59 229.716)" fill="#013845"/>
<circle cx="452.5" cy="260.5" r="45.5" stroke="#013845" stroke-width="30"/>
<path d="M948.605 282.78V320.22C947.175 320.61 944.9 321 941.78 321.39C938.79 321.78 935.8 321.975 932.81 321.975C929.82 321.975 927.155 321.715 924.815 321.195C922.605 320.805 920.72 320.025 919.16 318.855C917.73 317.685 916.625 316.06 915.845 313.98C915.065 311.9 914.675 309.17 914.675 305.79V213.945C914.675 211.215 915.39 209.135 916.82 207.705C918.38 206.145 920.46 204.91 923.06 204C927.48 202.44 932.615 201.335 938.465 200.685C944.315 199.905 950.555 199.515 957.185 199.515C975.125 199.515 988.645 203.285 997.745 210.825C1006.85 218.365 1011.4 228.57 1011.4 241.44C1011.4 249.5 1009.32 256.39 1005.16 262.11C1001 267.83 996.055 272.25 990.335 275.37C995.015 281.74 999.63 287.72 1004.18 293.31C1008.73 298.9 1012.31 303.97 1014.91 308.52C1013.61 313.07 1011.2 316.58 1007.69 319.05C1004.31 321.39 1000.48 322.56 996.185 322.56C993.325 322.56 990.855 322.235 988.775 321.585C986.695 320.935 984.875 320.025 983.315 318.855C981.755 317.685 980.325 316.255 979.025 314.565C977.725 312.875 976.49 311.055 975.32 309.105L958.94 282.78H948.605ZM960.89 256.845C965.83 256.845 969.73 255.61 972.59 253.14C975.45 250.54 976.88 246.77 976.88 241.83C976.88 236.89 975.255 233.185 972.005 230.715C968.885 228.115 963.88 226.815 956.99 226.815C955.04 226.815 953.48 226.88 952.31 227.01C951.14 227.14 949.84 227.335 948.41 227.595V256.845H960.89Z" fill="#013845"/>
<circle cx="849.5" cy="260.5" r="45.5" stroke="#013845" stroke-width="30"/>
<rect x="699" y="200" width="30" height="121" rx="15" fill="#013845"/>
<rect x="700" y="230" width="30" height="94" rx="15" transform="rotate(-90 700 230)" fill="#013845"/>
<rect x="700" y="276" width="30" height="70" rx="15" transform="rotate(-90 700 276)" fill="#013845"/>
<rect x="519" y="200" width="30" height="121" rx="15" fill="#013845"/>
<rect x="513" y="245.213" width="30" height="116.361" rx="15" transform="rotate(-45 513 245.213)" fill="#013845"/>
<rect x="593.958" y="193" width="30" height="113.638" rx="15" transform="rotate(45 593.958 193)" fill="#013845"/>
<rect x="1253" y="200" width="30" height="121" rx="15" fill="#013845"/>
<rect x="1247" y="245.213" width="30" height="116.361" rx="15" transform="rotate(-45 1247 245.213)" fill="#013845"/>
<rect x="1327.96" y="193" width="30" height="113.638" rx="15" transform="rotate(45 1327.96 193)" fill="#013845"/>
<path d="M642.409 235.976L642.165 236.7C642.056 237.026 642 237.368 642 237.712C642 238.343 642.188 238.96 642.54 239.484L643 240.168C643.662 241.153 644.486 242.018 645.438 242.726L646 243.143L646.943 243.704C647.979 244.321 649.068 244.843 650.198 245.263L652.5 246.119L655.688 247.111L659 248.102L662 249.094L665 250.086L668 251.078L670.5 252.07L673.5 253.557L674.518 253.961C675.504 254.353 676.458 254.822 677.37 255.365L678.5 256.037L679.361 256.677C680.119 257.241 680.837 257.859 681.508 258.524L683 260.004L683.99 260.986C684.662 261.653 685.287 262.367 685.858 263.123L686.5 263.971L688 265.955L688.408 266.495C689.135 267.455 689.773 268.479 690.315 269.555L690.5 269.922L691.5 271.906L692.5 274.385L693 276.369L693.5 278.848L693.515 278.909C693.837 280.186 694 281.498 694 282.816V285.282C694 286.61 693.868 287.934 693.605 289.236L693.5 289.758L693 291.742L692.865 292.409C692.622 293.615 692.269 294.795 691.808 295.936L691.5 296.701L690.5 299.18L690 300.172L689 301.66L688.34 302.805C687.451 304.349 686.359 305.767 685.094 307.021L685 307.115L682.5 309.594L681 311.082L678.5 313.066L677 314.057L674.5 315.545L673.37 316.217C672.458 316.76 671.504 317.229 670.518 317.621L669.5 318.025L666.5 319.016L664.979 319.519C663.995 319.845 662.986 320.093 661.963 320.262L660.5 320.504L657 321H651.561C650.192 321 648.828 320.833 647.5 320.504L645 320.008L640.5 319.016L637.5 318.025L634.5 317.033L631.5 315.545L627.5 313.066L624.5 310.586L622 308.107L620 306.123C619.004 305.011 618.143 303.785 617.436 302.47L617 301.66L615 298.189L613.82 295.457C613.607 294.965 613.434 294.456 613.303 293.936L613.189 293.484C613.064 292.986 613 292.474 613 291.96C613 291.161 613.154 290.369 613.453 289.628L613.707 288.998C613.902 288.514 614.136 288.046 614.406 287.6L614.592 287.291C615.195 286.295 615.918 285.376 616.745 284.556L617 284.303L617.88 283.43C618.293 283.021 618.734 282.641 619.2 282.295C620.063 281.653 621.006 281.127 622.005 280.731L623 280.336C623.994 280.008 625.033 279.84 626.08 279.84H631.221C631.738 279.84 632.254 279.903 632.756 280.028C633.577 280.231 634.35 280.596 635.028 281.101L635.478 281.435C635.826 281.694 636.154 281.977 636.462 282.282L638.5 284.303L640.048 285.839C640.349 286.137 640.628 286.457 640.884 286.795C641.62 287.768 642.548 288.581 643.61 289.183L645.5 290.254C647.473 291.233 649.646 291.742 651.849 291.742H654.768C656.236 291.742 657.684 291.402 659 290.75L661.5 289.262L662.792 288.237C663.584 287.609 664.199 286.786 664.577 285.849C664.856 285.156 665 284.415 665 283.667V283.539C665 281.806 664.308 280.146 663.078 278.926L663 278.848L662.619 278.546C661.213 277.43 659.663 276.509 658.011 275.807L657 275.377L654 274.385L651 273.393L648 272.402L643.5 270.914L639.5 269.922L636 268.93L634.662 268.599C632.896 268.161 631.197 267.484 629.614 266.586L628.5 265.955L628.112 265.724C626.709 264.889 625.414 263.886 624.255 262.737L620.5 259.012L619.214 257.482C618.407 256.521 617.691 255.486 617.078 254.39L615.5 251.574L613.5 247.111L612.948 245.468C612.32 243.6 612 241.643 612 239.672V235.705L612.5 231.738L612.703 230.124C612.9 228.56 613.282 227.026 613.839 225.552L614.5 223.803L616.5 219.836L617.783 217.799C618.592 216.517 619.544 215.33 620.62 214.262L622.5 212.398L624.326 210.586C625.107 209.811 625.951 209.103 626.849 208.467L629 206.943L631.304 205.514C632.432 204.815 633.626 204.23 634.87 203.768L637 202.975L639.623 201.935C641.201 201.309 642.853 200.886 644.538 200.677L646 200.496L650.5 200H655.5L659.5 200.496L662.5 200.992L666 201.984L669 202.975L671.5 203.967L674.5 205.455L677 206.943L679.151 208.467C680.049 209.103 680.893 209.811 681.674 210.586L683.5 212.398L684.248 213.14C685.412 214.294 686.429 215.586 687.277 216.988L687.5 217.357L689 219.836L689.986 222.118C690.328 222.909 690.586 223.733 690.756 224.577C690.918 225.382 691 226.2 691 227.021V230.297C691 231.249 690.817 232.191 690.461 233.073C690.156 233.831 689.728 234.532 689.194 235.15L688.084 236.435C687.363 237.269 686.565 238.033 685.702 238.719L684.5 239.672L682 241.16C680.684 241.812 679.236 242.152 677.768 242.152H674.625C672.893 242.152 671.178 241.802 669.584 241.125L669.456 241.07C668.82 240.8 668.21 240.472 667.633 240.091C666.229 239.162 665.048 237.933 664.176 236.492L664 236.201L662.973 234.503C662.659 233.984 662.282 233.505 661.851 233.078C661.287 232.519 660.637 232.054 659.926 231.701L658 230.746L657.136 230.46C655.721 229.993 654.24 229.754 652.75 229.754H652.383C651.136 229.754 649.896 229.954 648.712 230.345C647.906 230.612 647.132 230.965 646.403 231.399L645.827 231.742C645.278 232.068 644.771 232.461 644.317 232.911C643.451 233.77 642.798 234.819 642.409 235.976Z" fill="#013845"/>
<path d="M1074.4 291V309.777C1074.4 313.92 1073.15 317.74 1071.02 320.907C1072.14 320.969 1073.27 321 1074.4 321C1107.81 321 1134.9 293.913 1134.9 260.5C1134.9 227.087 1107.81 200 1074.4 200C1072.24 200 1070.1 200.113 1068 200.335C1071.94 203.987 1074.4 209.206 1074.4 215V230C1091.25 230 1104.9 243.655 1104.9 260.5C1104.9 277.345 1091.25 291 1074.4 291Z" fill="#013845"/>
<path d="M1025 215C1025 206.716 1031.72 200 1040 200C1048.28 200 1055 206.716 1055 215V306C1055 314.284 1048.28 321 1040 321C1031.72 321 1025 314.284 1025 306V215Z" fill="#013845"/>
<path d="M1040 321C1031.72 321 1025 314.284 1025 306C1025 297.716 1031.72 291 1040 291H1072C1080.28 291 1087 297.716 1087 306C1087 314.284 1080.28 321 1072 321H1040Z" fill="#013845"/>
<path d="M1040 230C1031.72 230 1025 223.284 1025 215C1025 206.716 1031.72 200 1040 200H1072C1080.28 200 1087 206.716 1087 215C1087 223.284 1080.28 230 1072 230H1040Z" fill="#013845"/>
<rect x="1217" y="200" width="30" height="121" rx="15" fill="#013845"/>
</svg>
