<svg width="709" height="676" viewBox="0 0 709 676" fill="none" xmlns="http://www.w3.org/2000/svg">
<path fill-rule="evenodd" clip-rule="evenodd" d="M705.981 353.135C706.987 347.972 707.991 342.816 709 337.673C709 132.83 505.198 -36.0088 305.632 6.64374C100.576 6.64374 26.2393 139.54 2.10585 337.673C-19.2391 512.913 123.702 686.618 339.048 665.92C634.114 722.097 670.903 533.227 705.981 353.135ZM209.843 170.798C264.38 120.659 335.939 115.974 398.187 140.096C460.42 164.212 512.142 216.701 527.06 279.376C494.467 305.132 457.123 341.314 412.434 388.264C398.082 390.366 386.699 394.85 378.091 404.996C369.364 415.283 364.379 430.419 360.341 451.38C359.157 456.15 357.812 458.871 355.893 461.004C353.85 463.275 350.571 465.532 344.326 468.273C336.774 471.589 337.99 482.289 345.572 484.305C375.227 492.193 398.185 493.59 416.217 484.857C434.099 476.197 445.162 458.571 453.801 433.669C487.237 398.428 512.415 370.683 532.5 346.74C532.166 380.641 530.1 405.804 519.612 429.59C507.098 457.969 482.106 485.311 430.611 522.217C381.471 557.435 316.339 556.299 263.744 535.1C237.529 524.533 214.927 509.157 199.393 491.428C183.983 473.838 175.885 454.391 177.228 435.12C178.973 427.903 183.024 420.808 188.726 413.415C193.894 406.714 200.06 400.206 206.566 393.339L206.566 393.339L206.566 393.338C207.426 392.431 208.291 391.518 209.161 390.597C223.427 375.49 239.598 357.861 241.619 335.959C242.274 328.853 239.688 322.8 235.918 317.75C232.256 312.845 227.173 308.467 221.988 304.424C219.148 302.208 216.246 300.059 213.341 297.907L213.34 297.906L213.34 297.906C205.095 291.799 196.829 285.676 189.873 277.985C180.896 268.057 174.914 256.249 176.166 240.024C177.447 223.427 186.367 201.166 209.843 170.798ZM403.607 126.109C467.531 150.881 521.89 204.139 540.007 269.514C557.164 256.959 573.004 247.511 587.951 241.114C595.92 237.704 602.416 246.529 598.622 253.144C584.095 278.471 568.976 301.302 547.552 328.312C547.636 371.399 547.103 404.421 533.336 435.642C519.183 467.74 491.532 497.01 439.349 534.409C384.837 573.477 313.941 571.505 258.137 549.012C230.152 537.733 205.462 521.117 188.111 501.312C170.766 481.514 160.393 458.061 162.309 433.47C162.341 433.063 162.403 432.652 162.496 432.243C164.863 421.867 170.394 412.623 176.849 404.254C182.517 396.904 189.25 389.802 195.688 383.009C196.175 382.495 196.661 381.983 197.144 381.473C197.516 381.08 197.887 380.688 198.256 380.297C213.264 364.406 225.216 350.466 226.682 334.581C226.899 332.235 226.188 329.792 223.898 326.723C221.5 323.511 217.76 320.148 212.764 316.252C210.513 314.497 208.006 312.642 205.349 310.676L205.349 310.676L205.348 310.675C196.842 304.381 186.803 296.953 178.748 288.046C167.748 275.882 159.566 260.184 161.211 238.87C162.821 218.004 173.779 192.821 198.318 161.181C198.593 160.828 198.91 160.477 199.267 160.147C258.919 104.983 337.055 100.319 403.607 126.109ZM413.169 403.328C401.615 405.201 394.656 408.658 389.529 414.701C383.475 421.836 379.023 433.636 375.035 454.402L374.999 454.587L374.954 454.77C373.445 460.935 371.272 466.337 367.045 471.036C366.312 471.85 365.535 472.624 364.713 473.363C385.119 477.323 399.196 476.433 409.679 471.357C421.642 465.563 430.692 453.424 438.681 431.425L413.169 403.328ZM447.354 418.663C516.279 345.786 548.399 306.24 574.13 264.915C535.681 287.273 489.026 329.76 426.292 395.466L447.354 418.663ZM280.019 242.926C280.019 256.999 269.007 267.729 256.249 267.729C243.491 267.729 232.479 256.999 232.479 242.926C232.479 228.854 243.491 218.124 256.249 218.124C269.007 218.124 280.019 228.854 280.019 242.926ZM295.019 242.926C295.019 264.909 277.661 282.729 256.249 282.729C234.837 282.729 217.479 264.909 217.479 242.926C217.479 220.944 234.837 203.124 256.249 203.124C277.661 203.124 295.019 220.944 295.019 242.926ZM361.703 237.479C374.461 237.479 385.473 226.749 385.473 212.676C385.473 198.604 374.461 187.874 361.703 187.874C348.945 187.874 337.933 198.604 337.933 212.676C337.933 226.749 348.945 237.479 361.703 237.479ZM361.703 252.479C383.115 252.479 400.473 234.659 400.473 212.676C400.473 190.694 383.115 172.874 361.703 172.874C340.291 172.874 322.933 190.694 322.933 212.676C322.933 234.659 340.291 252.479 361.703 252.479ZM474.643 276.361C474.643 290.433 463.632 301.164 450.874 301.164C438.115 301.164 427.104 290.433 427.104 276.361C427.104 262.288 438.115 251.558 450.874 251.558C463.632 251.558 474.643 262.288 474.643 276.361ZM489.643 276.361C489.643 298.343 472.286 316.164 450.874 316.164C429.462 316.164 412.104 298.343 412.104 276.361C412.104 254.378 429.462 236.558 450.874 236.558C472.286 236.558 489.643 254.378 489.643 276.361ZM270.206 468.335C282.965 468.335 293.976 457.605 293.976 443.533C293.976 429.46 282.965 418.73 270.206 418.73C257.448 418.73 246.436 429.46 246.436 443.533C246.436 457.605 257.448 468.335 270.206 468.335ZM270.206 483.335C291.618 483.335 308.976 465.515 308.976 443.533C308.976 421.55 291.618 403.73 270.206 403.73C248.794 403.73 231.436 421.55 231.436 443.533C231.436 465.515 248.794 483.335 270.206 483.335Z" fill="#013845"/>
</svg>
