<svg width="36" height="40" viewBox="0 0 36 40" fill="none" xmlns="http://www.w3.org/2000/svg">
<path d="M7.19169 17.0702C10.0525 23.2536 14.6615 28.3008 20.2837 31.469L24.6544 26.6621C25.1908 26.0722 25.9854 25.8755 26.6808 26.1377C28.9058 26.9462 31.3097 27.3832 33.7731 27.3832C34.8658 27.3832 35.7598 28.3664 35.7598 29.5681V37.1936C35.7598 38.3954 34.8658 39.3786 33.7731 39.3786C15.1184 39.3786 0 22.7511 0 2.23428C0 1.03255 0.893994 0.0493164 1.98665 0.0493164H8.93994C10.0326 0.0493164 10.9266 1.03255 10.9266 2.23428C10.9266 4.96548 11.3239 7.58743 12.059 10.0346C12.2775 10.7993 12.1186 11.6515 11.5623 12.2632L7.19169 17.0702Z" fill="#013845"/>
</svg>
