<svg width="30" height="31" viewBox="0 0 30 31" fill="none" xmlns="http://www.w3.org/2000/svg">
<path d="M6.03333 13.1215C8.43333 17.8382 12.3 21.6882 17.0167 24.1048L20.6833 20.4382C21.1333 19.9882 21.8 19.8382 22.3833 20.0382C24.25 20.6549 26.2667 20.9882 28.3333 20.9882C29.25 20.9882 30 21.7382 30 22.6549V28.4715C30 29.3882 29.25 30.1382 28.3333 30.1382C12.6833 30.1382 0 17.4549 0 1.80485C0 0.888184 0.75 0.138184 1.66667 0.138184H7.5C8.41667 0.138184 9.16667 0.888184 9.16667 1.80485C9.16667 3.88818 9.5 5.88818 10.1167 7.75485C10.3 8.33818 10.1667 8.98818 9.7 9.45485L6.03333 13.1215Z" fill="#2CA6AE"/>
</svg>
