<svg width="709" height="676" viewBox="0 0 709 676" fill="none" xmlns="http://www.w3.org/2000/svg">
<path fill-rule="evenodd" clip-rule="evenodd" d="M705.981 353.135C706.987 347.972 707.991 342.816 709 337.673C709 132.83 505.198 -36.0088 305.632 6.64374C100.576 6.64374 26.2393 139.54 2.10585 337.673C-19.2391 512.913 123.702 686.618 339.048 665.92C634.114 722.097 670.903 533.227 705.981 353.135ZM442.048 99.4811C410.376 85.6412 371.737 80.5668 334.239 82.3405C290.564 84.4064 246.902 95.8325 215.769 115.182L215.791 115.216C109.635 181.744 75.6369 277.734 85.6773 365.808C95.6433 453.23 149.061 532.982 217.363 567.512C286.064 605.599 377.314 613.581 463.655 571.111C470.631 582.827 483.423 590.675 498.048 590.675H504.048C526.139 590.675 544.048 572.767 544.048 550.675V507.63L545.485 508.544L552.434 497.623C585.781 447.297 602.645 397.673 604.202 348.298C605.759 298.909 591.977 250.547 565.276 202.795L565.202 202.662L565.123 202.531L559.123 192.531L559.048 192.406V83.6755H539.048V234.675C539.048 251.244 525.617 264.675 509.048 264.675H492.048C475.48 264.675 462.048 251.244 462.048 234.675V83.6755H442.048V99.4811ZM442.048 121.613C412.971 106.613 374.22 100.472 335.184 102.318C295.095 104.214 256.149 114.468 228.777 130.682L228.782 130.691C127.416 193.109 96.2876 282.306 105.549 363.543C114.902 445.592 165.398 519.405 227.493 550.218L227.477 550.251C291.5 585.571 377.05 592.731 458.057 551.549C458.055 551.425 458.053 551.3 458.051 551.175C458.049 551.008 458.048 550.842 458.048 550.675V492.471C412.268 527.258 364.581 534.158 323.832 528.906C279.596 523.204 243.545 503.226 226.316 489.496L226.404 489.386C118.546 397.392 140.751 255.892 228.556 190.17L234.555 198.184L228.649 190.101C279.201 153.169 329.514 146.436 370.806 152.468C400.051 156.74 424.818 167.416 442.048 178.241V121.613ZM458.048 404.676V466.863L457.904 466.701C413.095 506.532 366.097 514.188 326.389 509.07C288.111 504.136 256.598 487.291 240.948 475.531L240.968 475.508C141.801 392.474 161.802 265.161 240.494 206.216C286.426 172.678 331.345 166.916 367.915 172.258C401.931 177.227 428.656 191.8 442.048 202.734V234.675C442.048 261.283 462.831 283.035 489.048 284.587V364.675H498.048C475.957 364.675 458.048 382.584 458.048 404.676ZM509.048 364.675V284.675C536.662 284.675 559.048 262.29 559.048 234.675V234.395C576.79 272.246 585.403 309.862 584.212 347.667C582.922 388.578 570.13 430.351 544.048 473.499V404.675C544.048 382.584 526.14 364.675 504.048 364.675H509.048ZM509.048 83.6755V217.675H529.048V83.6755H509.048ZM504.048 384.675H498.048C487.002 384.675 478.048 393.63 478.048 404.676V550.675C478.048 561.721 487.002 570.675 498.048 570.675H504.048C515.094 570.675 524.048 561.721 524.048 550.675V404.675C524.048 393.63 515.094 384.675 504.048 384.675ZM476.048 217.675V83.6755H496.048V217.675H476.048Z" fill="#013845"/>
</svg>
