<svg width="709" height="676" viewBox="0 0 709 676" fill="none" xmlns="http://www.w3.org/2000/svg">
<path fill-rule="evenodd" clip-rule="evenodd" d="M705.981 353.135C706.987 347.972 707.991 342.816 709 337.673C709 132.83 505.198 -36.0087 305.632 6.64387C100.576 6.64387 26.2393 139.54 2.10586 337.673C-19.2391 512.913 123.702 686.618 339.048 665.92C634.114 722.097 670.903 533.227 705.981 353.135ZM343.565 429.149C348.828 416.895 355.94 400.337 374.141 381.255C385.381 369.472 403.109 359.143 422.255 347.987C480.638 313.97 552.211 272.269 493.24 158.217C493.163 158.07 493.061 157.92 492.951 157.796C435.76 93.5915 393.562 79.5765 301.239 92.2297C301.125 92.2453 301.006 92.2722 300.896 92.3074C230.292 114.906 205.9 144.262 192.108 206.338C192.038 206.654 192.046 206.997 192.134 207.309C205.381 254.598 259.143 260.976 280.058 207.02C280.107 206.894 280.171 206.766 280.244 206.652C309.82 160.556 333.444 145.89 385.158 163.861C436.935 181.855 435.834 248.322 385.158 278.801C349.667 300.525 330.927 313.612 301.234 339.611C301.123 339.708 301.018 339.823 300.931 339.943C279.989 368.765 273.462 387.131 276.063 425.248C276.082 425.535 276.166 425.824 276.304 426.075C283.37 438.964 288.812 444.176 300.912 449.129C301.012 449.17 301.125 449.205 301.23 449.229C331.939 456.214 335.674 447.519 343.565 429.149ZM280.133 487.749L337.905 497.256C338.07 497.283 338.234 497.332 338.387 497.4C348.884 502.046 352.078 506.203 350.639 517.494L342.248 575.863C342.212 576.118 342.125 576.367 341.993 576.588C337.62 583.982 333.856 586.891 323.735 587.972C323.558 587.991 323.376 587.985 323.2 587.956L263.9 578.134C263.706 578.102 263.516 578.04 263.34 577.953C255.713 574.156 252.581 570.839 251.518 561.094C251.499 560.919 251.504 560.738 251.532 560.564L261.692 497.789C261.744 497.466 261.877 497.157 262.077 496.897C267.896 489.336 271.897 487.258 280.133 487.749Z" fill="#013845"/>
</svg>
