<svg width="709" height="676" viewBox="0 0 709 676" fill="none" xmlns="http://www.w3.org/2000/svg">
<path fill-rule="evenodd" clip-rule="evenodd" d="M705.981 353.135C706.987 347.972 707.991 342.816 709 337.673C709 132.83 505.198 -36.0088 305.632 6.64374C100.576 6.64374 26.2393 139.54 2.10585 337.673C-19.2391 512.913 123.702 686.618 339.048 665.92C634.114 722.097 670.903 533.227 705.981 353.135ZM198.5 155C222.524 155 242 135.524 242 111.5C242 87.4756 222.524 68 198.5 68C174.476 68 155 87.4756 155 111.5C155 135.524 174.476 155 198.5 155ZM246.035 145.605C252.936 136.004 257 124.226 257 111.5C257 79.1913 230.809 53 198.5 53C166.191 53 140 79.1913 140 111.5C140 143.809 166.191 170 198.5 170C212.636 170 225.601 164.986 235.714 156.64L317.409 254H210C171.34 254 140 285.34 140 324V332.94C104.507 344.388 83.9312 374.226 82.5719 405.36C81.1835 437.162 99.825 469.077 140 483.673V495C140 533.66 171.34 565 210 565H499C537.66 565 569 533.66 569 495V483.988C609.781 469.54 628.704 437.392 627.305 405.36C625.935 373.97 605.031 343.898 569 332.662V324C569 285.34 537.66 254 499 254H389.571L434.415 200.558C442.58 206.497 452.631 210 463.5 210C490.838 210 513 187.838 513 160.5C513 133.162 490.838 111 463.5 111C436.162 111 414 133.162 414 160.5C414 171.539 417.613 181.733 423.721 189.966L369.99 254H336.99L246.035 145.605ZM499 269H210C179.624 269 155 293.624 155 324V495C155 525.376 179.624 550 210 550H499C529.376 550 554 525.376 554 495V324C554 293.624 529.376 269 499 269ZM97.5576 406.015C98.5824 382.543 113.307 359.363 140 348.861V467.555C109.242 454.389 96.5319 429.507 97.5576 406.015ZM569 348.522V467.925C600.393 454.86 613.355 429.729 612.32 406.015C611.284 382.287 596.248 358.858 569 348.522ZM341.5 456C333.492 456 327 462.492 327 470.5C327 478.508 333.492 485 341.5 485H366.5C374.508 485 381 478.508 381 470.5C381 462.492 374.508 456 366.5 456H341.5ZM259 400C274.464 400 287 387.464 287 372C287 356.536 274.464 344 259 344C243.536 344 231 356.536 231 372C231 387.464 243.536 400 259 400ZM498 160.5C498 179.554 482.554 195 463.5 195C444.446 195 429 179.554 429 160.5C429 141.446 444.446 126 463.5 126C482.554 126 498 141.446 498 160.5ZM479 372C479 387.464 466.464 400 451 400C435.536 400 423 387.464 423 372C423 356.536 435.536 344 451 344C466.464 344 479 356.536 479 372Z" fill="#013845"/>
</svg>
