<svg width="180" height="172" viewBox="0 0 180 172" fill="none" xmlns="http://www.w3.org/2000/svg">
<path fill-rule="evenodd" clip-rule="evenodd" d="M179.234 89.6534C179.489 88.3426 179.744 87.0336 180 85.7279C180 33.7227 128.259 -9.14187 77.5934 1.6867C25.5342 1.6867 6.66161 35.4261 0.53463 85.7279C-4.8844 130.218 31.4053 174.318 86.077 169.063C160.988 183.325 170.328 135.375 179.234 89.6534ZM29.2174 134.724C33.5002 161.596 154.408 155.865 150.986 134.782C150.965 134.653 150.95 134.516 150.949 134.385C150.843 120.136 139.244 105.22 127.814 103.79C127.001 103.689 126.275 103.178 126.008 102.403C121.696 89.9082 122.516 82.6026 123.981 69.5614L123.982 69.5595C124.189 67.7102 124.41 65.7455 124.631 63.6342C126.457 46.1814 113.457 14.7169 89.702 19.5368C89.5707 19.5634 89.4288 19.5789 89.2948 19.5802C64.3265 19.8328 58.2752 33.4141 55.6512 63.3813C55.6367 63.5467 55.6435 63.7217 55.6703 63.8856C59.5992 87.9513 59.3038 96.9555 54.0537 103.138C53.7483 103.497 53.3059 103.715 52.8397 103.788C35.4681 106.5 29.2629 125.905 29.1964 134.443C29.1956 134.538 29.2024 134.63 29.2174 134.724ZM75.9314 96.8146C86.2711 104.521 93.7508 104.44 103.922 96.7905C105.105 95.9012 106.814 96.5056 107.546 97.7913C108.32 99.1494 109.445 100.158 111.276 101.221C112 101.641 112.435 102.452 112.062 103.203C110.48 106.393 104.953 111.59 98.3303 117.818L98.3301 117.818L98.3296 117.818C96.13 119.887 93.8094 122.069 91.4722 124.329C90.692 125.083 89.4513 125.085 88.6676 124.334C86.3847 122.147 84.1456 120.077 82.0228 118.114L82.0216 118.113L82.0214 118.113C75.834 112.392 70.6348 107.584 68.2204 103.476C67.7055 102.599 68.093 101.523 68.9474 100.973C70.5125 99.9653 71.531 99.0216 72.2373 97.8389C73.0027 96.5572 74.7345 95.9225 75.9314 96.8146ZM101.089 46.4936L67.748 63.5467C67.0564 63.9005 66.2225 63.8217 65.6094 63.3448L64.652 62.6002C63.9776 62.0757 63.0032 62.0487 62.6406 62.8223C61.2975 65.6885 62.3862 72.1406 64.9554 73.7525C65.085 73.8338 65.2196 73.9145 65.3558 73.9962C66.105 74.4455 66.9046 74.925 67.2124 75.7084C73.8904 92.7055 95.4073 113.756 112.722 75.3921C113.067 74.6282 113.903 74.189 114.659 73.8267C117.031 72.6898 117.65 68.0424 117.65 64.1265C117.548 62.9765 117.39 62.1989 117.069 61.768C116.75 61.3381 116.247 61.0675 115.753 60.8017C115.109 60.4554 114.481 60.1172 114.291 59.445C111.606 49.9138 108.843 46.417 101.998 46.2795C101.683 46.2732 101.37 46.3501 101.089 46.4936Z" fill="#013845"/>
</svg>
